<svg xmlns="http://www.w3.org/2000/svg" width="32" height="32" viewBox="0 0 32 32">
  <g id="Icon_-_Apple" data-name="Icon - Apple" transform="translate(-803 -464)">
    <path id="apple" d="M20.092,17.525a13.944,13.944,0,0,1-1.774,3.606q-1.861,2.827-3.707,2.827a6.652,6.652,0,0,1-2.019-.462,6.368,6.368,0,0,0-2.178-.462,5.551,5.551,0,0,0-2.048.476,5.216,5.216,0,0,1-1.9.49Q4.269,24,2.12,20.264A14.779,14.779,0,0,1,0,13.011,8.557,8.557,0,0,1,1.63,7.616a5,5,0,0,1,4.1-2.077,9.6,9.6,0,0,1,2.553.433,9.285,9.285,0,0,0,1.99.433,7.229,7.229,0,0,0,2.063-.49,8.151,8.151,0,0,1,2.5-.49,5.272,5.272,0,0,1,3.072.938,7.436,7.436,0,0,1,1.5,1.442,9.336,9.336,0,0,0-1.644,1.7,5.136,5.136,0,0,0-.938,2.986,5.493,5.493,0,0,0,1,3.216,4.383,4.383,0,0,0,2.279,1.817ZM14.669.606a5.505,5.505,0,0,1-.418,1.962,5.92,5.92,0,0,1-1.341,1.99A4.08,4.08,0,0,1,11.351,5.6a8.019,8.019,0,0,1-1.5.245,6.575,6.575,0,0,1,1.125-3.707A5.746,5.746,0,0,1,14.583,0a1.519,1.519,0,0,1,.036.159,1.519,1.519,0,0,0,.036.159q0,.058.007.144t.007.144Z" transform="translate(808.954 468)" fill="#fff"/>
    <rect id="Rectangle_1093" data-name="Rectangle 1093" width="32" height="32" transform="translate(803 464)" fill="none"/>
  </g>
</svg>
