<svg xmlns="http://www.w3.org/2000/svg" width="149.999" height="45.309" viewBox="0 0 149.999 45.309">
  <g id="logo_text" data-name="logo&amp;text" transform="translate(-40.185 -43.716)">
    <path id="Path_158" data-name="Path 158" d="M80.6,81.891a16.583,16.583,0,0,1-1.354,1.074A17.408,17.408,0,0,1,68.785,86.17l-.449.3a16.062,16.062,0,0,1-11.767,2.252,18.538,18.538,0,0,1-4.095-1.278,20.789,20.789,0,0,1-9.107-8.089A21.1,21.1,0,0,1,40.2,67.339a17.965,17.965,0,0,1,2.175-7.853,16,16,0,0,1,5.208-5.665c.321-.208.645-.4.978-.589a17.436,17.436,0,0,1,5.4-6.3A17.889,17.889,0,0,1,67.7,44.062a22.6,22.6,0,0,1,12.192,6.811H190.184V81.891Z" fill="#0f0b08"/>
    <rect id="Rectangle_6" data-name="Rectangle 6" width="119.328" height="4.435" transform="translate(68.424 75.02)" fill="#0f0b08"/>
    <rect id="Rectangle_7" data-name="Rectangle 7" width="119.328" height="4.435" transform="translate(68.424 75.02)" fill="none" stroke="#000004" stroke-width="0.22"/>
    <rect id="Rectangle_8" data-name="Rectangle 8" width="109.876" height="11.983" transform="translate(77.875 53.289)" fill="#0f0b08"/>
    <path id="Path_159" data-name="Path 159" d="M106.41,70.5l121.034-.012V92.149l-121,.012Z" transform="translate(-39.693 -16.047)" fill="#0f0b08" fill-rule="evenodd"/>
    <path id="Path_160" data-name="Path 160" d="M107.85,76.562l119.88-.012V95.4l-119.852.016Z" transform="translate(-40.556 -19.68)" fill="#e42e0e" fill-rule="evenodd"/>
    <path id="Path_161" data-name="Path 161" d="M153.7,79.542,153.724,96h16.7s.08-10.076.313-10.861-1.4-2.644,4.9-3.285,78.394-2.328,78.394-2.328Z" transform="translate(-68.036 -21.466)" fill="#ed7573" fill-rule="evenodd"/>
    <path id="Path_162" data-name="Path 162" d="M245.32,95.24v1.55h4.139V95.24Zm-50.133-.156v4.131h4.143V95.083ZM170.111,95v4.135h4.143V95Zm71.274-4.235,12.536.044v12.937h-4.463v-2.46H245.32v2.476h-4.463V94.494l-3.774,3.758v5.485H215.8V99.442l-8.077-.028v4.3l-42.068-.14V94.971h-3.774v8.606h-4.463v-8.63h-4.3V90.46l71.094.236V99.3h4.139V97.583H232.1l-3.77-3.782V90.708h3.1l3.369,3.4,3.377-3.365Z" transform="translate(-67.689 -28.017)" fill="#0f0b08" fill-rule="evenodd" opacity="0.22"/>
    <path id="Path_163" data-name="Path 163" d="M245.32,89.049V90.6h4.139V89.037Zm-50.132.144v4.131h4.143V89.181Zm-25.076.072V93.4h4.143V89.254Zm71.274-4.68,12.54-.036V97.627h-4.467V95.043H245.32v2.58h-4.463V88.336l-3.774,3.782v5.561l-21.278.064V93.436l-8.077.024v4.3l-42.068.12V89.278h-3.774v8.606h-4.463V89.3h-4.3V84.842l71.094-.2v8.6h4.139V91.521H232.1l-3.77-3.754V84.626h3.1l3.369,3.361,3.377-3.393Z" transform="translate(-67.689 -24.474)" fill="#0f0b08" fill-rule="evenodd"/>
    <path id="Path_164" data-name="Path 164" d="M245.544,85.81v2.58h5.164V85.774ZM242.1,82.376l12.047-.036V94.387h-3.442V91.8l-5.164.016V94.4H242.1Zm-6.514,3.606,3.586-3.606h2.436v2.44L237.3,89.107v5.309h-3.442v-5.3l-4.3-4.291V82.392h2.436Zm-14.6-3.546h3.442v8.582h5.164V89.3h3.442v5.16l-12.047.036ZM217.051,84.5V82.428h3.442v2.063Zm3.442,9.984h-3.442V85.409h3.442Zm-3.934-12.019v3.446l-8.6.024V86.8l8.6-.028v3.442l-8.6.028V94.5h-3.446V82.464Zm-21.142,3.506V91.1h5.164v-5.18Zm-3.442-3.434,12.047-.036V94.552l-12.047.036Zm-9.111,3.43v8.606h-3.442V82.536l12.035-.032V94.552h-3.442v-8.6h-.861V94.56h-3.442V85.966Zm-12.536.036V91.17h5.16V85.99Zm-3.446-3.434,12.047-.032V94.588l-12.047.032Zm-4.808,3.458v8.594h-3.442V86.038h-4.3V82.6l12.047-.032v3.442Z" transform="translate(-68.414 -23.15)" fill="#fff"/>
    <path id="Path_165" data-name="Path 165" d="M71.681,87.367a12.305,12.305,0,0,1-1.014.733,13.558,13.558,0,0,1-9.988,1.891,15.7,15.7,0,0,1-3.546-1.106,18.329,18.329,0,0,1-8.013-7.147,18.622,18.622,0,0,1-2.8-10.629,15.625,15.625,0,0,1,1.867-6.791A13.546,13.546,0,0,1,52.59,59.51a13.223,13.223,0,0,1,1.486-.841,15.052,15.052,0,0,1,4.972-6.1,15.367,15.367,0,0,1,11.871-2.456c9.9,1.847,17.308,11.687,17.039,21.635a16.094,16.094,0,0,1-6.47,12.893,15.092,15.092,0,0,1-9.808,2.72" transform="translate(-3.665 -3.661)" fill="#0f0b08" fill-rule="evenodd"/>
    <path id="Path_166" data-name="Path 166" d="M57.708,76.348,51.189,94.2a24.576,24.576,0,0,1-1.747-9.615c.128-5.4,5.885-10.168,7.472-10.525s.8,2.288.8,2.288" transform="translate(-5.546 -18.168)" fill="#b5b5b5" fill-rule="evenodd"/>
    <path id="Path_167" data-name="Path 167" d="M66.789,135.736c-.861-.6-5.889-3.409-5.869-3.273s2.544,5.609,9.88,5.938c.188,0,.148.208.3.228a9.071,9.071,0,0,0,1.747.048c.369-.032.749-.036,1.09-.088,4.6-.673,6.5-3.253,6.5-3.253l-10.052-1.386Z" transform="translate(-12.428 -53.188)" fill="#0f0b08" fill-rule="evenodd"/>
    <path id="Path_168" data-name="Path 168" d="M58.31,126.459a35.022,35.022,0,0,0-2.72-3.329,13.961,13.961,0,0,0,3.526,5.713,17.3,17.3,0,0,0,5.453,2.961,22.774,22.774,0,0,1-2.524-1.17,7.175,7.175,0,0,1-1.33-.934,23.829,23.829,0,0,0,3.77,1.719,15.777,15.777,0,0,0,6.775.645,11.151,11.151,0,0,0,4.647-1.907c.6-.613-17.6-3.7-17.6-3.7" transform="translate(-9.233 -47.598)" fill="#605f5f" fill-rule="evenodd"/>
    <path id="Path_169" data-name="Path 169" d="M56.111,74.553a12.7,12.7,0,0,0-3.97,3.361,13.906,13.906,0,0,0-2.64,6.543,16.967,16.967,0,0,0,.22,4.968A11.49,11.49,0,0,0,50.33,91.7a29.756,29.756,0,0,1-.557-4.5,14.548,14.548,0,0,1,.361-3.886,20.834,20.834,0,0,0-.084,4.575,10.168,10.168,0,0,0,.717,2.881s10.817,10.877,13.794,11.11-5.689-1.6-8.013-3.674a24.968,24.968,0,0,0-4.095-3.057A14.111,14.111,0,0,0,54.761,98.5a20.033,20.033,0,0,0,3.7,2.736,14.223,14.223,0,0,1-4.355-3.177,14.171,14.171,0,0,0,3.365,2.921,16.583,16.583,0,0,0,3.446,1.555,15.11,15.11,0,0,0,2.8.637,13.8,13.8,0,0,0,2.352.02,12.873,12.873,0,0,0,2.8-.549A17.011,17.011,0,0,0,72.3,101.12a11.49,11.49,0,0,1-1.9,1.358,15.877,15.877,0,0,1-3.205,1.046,19.978,19.978,0,0,1-2,.172c-.5,0-.841-.02-1.014,0a11.739,11.739,0,0,1-2.616-.353,19.581,19.581,0,0,1-3.758-1.55,16.993,16.993,0,0,1-3.674-2.74,16.46,16.46,0,0,1-4.98-9.215,20.584,20.584,0,0,1-.28-4.455,17.228,17.228,0,0,1,.785-3.71,22.212,22.212,0,0,1,1.086-2.5c1.054-2.171,4.639-4.96,5.765-5.056s-.4.441-.4.441" transform="translate(-5.183 -18.212)" fill="#605f5f" fill-rule="evenodd"/>
    <path id="Path_170" data-name="Path 170" d="M57.108,75.372a11.3,11.3,0,0,0-3.718,3.454,13.622,13.622,0,0,0-2.039,4.623,8.177,8.177,0,0,0-.4,2.192s-.268-1.026.721-3.97A11.943,11.943,0,0,1,57.4,74.883c2.833-1.51-.192.553-.192.553Z" transform="translate(-6.433 -18.349)" fill="#605f5f" fill-rule="evenodd"/>
    <path id="Path_171" data-name="Path 171" d="M60.972,80.719,60.388,79s-2.472,2.039-3.606,7.4,3.389,13.43,5.693,15.257,8.886,3.634,11.442,2.857,2.921-1.643,2.921-1.643l-5.529-1.082s-8.177-4.431-8.814-5.208-2.472-13.1-2.4-13.1.865-2.76.865-2.76" transform="translate(-9.84 -21.148)" fill="#605f5f" fill-rule="evenodd"/>
    <path id="Path_172" data-name="Path 172" d="M72.628,102.566l.084.236s-2.508,1.374-7.284.12a14.183,14.183,0,0,1-9.92-8.69c-1.731-4.363-1.819-6.919-1.262-9.668a12.6,12.6,0,0,1,3.205-6.226l-.1-.088a9.186,9.186,0,0,0-2.2,3.069,12.5,12.5,0,0,0-.905,2.284,2.1,2.1,0,0,1,.048-.673,4.892,4.892,0,0,1,.353-1.13,7.48,7.48,0,0,0-.565,1.166,11.247,11.247,0,0,0-.433,1.226s-.076-.128.128-.925a6.35,6.35,0,0,1,.421-1.2,5.838,5.838,0,0,0-.637,1.318,8.814,8.814,0,0,0-.365,1.174A5.256,5.256,0,0,1,53.6,83a9.72,9.72,0,0,1,1.947-3.253,12.123,12.123,0,0,1,1.907-1.839l.044-.156a12.821,12.821,0,0,0-3.978,4.908,17,17,0,0,0-1.2,3.954,15.245,15.245,0,0,0,0,4.768,16.6,16.6,0,0,1,.032-5.557,13.3,13.3,0,0,1,2.3-5.441,10.717,10.717,0,0,0-1.939,3.205,14.563,14.563,0,0,0-.929,6.322,16.19,16.19,0,0,0,2.8,8.121,15.073,15.073,0,0,0,11.683,6.759,11.514,11.514,0,0,0,7.672-2.115c.012-.112-1.322-.108-1.322-.108" transform="translate(-6.924 -20.399)" fill="#0f0b08" fill-rule="evenodd"/>
    <path id="Path_173" data-name="Path 173" d="M61.192,83.252a16.478,16.478,0,0,0-1.49,4.98,16.731,16.731,0,0,0,.024,3.91,9.936,9.936,0,0,1-.192-5.353A12.694,12.694,0,0,1,61.46,82.21s-1.2,1.042-2.055,4.179a15.958,15.958,0,0,0,2.2,12.933c3.225,5.22,10.669,7.708,15.325,6.186,1.25-.4,1.05-1.6.092-3.153a9.371,9.371,0,0,1-3.369-.557c-.645-.321-.377-.837-.1-1.258.2-.3.477-.717.737-1.166l.156-.244c-1.01-1.094-2.139-2.2-3.233-3.233-.308,1.386-.8,3.313-.861,3.494a.569.569,0,0,1-.757.337c-.4-.16-1.867-1.2-3.63-3.77a15.238,15.238,0,0,1-2.52-6.743c-.012-1.018.373-.994.589-.937a1.766,1.766,0,0,1,.325.136L62.069,84.45l-.893.769a12.821,12.821,0,0,0-.132,2.288l.048,1.146a3.558,3.558,0,0,1-.529-2.163,6.783,6.783,0,0,1,.685-2.708Z" transform="translate(-11.201 -23.072)" fill="#0f0b08" fill-rule="evenodd"/>
    <path id="Path_174" data-name="Path 174" d="M76.31,94.155a14.046,14.046,0,0,1-.665,1.378,12.372,12.372,0,0,1-13.4,6.218,15.049,15.049,0,0,1-3.333-1.046A17.352,17.352,0,0,1,51.3,93.934a17.628,17.628,0,0,1-2.664-10.076A14.675,14.675,0,0,1,50.4,77.484a12.588,12.588,0,0,1,4.123-4.471,12.42,12.42,0,0,1,8.141-1.919c-.108.06-.216.12-.321.184-7.212-.573-13.093,4.808-13.474,12.584-.4,8.3,5.609,16.21,13.422,17.668A12.187,12.187,0,0,0,76,94.319q.168-.088.313-.18m1.07-7.023a16.279,16.279,0,0,1-.325,4.651l-.184-.164a15.845,15.845,0,0,0,.321-2.472,16.56,16.56,0,0,0-.052-2.32Zm-4.006-9.964a18.229,18.229,0,0,1,2.316,3.67l-.18.116a18.305,18.305,0,0,0-2.364-3.73ZM65.6,71.715a16.057,16.057,0,0,1,1.55.593,16.427,16.427,0,0,1,1.518.777l.048.28a15.052,15.052,0,0,0-3.145-1.43Z" transform="translate(-5.057 -16.363)" fill="#0f0b08" fill-rule="evenodd"/>
    <path id="Path_175" data-name="Path 175" d="M74.444,66.54s.7-5.649.825-6.675c.068-.569-.333-.825-.853-.705A10.1,10.1,0,0,0,67.605,65.4a6.166,6.166,0,0,0-.341,1.182,1.018,1.018,0,0,0,.749.95c.477.14,2.736.669,4.006,1.058s1.406.4,1.671.3.481-.4.573-1.006.176-1.334.176-1.334m-6.386,4.187s5.633,3.325,6.33,3.966.693,1.262.453,2.464-.95,4.183-1.054,4.407a.569.569,0,0,1-.757.337c-.4-.16-1.867-1.2-3.63-3.77a15.238,15.238,0,0,1-2.52-6.743c-.012-1.018.373-.994.589-.938A2.7,2.7,0,0,1,68.054,70.738Zm9.68,10.817s1.55-2.472,2.1-3.341.661-1.126,1.2-1.094a9.437,9.437,0,0,1,3.413,1.871c1.571,1.166,2.488,1.859,2.64,2.292s-.076.8-.493,1.246a9.768,9.768,0,0,1-4.7,1.927,10.436,10.436,0,0,1-4.808-.477c-.661-.341-.377-.837-.1-1.258C77.189,82.433,77.473,82.012,77.733,81.556Zm6.454-8.814s1.41,1.559,2.364,2.752,1.851,2.4,2.1,2.712.425.6.713.693.561-.461.8-1.166a15.156,15.156,0,0,0,.689-5.449,12.4,12.4,0,0,0-1.106-4.443.773.773,0,0,0-.577-.361,1.066,1.066,0,0,0-.529.176c-.256.128-3.766,2.316-4.211,2.6a1.807,1.807,0,0,0-.909.978c-.1.445.016.741.669,1.538ZM80.145,59.12A13.646,13.646,0,0,1,87.7,64.168c.2.3.252.673-.156.825-.321.124-2.4.5-3.574.8s-3.678.9-3.93.942a.934.934,0,0,1-1.09-.509,11.166,11.166,0,0,1-.4-2.4c-.108-.893-.553-3.265-.665-3.8s-.044-1.2.4-1.242a9.676,9.676,0,0,1,1.863.385Zm1.571-6.33c9.179,1.711,16.426,10.9,16.146,20.529S89.949,89.368,80.77,87.658s-16.4-10.91-16.15-20.525S72.537,51.083,81.716,52.79Z" transform="translate(-14.642 -5.274)" fill="#b5b5b5" fill-rule="evenodd"/>
    <path id="Path_176" data-name="Path 176" d="M67.966,66.676a14.556,14.556,0,0,1,1.506-2.716,9.776,9.776,0,0,1,2.36-2.079,10.689,10.689,0,0,0-1.823,2.051,13.654,13.654,0,0,0-1.5,2.54s.357-.625.853-1.338a8.221,8.221,0,0,1,.845-1.038,15.112,15.112,0,0,0-2.055,4.287,22.212,22.212,0,0,0-.649,3.409l-.028.308a8.866,8.866,0,0,1,.148-1.939,23.77,23.77,0,0,1,.7-3.025,10.132,10.132,0,0,0-.681,1.4,12.648,12.648,0,0,0-.637,2.2,11.278,11.278,0,0,1,.962-4.063" transform="translate(-16.072 -10.887)" fill="#fff" fill-rule="evenodd"/>
    <path id="Path_177" data-name="Path 177" d="M66.846,65.578l.713-.8s-.369.621-.661,1.2-.425.873-.425.873.765-1.23,1.438-2.188a7.825,7.825,0,0,1,1.166-1.374,34.3,34.3,0,0,0-2,3.109,15.625,15.625,0,0,0-1.2,2.977,21.659,21.659,0,0,0-.633,5.156l.184,1.823s2.7,7.452,4.339,9.976.673,1.042.577,1.126.284.489.986,1.2,1.526,1.418,1.526,1.418l1.226.557s5.4,3.482,11.218,3.021a12.019,12.019,0,0,0,8.766-4.6,13.946,13.946,0,0,0,2.652-6.166c.5-3.321.5-3.794.5-3.794a21.97,21.97,0,0,1-.06,2.977,11.438,11.438,0,0,1-.661,3,21.31,21.31,0,0,0,.994-3.694c.26-1.747.264-2.079.264-2.079a16.17,16.17,0,0,1-.4,4.315A14.078,14.078,0,0,1,91.9,91.832a13.8,13.8,0,0,1-8.77,2.544A18.337,18.337,0,0,1,72.21,89.921a22.692,22.692,0,0,1-6.294-8.926A21.763,21.763,0,0,1,64.59,74.7a20.509,20.509,0,0,1,2.256-9.127" transform="translate(-14.628 -11.732)" fill="#fff" fill-rule="evenodd"/>
    <path id="Path_178" data-name="Path 178" d="M80.68,84.833s1.55-2.472,2.1-3.341.661-1.126,1.2-1.094A9.437,9.437,0,0,1,87.4,82.269c1.571,1.166,2.488,1.859,2.64,2.292s-.076.8-.493,1.246a9.768,9.768,0,0,1-4.7,1.927,10.436,10.436,0,0,1-4.808-.477c-.661-.341-.377-.837-.1-1.258.2-.3.477-.717.737-1.166m6.454-8.814s1.41,1.559,2.364,2.752,1.851,2.4,2.1,2.712.425.6.713.693.561-.461.8-1.166a15.156,15.156,0,0,0,.689-5.449,12.4,12.4,0,0,0-1.106-4.443.773.773,0,0,0-.577-.361,1.066,1.066,0,0,0-.529.176c-.256.128-3.766,2.316-4.211,2.6a1.807,1.807,0,0,0-.909.978c-.1.445.02.741.673,1.538Zm-.986-17.484s6.811,2.512,10.108,8.654,2.612,12.252,1.915,14.219-3.742,7.284-8.758,8.013-11.767-1.134-13.6-3.978a5.552,5.552,0,0,1-.312-.557,2.62,2.62,0,0,0,.5.308.569.569,0,0,0,.757-.337c.1-.228.8-3.205,1.054-4.407s.256-1.827-.453-2.464c-.545-.493-3.982-2.556-5.557-3.494-.437-1.43-.833-2.768-1.15-3.85a1.118,1.118,0,0,0,.325.16c.477.14,2.736.669,4.006,1.058s1.406.4,1.671.3.481-.4.573-1.006.176-1.334.176-1.334.7-5.649.825-6.675c.068-.569-.333-.825-.853-.705a10.1,10.1,0,0,0-6.811,6.242s-.156.4-.256.769c-.252-.873-.4-1.4-.4-1.4A12.941,12.941,0,0,1,70.92,64.7a7.264,7.264,0,0,0-.942,1.546l-.449.954a10.464,10.464,0,0,1,.99-3.1c.881-1.871,3.8-5.649,8.414-5.934S83.444,57.865,86.145,58.534ZM83.1,62.441a13.646,13.646,0,0,1,7.552,5.048c.2.3.252.673-.156.825-.321.124-2.4.5-3.574.8s-3.678.9-3.93.942a.933.933,0,0,1-1.09-.509,11.166,11.166,0,0,1-.4-2.4c-.108-.893-.553-3.265-.665-3.8s-.044-1.2.4-1.242a9.676,9.676,0,0,1,1.851.341Z" transform="translate(-17.588 -8.551)" fill="#b5b5b5" fill-rule="evenodd"/>
    <path id="Path_179" data-name="Path 179" d="M107.273,61.24a17.6,17.6,0,0,1,5.072,2.732,17.32,17.32,0,0,1,4.543,5.473c.441.909.633,1.438.633,1.438a21.233,21.233,0,0,0-1.823-3.009,25.565,25.565,0,0,0-2.4-2.8,25.413,25.413,0,0,1,2.3,2.957,14.676,14.676,0,0,1,1.518,2.937,30.293,30.293,0,0,0-6.01-6.679,16.8,16.8,0,0,0-5.649-2.913,13.317,13.317,0,0,1,3.426,1.062,22.436,22.436,0,0,1,2.46,1.3,19.055,19.055,0,0,0-4.063-2.492" transform="translate(-39.117 -10.503)" fill="#fff" fill-rule="evenodd"/>
    <path id="Path_180" data-name="Path 180" d="M97.878,59.86l-.088-.4a18.718,18.718,0,0,0-9.167-5.453,13.724,13.724,0,0,0-10.865,1.6,16.254,16.254,0,0,0-2.608,2.232s.308-.248,1.2-.909a5.609,5.609,0,0,1,1.643-.869,8.062,8.062,0,0,0-.934.881l-.4.465a13.79,13.79,0,0,1,3.025-1.823c1.955-.9,6.238-1.014,7.881-.709S98.608,61.1,98.608,61.1Z" transform="translate(-20.957 -5.902)" fill="#605f5f" fill-rule="evenodd"/>
    <path id="Path_181" data-name="Path 181" d="M68.213,68.42s-1.8,2-2.52,7.143,1.851,10.577,3.1,12.348a20.2,20.2,0,0,0,3.113,3.806,5.289,5.289,0,0,1-.481-1.006c-.276-.705.268-.112.268-.112a2.083,2.083,0,0,0-.517-1.05,15.841,15.841,0,0,1-3.438-5.825c-1.526-4.808-1.559-6.975-1.122-9.479a12.221,12.221,0,0,1,.825-3.205,16.426,16.426,0,0,0-1.306,4.68,14.4,14.4,0,0,0-.176,2.348,18.963,18.963,0,0,1,2.248-9.647" transform="translate(-15.213 -14.807)" fill="#605f5f" fill-rule="evenodd"/>
    <path id="Path_182" data-name="Path 182" d="M80.6,107.062a18.874,18.874,0,0,0,8.245,4.327,16.186,16.186,0,0,0,6.811-.032,13.754,13.754,0,0,0,5.885-3.277,17.692,17.692,0,0,1-3.229,1.971,11.658,11.658,0,0,1-2.977,1,20.032,20.032,0,0,0,3.8-1.851,14.1,14.1,0,0,0,4.491-4.451,13.141,13.141,0,0,0,1.438-3.349,9.744,9.744,0,0,1-1.1,3.1,17.58,17.58,0,0,1-2,2.953,10.184,10.184,0,0,0,2.56-3.666,18.5,18.5,0,0,0,1.122-9.347c-.521-2.576-1.538-1.234-1.4-1.266s-.136,6.078-.212,7.256a14.024,14.024,0,0,1-1.971,4.784,14.622,14.622,0,0,1-4.78,4.363,14.406,14.406,0,0,1-4.155.8,17.537,17.537,0,0,1-3.281.032c-.6-.124-7.921-3.361-8.229-3.566s-2.716-2.536-2.716-2.536,1.5,1.815,2.147,2.476.9.777.877.889-.561-.1-1.29-.633" transform="translate(-23.204 -29.454)" fill="#605f5f" fill-rule="evenodd"/>
    <path id="Path_183" data-name="Path 183" d="M81.182,83.527a18.614,18.614,0,0,0,7.34,4.283,12.727,12.727,0,0,0,9.98-.773,13.816,13.816,0,0,0,5.749-5.581,15.761,15.761,0,0,0,1.382-9.379.357.357,0,0,1,.236-.333c.244-.092.4.7.533,1.631a8.689,8.689,0,0,1,.076,1.41,19.888,19.888,0,0,0-.757-5.609,21.481,21.481,0,0,0-5.885-9.511A19.709,19.709,0,0,0,93.065,55.6a25.24,25.24,0,0,1,5.008,3.045,18.891,18.891,0,0,1,2.877,2.728,24.149,24.149,0,0,0-6.683-4.716,14.251,14.251,0,0,0-6.1-1.326c-2.292.052-5.685.773-7.548,2.508s1.3-1.258,5.365-1.695a17.013,17.013,0,0,1,9.98,2.4c1.967,1.2,6.01,5.461,7.833,10.3a18.514,18.514,0,0,1,.821,9.467s-.917,2.548-1.39,3.438.276-.8.26-1.106-.461.673-1.35,2a14.022,14.022,0,0,1-2,2.36,9.835,9.835,0,0,0,1.326-1.234,12.12,12.12,0,0,0,.881-1.154s-.849,1.418-1.262,1.951a11.759,11.759,0,0,1-3.113,2.364,14.684,14.684,0,0,1-2.256.869,7.973,7.973,0,0,0,2.516-1.342c1.575-1.13,1.583-1.158,1.583-1.158A18.761,18.761,0,0,1,95,87.665a18,18,0,0,1-5.729-.06Z" transform="translate(-23.908 -6.961)" fill="#fff" fill-rule="evenodd"/>
    <path id="Path_184" data-name="Path 184" d="M76.517,71.455s.7-5.649.825-6.675c.068-.569-.333-.825-.853-.705a10.111,10.111,0,0,0-6.811,6.242,6.167,6.167,0,0,0-.341,1.182,1.018,1.018,0,0,0,.749.95c.477.14,2.736.669,4.006,1.058s1.406.4,1.671.3.481-.4.573-1.006.176-1.334.176-1.334m-6.386,4.187s5.633,3.325,6.33,3.966.693,1.262.457,2.464-.954,4.183-1.058,4.407a.569.569,0,0,1-.757.337c-.4-.16-1.867-1.2-3.63-3.77a15.238,15.238,0,0,1-2.52-6.743c-.012-1.018.373-.994.589-.937A2.7,2.7,0,0,1,70.127,75.654Zm9.68,10.817s1.55-2.472,2.1-3.341.661-1.126,1.2-1.094a9.437,9.437,0,0,1,3.413,1.871c1.571,1.166,2.488,1.859,2.64,2.292s-.076.8-.493,1.246a9.768,9.768,0,0,1-4.7,1.927,10.436,10.436,0,0,1-4.808-.477c-.661-.341-.377-.837-.1-1.258C79.262,87.348,79.546,86.928,79.807,86.471Zm6.454-8.814s1.41,1.559,2.364,2.752,1.851,2.4,2.1,2.712.425.6.713.693.561-.461.8-1.166a15.156,15.156,0,0,0,.689-5.449,12.4,12.4,0,0,0-1.106-4.443.773.773,0,0,0-.577-.361,1.066,1.066,0,0,0-.529.176c-.256.128-3.766,2.316-4.211,2.6a1.807,1.807,0,0,0-.909.978c-.1.445.016.741.669,1.538ZM82.219,64.035a13.646,13.646,0,0,1,7.552,5.048c.2.3.252.673-.156.825-.321.124-2.4.5-3.574.8s-3.678.9-3.93.942a.934.934,0,0,1-1.09-.509,11.166,11.166,0,0,1-.4-2.4c-.108-.893-.553-3.265-.665-3.8s-.044-1.2.4-1.242a9.676,9.676,0,0,1,1.863.385Zm.437-3.1a14.94,14.94,0,0,1,2.312.629A18.061,18.061,0,0,1,96.5,78.418a12.817,12.817,0,0,1-5.14,10.417,12.172,12.172,0,0,1-9.435,1.943,15.275,15.275,0,0,1-2.312-.629A18.07,18.07,0,0,1,68.076,73.294,12.832,12.832,0,0,1,73.22,62.877a12.172,12.172,0,0,1,9.435-1.9Z" transform="translate(-16.715 -10.189)" fill="#b5b5b5" fill-rule="evenodd"/>
    <path id="Path_185" data-name="Path 185" d="M81.3,61.984a10.212,10.212,0,0,0-2.432,1.971,12.965,12.965,0,0,1,8.866-1.282c5.056,1.066,9.68,5.164,11.166,9.379s1.466,4.075,1.466,4.075-.309-4.407-2.52-7.3a20.862,20.862,0,0,0-4.6-4.491,17.985,17.985,0,0,1,6.671,7.636c1.951,4.808,1.767,6.166,1.767,6.166s.064-10.016-6.787-14.375a35.18,35.18,0,0,0-4.431-2.436c-.441-.128-.885-.232-1.338-.317a12.452,12.452,0,0,0-7.825.978" transform="translate(-23.186 -10.218)" fill="#605f5f" fill-rule="evenodd"/>
    <path id="Path_186" data-name="Path 186" d="M87.17,126.659a10.362,10.362,0,0,0,6.635,2.3,12.717,12.717,0,0,0,7.7-2.664,9.147,9.147,0,0,1-5,2.628,11.546,11.546,0,0,0,2.921-.661,6.919,6.919,0,0,0,2.628-1.791,9.613,9.613,0,0,1-5.409,3.061c-3.141.389-8.073-1.174-9.475-2.869" transform="translate(-28.161 -49.492)" fill="#232326" fill-rule="evenodd"/>
    <path id="Path_187" data-name="Path 187" d="M126.6,98.79a16.219,16.219,0,0,1-.545,5.1,15.016,15.016,0,0,1-2.4,4.5c-.373.437-1.715,1.655-1.715,1.655a9.106,9.106,0,0,0,3.462-3.073c1.819-2.436,2.079-6.326,2.087-7.764a12.957,12.957,0,0,0-.457-3.053,35.257,35.257,0,0,1,.076,3.914,17.557,17.557,0,0,1-.329,2.464,14.776,14.776,0,0,0-.188-3.738" transform="translate(-49.001 -31.427)" fill="#e0e1e0" fill-rule="evenodd"/>
    <path id="Path_188" data-name="Path 188" d="M110.689,105.584a2.1,2.1,0,0,1,.641-1.534s2.624,3.085,3.57,4.295.958,1.554.958,1.554a17.8,17.8,0,0,0-2.548-2.564c-.665-.329-1.314.889-1.35,1.1s.509.974.509.974l-2.468-2.2Z" transform="translate(-41.844 -36.162)" fill="#b2b2b2" fill-rule="evenodd"/>
    <path id="Path_189" data-name="Path 189" d="M70.627,87.228a12.473,12.473,0,0,0-.3,1.4,11.026,11.026,0,0,0-.108,2.364s.136-.329,1.034-.036A21.6,21.6,0,0,1,73.7,92.064L77.558,94.5s-1.635-1.2-1.763-1.695a5.806,5.806,0,0,1,.3-2.18,1.222,1.222,0,0,1,.8-.433c.124,0-5.353-1.5-5.609-1.6-.1-.036-.12-.18-.116-.345a.994.994,0,0,1-.569-.865.758.758,0,0,1,0-.156" transform="translate(-17.988 -26.075)" fill="#b5b5b5" fill-rule="evenodd"/>
    <path id="Path_190" data-name="Path 190" d="M91.517,69.937h.072c.461-.044,1.342.136,1.486-.156s.088-.529.288-.741a1.935,1.935,0,0,0-.024.717c.076.689.589,3.381.8,4.5a.4.4,0,0,0-.164-.14,7.768,7.768,0,0,0-2.576.517,4.19,4.19,0,0,0-.4.4c.24-1.542.469-4.251.541-5.132" transform="translate(-30.457 -15.178)" fill="#fff" fill-rule="evenodd"/>
    <path id="Path_191" data-name="Path 191" d="M95.013,109.981c-.232-.116-1.366-.641-1.366-.641a.545.545,0,0,0,.04.7.8.8,0,0,0,.913.292c.112-.06.252-.152.252-.152H94.5l.4.184a1.15,1.15,0,0,0,.561.357c.264.02.232-.26.172-.341a4.544,4.544,0,0,0-.633-.4" transform="translate(-31.978 -39.332)" fill="#232326" fill-rule="evenodd"/>
    <path id="Path_192" data-name="Path 192" d="M87.763,99.143a1.935,1.935,0,0,1-.24-.573.489.489,0,0,1-.3.116c-.168,0-.208.95.184,1.11s.473.1.593.236-.232-.889-.232-.889" transform="translate(-28.117 -32.877)" fill="#232326" fill-rule="evenodd"/>
    <path id="Path_193" data-name="Path 193" d="M96.35,93.207a29.427,29.427,0,0,1,.569,3.205,8.262,8.262,0,0,1-1.559,2.845,6.713,6.713,0,0,1-3.013,0c-1.07-.4-2.953-2.516-2.881-4.006a6.514,6.514,0,0,1,.709-2.652s2-1.226,3.409-.873a9.09,9.09,0,0,1,2.732,1.37Z" transform="translate(-29.537 -28.736)" fill="#959696" fill-rule="evenodd"/>
    <path id="Path_194" data-name="Path 194" d="M96.4,93.178l-1.546.853,1.078,1.13.056-.4a8.845,8.845,0,0,0,1.53-.529c-.048-.088.7,2.756.7,2.756l-1.943.8-1.6,1.118s.1.361,1.7-.4a3.682,3.682,0,0,0,2.043-2.616c.136-.469-2.652-3.762-2.652-3.762a19.227,19.227,0,0,0-2.8-.256,6.415,6.415,0,0,0-1.542,1.2l1.434-.493a9.126,9.126,0,0,1,2.043-.8c.473,0,1.691.2,1.735.529a2.436,2.436,0,0,1-.224.853" transform="translate(-30.708 -28.808)" fill="#232326" fill-rule="evenodd"/>
    <path id="Path_195" data-name="Path 195" d="M94.111,95.754a2.381,2.381,0,0,1,2.8,1.631,2.165,2.165,0,0,1-1.2,2.881,2.382,2.382,0,0,1-2.8-1.635,2.156,2.156,0,0,1,1.2-2.877" transform="translate(-31.508 -31.139)" fill="#b5b5b5" fill-rule="evenodd"/>
    <path id="Path_196" data-name="Path 196" d="M94.906,95.664a1.964,1.964,0,0,0-1.567.573,2.492,2.492,0,0,0-.529,1.162,1.494,1.494,0,0,0,.1.765,3.546,3.546,0,0,1,.12-1.058,1.775,1.775,0,0,1,.489-.749c.164-.168.325-.3.325-.3a2.28,2.28,0,0,0-.493.545,2.621,2.621,0,0,0-.16.4,2.2,2.2,0,0,1,.986-.889,2.047,2.047,0,0,1,.913-.132.994.994,0,0,0-.589-.112,2.444,2.444,0,0,0-.617.168,2.071,2.071,0,0,1,1.022-.373" transform="translate(-31.534 -31.133)" fill="#e0e1e0" fill-rule="evenodd"/>
    <path id="Path_197" data-name="Path 197" d="M101.294,100.945a2.035,2.035,0,0,0-.148-.445,3.966,3.966,0,0,1,.04.757l-.028.349a2.18,2.18,0,0,0-.084-.653,2.5,2.5,0,0,1-.313,1.054,1.743,1.743,0,0,1-.982.8.9.9,0,0,0,.665-.236,1.478,1.478,0,0,0,.485-.6,2.628,2.628,0,0,1-.449.749,1.567,1.567,0,0,1-.561.4,2.188,2.188,0,0,0,1.038-.761,2.728,2.728,0,0,0,.337-1.438" transform="translate(-35.719 -34.034)" fill="#e0e1e0" fill-rule="evenodd"/>
    <path id="Path_198" data-name="Path 198" d="M94.488,96.189a1.6,1.6,0,0,0-.661.4,2.071,2.071,0,0,0-.4,2.18,2.24,2.24,0,0,0,1.959,1.542,1.723,1.723,0,0,0,.553-.076,1.6,1.6,0,0,0,.657-.4,2.079,2.079,0,0,0,.4-2.184,2.248,2.248,0,0,0-1.959-1.542,1.683,1.683,0,0,0-.549.076m-.04-.052a2.18,2.18,0,0,1,2.58,1.5,1.977,1.977,0,0,1-1.106,2.644,2.18,2.18,0,0,1-2.576-1.5,1.975,1.975,0,0,1,1.1-2.64Z" transform="translate(-31.777 -31.369)" fill="#232326" fill-rule="evenodd"/>
    <path id="Path_199" data-name="Path 199" d="M94.04,95.7a1.759,1.759,0,0,0-.709.425,2.26,2.26,0,0,0-.445,2.38,2.452,2.452,0,0,0,2.131,1.679,1.863,1.863,0,0,0,.593-.084,1.687,1.687,0,0,0,.713-.425,2.264,2.264,0,0,0,.425-2.372,2.436,2.436,0,0,0-2.131-1.675,1.755,1.755,0,0,0-.593.08m-.06-.12a2.441,2.441,0,0,1,2.877,1.671,2.2,2.2,0,0,1-1.23,2.953,2.446,2.446,0,0,1-2.877-1.675A2.19,2.19,0,0,1,93.98,95.6Z" transform="translate(-31.397 -31.037)" fill="#232326" fill-rule="evenodd"/>
    <path id="Path_200" data-name="Path 200" d="M92.9,89.288a3.365,3.365,0,0,1,2.44.942,5.749,5.749,0,0,1,1.8,2.7,6.5,6.5,0,0,1,.152,2.468,3.646,3.646,0,0,1-1.466,2.348c-.557.341-2.308.966-3.47.264s-.982-.308-2.119-1.663a5.971,5.971,0,0,1-1-3.978,4.963,4.963,0,0,1,1.074-2.147c.272-.1,0,1.142,0,1.142a4.689,4.689,0,0,0-.645,1.5,7.007,7.007,0,0,0,.028,1.819,4.367,4.367,0,0,0,1.563,2.38,2.811,2.811,0,0,0,2.833.621,3.342,3.342,0,0,0,1.162-.729,2.686,2.686,0,0,0,.861-2.1,10.469,10.469,0,0,0-.361-2.889s-2.043-1.49-3.329-1.486.477-1.182.477-1.182" transform="translate(-29.391 -27.313)" fill="#616262" fill-rule="evenodd"/>
    <path id="Path_201" data-name="Path 201" d="M102.92,93.249l-.749-.441c.044.032-.8-.741-.8-.741s.517.24.649.308.473-.236.613-.365-.116-.533-.469-.8a4.355,4.355,0,0,1,1.2.99,6.569,6.569,0,0,1,.99,1.779,6.343,6.343,0,0,1,.212,1.711c-.056,0-.12-.5-.188-.485a2.925,2.925,0,0,0-.757.721c-.12.224-.232.4-.232.4a16.024,16.024,0,0,0-.26-2.119,7.562,7.562,0,0,1-.24-.95" transform="translate(-36.672 -28.466)" fill="#232326" fill-rule="evenodd"/>
    <path id="Path_202" data-name="Path 202" d="M99.584,89.466a4.912,4.912,0,0,1,2.584,1.6c1.094,1.306.156.032.156.032a8.071,8.071,0,0,0-1.747-1.49,7.111,7.111,0,0,0-1.138-.4,2.163,2.163,0,0,1,.144.26" transform="translate(-35.515 -27.267)" fill="#b5b5b5" fill-rule="evenodd"/>
    <path id="Path_203" data-name="Path 203" d="M90.719,90.587s-.449.693-.577.865.16-.24.341-.1.12.581.12.581a7.478,7.478,0,0,1,1.242-1.014c.224-.036.353-1.166.353-1.166a3.133,3.133,0,0,0-1.478.837" transform="translate(-29.923 -27.591)" fill="#232326" fill-rule="evenodd"/>
    <path id="Path_204" data-name="Path 204" d="M93.108,92.3a2.656,2.656,0,0,0-1.8.4,3.081,3.081,0,0,0-1.278,2.736,4.379,4.379,0,0,0,.9,2.476,3.862,3.862,0,0,0,2.059,1.418,2.769,2.769,0,0,0,.4.076,2.62,2.62,0,0,0,1.795-.4,3.081,3.081,0,0,0,1.278-2.736,4.323,4.323,0,0,0-.889-2.476A3.854,3.854,0,0,0,93.52,92.38a3.443,3.443,0,0,0-.4-.08m.08-.144a4.3,4.3,0,0,1,3.506,4.123,2.963,2.963,0,0,1-3.253,3.305,4.306,4.306,0,0,1-3.506-4.127,2.947,2.947,0,0,1,3.225-3.3Z" transform="translate(-29.824 -29.019)" fill="#232326" fill-rule="evenodd"/>
    <path id="Path_205" data-name="Path 205" d="M92.88,89.148a3.293,3.293,0,0,0-2.24.5,3.838,3.838,0,0,0-1.6,3.409,5.4,5.4,0,0,0,1.122,3.085,4.808,4.808,0,0,0,2.56,1.763,3.732,3.732,0,0,0,.5.1,3.293,3.293,0,0,0,2.24-.5,3.842,3.842,0,0,0,1.6-3.409,5.429,5.429,0,0,0-1.126-3.085,4.808,4.808,0,0,0-2.56-1.763,3.51,3.51,0,0,0-.5-.1m.072-.188A5.347,5.347,0,0,1,97.3,94.08c.088,2.544-1.723,4.407-4.042,4.1a5.36,5.36,0,0,1-4.351-5.12C88.822,90.518,90.629,88.687,92.948,88.96Z" transform="translate(-29.2 -27.101)" fill="#232326" fill-rule="evenodd"/>
    <path id="Path_206" data-name="Path 206" d="M106.027,100.56a6.378,6.378,0,0,0,1.03,1.4c.773.841,2.027,2.472,2.027,2.472a8.066,8.066,0,0,0-1.342-1.138c-.188.008-.661,1.042-1.006,1.559s-.24.841-.028,1.026,1.05.921,1.426,1.31l.377.4a22.4,22.4,0,0,0-2.78-2c-.954-.481-1.322-.465-1.9-.2a2.624,2.624,0,0,0-.966.893,2.653,2.653,0,0,1,1.046-1.17,3.123,3.123,0,0,0,1.6-1.923,5.829,5.829,0,0,0,.216-2.36,6.07,6.07,0,0,0,.825,1.126,1.338,1.338,0,0,0,.4.176,4.639,4.639,0,0,1-.917-1.554" transform="translate(-37.571 -34.07)" fill="#fff" fill-rule="evenodd"/>
    <path id="Path_207" data-name="Path 207" d="M97.658,72.194a14.106,14.106,0,0,0-.345-2.288c-.333-1.631-.313-1.659-.12-2.143s.825-.493,1.779-.276a17.448,17.448,0,0,1,2.74.769,14.6,14.6,0,0,1,4.327,2.961c1.691,1.767,1.242,1.506,1.242,1.506a1.286,1.286,0,0,1,.349.925c-.076.481-1.29.717-1.29.717s.869-.264,1.034-.633-.056-.721-.325-1.078A13.474,13.474,0,0,0,104,69.791a14.752,14.752,0,0,0-5.4-2.179c-1.2-.164-1.306.349-1.318.8a21.011,21.011,0,0,1,.377,3.754" transform="translate(-34.085 -14.166)" fill="#e0e1e0" fill-rule="evenodd"/>
    <path id="Path_208" data-name="Path 208" d="M84,64.647a13.747,13.747,0,0,1,2.139.585c6.31,2.312,10.765,9.107,10.605,16a12.56,12.56,0,0,1-4.808,9.952,10.5,10.5,0,0,1-2.284,1.286l.228-.148c.541-.341,1.27-.877,1.779-1.266l.092-.068q.252-.188.493-.4h0a12.4,12.4,0,0,0,4.219-9.371,16.9,16.9,0,0,0-8.906-15.1,13.506,13.506,0,0,0-1.542-.669,12.772,12.772,0,0,0-2.1-.589,10.869,10.869,0,0,0-8.57,1.851,11.006,11.006,0,0,0-2.845,3.117h0a9.215,9.215,0,0,1,.777-1.43A10.962,10.962,0,0,1,84,64.647" transform="translate(-19.374 -12.404)" fill="#232326" fill-rule="evenodd"/>
    <path id="Path_209" data-name="Path 209" d="M110.47,118.875s.641-.521.741-.869a.885.885,0,0,0-.3-.982c-.164-.164-1.066-.921-2-1.631-1.078-.8-2.224-1.575-2.58-1.795a2.191,2.191,0,0,0-1.731-.369,1.074,1.074,0,0,0-.493.437.958.958,0,0,1,.549-.284,3.535,3.535,0,0,1,1.767.677,39.472,39.472,0,0,1,4.1,3.009c.4.4.485.673.4.95a4.238,4.238,0,0,1-.453.857" transform="translate(-38.308 -41.623)" fill="#605f5f" fill-rule="evenodd"/>
    <path id="Path_210" data-name="Path 210" d="M70.368,74A12.482,12.482,0,0,1,72.9,69.662c1.679-1.679,2.119-1.795,2.119-1.795l-1.35,1.2a5.894,5.894,0,0,0-.717.717,12.684,12.684,0,0,1,4.507-2.9,11.793,11.793,0,0,1,9.095,1.022,16.056,16.056,0,0,1,5.889,5.581,13.73,13.73,0,0,1,2.123,5.373,17.964,17.964,0,0,1,.248,3.446,10.917,10.917,0,0,1-1.907,5.986c-.212.325-.4.581-.525.737A10.417,10.417,0,0,1,89.2,91.705a11.559,11.559,0,0,1-8.277.9,12.385,12.385,0,0,0,7.612-.3,10.449,10.449,0,0,0,3.878-2.8c2.628-3.073,3.1-6.1,2.676-9.908a16.358,16.358,0,0,0-9.211-12.336,13.7,13.7,0,0,0-7.3-.994,8.393,8.393,0,0,0-3.562,1.35,13.807,13.807,0,0,1,3.205-1.679,11.334,11.334,0,0,0-3.686,1.943,12.168,12.168,0,0,0-3.205,3.558A11.37,11.37,0,0,0,70.36,74" transform="translate(-18.086 -13.32)" fill="#000002" fill-rule="evenodd"/>
    <path id="Path_211" data-name="Path 211" d="M82.275,61.44c7.568,1.41,13.582,9.022,13.426,16.975S89.29,91.7,81.73,90.286,68.152,81.28,68.3,73.311,74.71,60.034,82.275,61.44m.4-.445a14.94,14.94,0,0,1,2.312.629A18.061,18.061,0,0,1,96.517,78.479,12.817,12.817,0,0,1,91.377,88.9a12.172,12.172,0,0,1-9.435,1.943,15.277,15.277,0,0,1-2.312-.629A18.07,18.07,0,0,1,68.1,73.355,12.832,12.832,0,0,1,73.24,62.938,12.172,12.172,0,0,1,82.667,61Z" transform="translate(-16.727 -10.206)" fill="#0f0b08" fill-rule="evenodd"/>
    <path id="Path_212" data-name="Path 212" d="M104.838,93.84a1.966,1.966,0,0,1-.244.14l-.14-.052s-.8.349-.881.4a2.039,2.039,0,0,0-.232.741,1.438,1.438,0,0,0,.5.645,1,1,0,0,0,.425.132,6.374,6.374,0,0,0,.609-.377,2.492,2.492,0,0,0,.321-.268v-.116a2.2,2.2,0,0,1,.252-.16Z" transform="translate(-37.853 -30.042)" fill="#00213f" fill-rule="evenodd"/>
    <path id="Path_213" data-name="Path 213" d="M103.8,94.77a.8.8,0,0,0-.188.292,2.8,2.8,0,0,0-.076.6c0,.024.469.469.469.469a.164.164,0,0,0,.14.028c.08-.024.609-.317.617-.317a1.029,1.029,0,0,1,.028.184s-.477.4-.7.353a1.976,1.976,0,0,1-.517-.2s-.341-.325-.345-.573a.753.753,0,0,1,.561-.837" transform="translate(-37.786 -30.6)" fill="#0060a4" fill-rule="evenodd"/>
    <path id="Path_214" data-name="Path 214" d="M105.172,98.018a.677.677,0,0,0,.308-.084c.136-.084.172-.028.172-.028l.236-.176v.112c0,.012-.333.292-.477.284a.437.437,0,0,1-.252-.108" transform="translate(-38.943 -32.374)" fill="#74c1ec" fill-rule="evenodd"/>
    <path id="Path_215" data-name="Path 215" d="M103.718,94.87a.244.244,0,0,1,.14,0,.593.593,0,0,0-.128.212,3.533,3.533,0,0,0-.076.621c0,.036.437.453.449.477s-.032.036-.032.036-.445-.461-.449-.481-.072,0-.072,0a1.326,1.326,0,0,1,0-.461c.048-.2.08-.252.1-.276a.528.528,0,0,0,.064-.148" transform="translate(-37.966 -30.648)" fill="#74c1ec" fill-rule="evenodd"/>
    <path id="Path_216" data-name="Path 216" d="M105.781,93.966a.377.377,0,0,0-.212.072.345.345,0,0,0-.064.437l.08.092a.529.529,0,0,1,0-.276.317.317,0,0,1,.152-.156.649.649,0,0,0-.064.357.765.765,0,0,0,.148.349.905.905,0,0,1-.092-.465.653.653,0,0,1,.1-.264,1.367,1.367,0,0,1,.18-.1l.02-.124Z" transform="translate(-39.119 -30.072)" fill="#0060a4" fill-rule="evenodd"/>
    <path id="Path_217" data-name="Path 217" d="M104.425,93.842l-.1.048-.208.1-.329.16h0a.721.721,0,0,0-.312.192,1.178,1.178,0,0,0-.128.657.573.573,0,0,0,.088.2,1.266,1.266,0,0,0,.224.26l.112.084a.825.825,0,0,0,.529.132,4.492,4.492,0,0,0,.8-.593.707.707,0,0,0,0-.092v-.036l.529-.26.048.1-.457.224a.649.649,0,0,1,0,.092c0,.04-.116.124-.144.152-.092.076-.184.152-.28.224a1.7,1.7,0,0,1-.461.3.913.913,0,0,1-.6-.148.974.974,0,0,1-.128-.1,1.074,1.074,0,0,1-.353-.537,1.222,1.222,0,0,1,.16-.737.8.8,0,0,1,.365-.224l.325-.16a3.288,3.288,0,0,1,.353-.156.216.216,0,0,1,.132.064l.24-.116.052.1-.317.148-.028-.028a.248.248,0,0,0-.072-.056" transform="translate(-37.796 -29.941)" fill="#0f0b08" fill-rule="evenodd"/>
    <path id="Path_218" data-name="Path 218" d="M107.45,93.192a.825.825,0,0,1,.641.8.529.529,0,0,1-.645.545.8.8,0,0,1-.637-.8.529.529,0,0,1,.641-.545" transform="translate(-39.931 -29.647)" fill="#0060a4" fill-rule="evenodd"/>
    <path id="Path_219" data-name="Path 219" d="M107.547,94.336a.3.3,0,0,1,.236.024.176.176,0,0,1,.048.268.284.284,0,0,1-.188.092.341.341,0,0,1-.1-.4" transform="translate(-40.357 -30.33)" fill="#1f75bb" fill-rule="evenodd"/>
    <path id="Path_220" data-name="Path 220" d="M107.42,93.232a.729.729,0,0,1,.573.7.473.473,0,0,1-.573.489.737.737,0,0,1-.553-.7.469.469,0,0,1,.573-.485m0-.088a.837.837,0,0,1,.657.8.545.545,0,0,1-.661.561.845.845,0,0,1-.657-.8.545.545,0,0,1,.653-.561Z" transform="translate(-39.913 -29.618)" fill="#0f0b08" fill-rule="evenodd"/>
    <path id="Path_221" data-name="Path 221" d="M107.54,93.5a.585.585,0,0,1,.461.561.377.377,0,0,1-.461.4.585.585,0,0,1-.461-.561.377.377,0,0,1,.461-.4m0-.1a.717.717,0,0,1,.561.685.457.457,0,0,1-.561.473.709.709,0,0,1-.561-.681.461.461,0,0,1,.561-.477Z" transform="translate(-40.033 -29.768)" fill="#0060a4" fill-rule="evenodd"/>
    <path id="Path_222" data-name="Path 222" d="M107.644,93.493a.617.617,0,0,1,.481.593.4.4,0,0,1-.5.4.617.617,0,0,1-.485-.589.4.4,0,0,1,.5-.421m0-.044a.429.429,0,0,0-.525.445.681.681,0,0,0,.533.653.429.429,0,0,0,.525-.445.689.689,0,0,0-.545-.637Z" transform="translate(-40.117 -29.792)" fill="#74c1ec" fill-rule="evenodd"/>
    <path id="Path_223" data-name="Path 223" d="M107.786,94.081a.429.429,0,0,1,.272.2c.064.148-.1.236-.1.236a.284.284,0,0,1,.208,0c.1.048,0,.18,0,.18a.461.461,0,0,0,.132-.425.329.329,0,0,0-.533-.192" transform="translate(-40.508 -30.139)" fill="#0f0b08" fill-rule="evenodd"/>
    <path id="Path_224" data-name="Path 224" d="M108,94.46a.136.136,0,0,1,.132.092c.028.1-.048.092-.048.092A.341.341,0,0,0,108,94.46" transform="translate(-40.646 -30.414)" fill="#74c1ec" fill-rule="evenodd"/>
    <path id="Path_225" data-name="Path 225" d="M104.709,95.34v.28l-.469.3.048-.4s.036.1.052.1a1.627,1.627,0,0,0,.309-.18.905.905,0,0,1,.076-.092" transform="translate(-38.392 -30.941)" fill="#0060a4" fill-rule="evenodd"/>
    <path id="Path_226" data-name="Path 226" d="M104.861,95.74a1.078,1.078,0,0,0,.184.357.929.929,0,0,0,.4.28.349.349,0,0,1-.345-.072.966.966,0,0,1-.264-.3l-.445.3-.052-.1.485-.312s0-.16.056-.16" transform="translate(-38.452 -31.181)" fill="#0060a4" fill-rule="evenodd"/>
    <path id="Path_227" data-name="Path 227" d="M106.431,94.554a1.122,1.122,0,0,0,.1.4,1.154,1.154,0,0,0,.333.345,1.9,1.9,0,0,1-.28.16s.076-.144.04-.2a1.15,1.15,0,0,1-.2-.321.825.825,0,0,1-.052-.2.488.488,0,0,0-.052.108.333.333,0,0,0,0,.156.433.433,0,0,1-.04-.232.264.264,0,0,1,.148-.212" transform="translate(-39.617 -30.468)" fill="#0060a4" fill-rule="evenodd"/>
    <path id="Path_228" data-name="Path 228" d="M94.933,89.18a1.856,1.856,0,0,1-.236.152,1.277,1.277,0,0,1-.14-.04l-.625.325a2.564,2.564,0,0,0-.284.825.745.745,0,0,0,0,.3,1.454,1.454,0,0,0,.4.373,1,1,0,0,0,.429.1c.048,0,.437-.3.585-.4a2.243,2.243,0,0,0,.3-.288s-.024-.1,0-.116.24-.176.24-.176Z" transform="translate(-32.034 -27.249)" fill="#00213f" fill-rule="evenodd"/>
    <path id="Path_229" data-name="Path 229" d="M93.993,90.26a.837.837,0,0,0-.168.308,3.025,3.025,0,0,0-.024.6c0,.024.5.437.5.437a.168.168,0,0,0,.144,0c.08-.028.585-.357.6-.357a1.6,1.6,0,0,1,.036.18s-.449.425-.673.4a2,2,0,0,1-.529-.168A2.109,2.109,0,0,1,93.7,91.5a.729.729,0,0,1-.052-.429,2.512,2.512,0,0,1,.276-.8h.064" transform="translate(-32.039 -27.897)" fill="#0060a4" fill-rule="evenodd"/>
    <path id="Path_230" data-name="Path 230" d="M95.276,93.4a.693.693,0,0,0,.3-.1c.132-.092.172-.04.172-.04l.224-.188v.112c0,.016-.312.309-.457.313a.433.433,0,0,1-.256-.092" transform="translate(-33.01 -29.581)" fill="#74c1ec" fill-rule="evenodd"/>
    <path id="Path_231" data-name="Path 231" d="M93.772,91.3a3.5,3.5,0,0,0,0,.5c0,.036.465.425.477.449s-.032.04-.032.04-.469-.433-.477-.453-.044,0-.064,0a.8.8,0,0,1,0-.132,2.4,2.4,0,0,1,.1-.4" transform="translate(-32.059 -28.52)" fill="#74c1ec" fill-rule="evenodd"/>
    <path id="Path_232" data-name="Path 232" d="M95.63,89.332a.4.4,0,0,0-.2.088.349.349,0,0,0-.036.437l.084.088a.545.545,0,0,1,0-.276.321.321,0,0,1,.14-.168.657.657,0,0,0-.04.361.753.753,0,0,0,.172.341.949.949,0,0,1-.148-.457.617.617,0,0,1,.088-.272,1.6,1.6,0,0,1,.172-.108V89.24Z" transform="translate(-33.051 -27.285)" fill="#0060a4" fill-rule="evenodd"/>
    <path id="Path_233" data-name="Path 233" d="M93.67,90.579v.032a1.262,1.262,0,0,0,.24.244,1,1,0,0,0,.12.076.8.8,0,0,0,.537.1,5.025,5.025,0,0,0,.745-.645v-.124l.509-.3.056.1-.445.256a.369.369,0,0,1,0,.092c0,.04-.1.132-.136.16l-.26.244a1.883,1.883,0,0,1-.445.325.889.889,0,0,1-.6-.112.957.957,0,0,1-.136-.084l-.048-.076a.8.8,0,0,1-.124-.312m.925-1.382-.1.052c-.068.036-.136.072-.2.112l-.321.18H93.93c.056-.1.1-.164.1-.164h0l.248-.14a2.557,2.557,0,0,1,.341-.18.232.232,0,0,1,.136.052l.232-.128.056.1-.3.168L94.7,89.2a.228.228,0,0,0-.1-.024Z" transform="translate(-32.057 -27.118)" fill="#0f0b08" fill-rule="evenodd"/>
    <path id="Path_234" data-name="Path 234" d="M97.254,88.451a.825.825,0,0,1,.689.741.533.533,0,0,1-.609.585.825.825,0,0,1-.689-.741.533.533,0,0,1,.609-.585" transform="translate(-33.838 -26.809)" fill="#0060a4" fill-rule="evenodd"/>
    <path id="Path_235" data-name="Path 235" d="M97.388,89.612a.3.3,0,0,1,.24,0,.176.176,0,0,1,.064.264.312.312,0,0,1-.184.1.349.349,0,0,1-.12-.4" transform="translate(-34.272 -27.489)" fill="#1f75bb" fill-rule="evenodd"/>
    <path id="Path_236" data-name="Path 236" d="M97.215,88.488a.729.729,0,0,1,.617.661.473.473,0,0,1-.541.525.737.737,0,0,1-.617-.665.469.469,0,0,1,.541-.521m0-.088a.845.845,0,0,1,.713.761.549.549,0,0,1-.625.6.837.837,0,0,1-.709-.761.545.545,0,0,1,.625-.6Z" transform="translate(-33.807 -26.778)" fill="#0f0b08" fill-rule="evenodd"/>
    <path id="Path_237" data-name="Path 237" d="M97.366,88.756a.589.589,0,0,1,.493.533.377.377,0,0,1-.433.4.593.593,0,0,1-.5-.5.4.4,0,0,1,.437-.4m0-.1a.725.725,0,0,1,.6.649.461.461,0,0,1-.533.509.713.713,0,0,1-.6-.645.461.461,0,0,1,.521-.545Z" transform="translate(-33.95 -26.93)" fill="#0060a4" fill-rule="evenodd"/>
    <path id="Path_238" data-name="Path 238" d="M97.443,88.784a.617.617,0,0,1,.521.557.4.4,0,0,1-.469.453.613.613,0,0,1-.537-.549.4.4,0,0,1,.469-.453m0-.044a.429.429,0,0,0-.493.481.681.681,0,0,0,.573.617.433.433,0,0,0,.5-.481.685.685,0,0,0-.577-.625Z" transform="translate(-34.011 -26.986)" fill="#74c1ec" fill-rule="evenodd"/>
    <path id="Path_239" data-name="Path 239" d="M97.63,89.354a.437.437,0,0,1,.284.176.2.2,0,0,1-.08.244.293.293,0,0,1,.208,0c.1.044.028.18.028.18a.457.457,0,0,0,.108-.445.329.329,0,0,0-.545-.156" transform="translate(-34.43 -27.3)" fill="#0f0b08" fill-rule="evenodd"/>
    <path id="Path_240" data-name="Path 240" d="M97.8,89.739a.128.128,0,0,1,.136.084c.036.092-.04.1-.04.1s0-.06-.1-.18" transform="translate(-34.532 -27.584)" fill="#74c1ec" fill-rule="evenodd"/>
    <path id="Path_241" data-name="Path 241" d="M94.639,90.79v.276l-.449.337.024-.4s.04.1.056.092a1.8,1.8,0,0,0,.3-.2.8.8,0,0,1,.068-.1" transform="translate(-32.368 -28.214)" fill="#0060a4" fill-rule="evenodd"/>
    <path id="Path_242" data-name="Path 242" d="M94.809,91.16a1.026,1.026,0,0,0,.2.345.913.913,0,0,0,.4.256.337.337,0,0,1-.345-.048,1.018,1.018,0,0,1-.284-.276l-.425.325-.06-.092.465-.345s0-.156.048-.164" transform="translate(-32.434 -28.436)" fill="#0060a4" fill-rule="evenodd"/>
    <path id="Path_243" data-name="Path 243" d="M96.29,89.93a1.05,1.05,0,0,0,.132.4,1.15,1.15,0,0,0,.349.321l-.268.176s.072-.148.028-.2a1.2,1.2,0,0,1-.216-.308.665.665,0,0,1-.064-.2.4.4,0,0,0-.044.112.341.341,0,0,0,0,.156.433.433,0,0,1-.056-.228.272.272,0,0,1,.136-.22" transform="translate(-33.543 -27.699)" fill="#0060a4" fill-rule="evenodd"/>
    <path id="Path_244" data-name="Path 244" d="M89.152,97.47a1.783,1.783,0,0,1-.232.144l-.136-.04s-.4.2-.657.329a.9.9,0,0,0,0,.4,4.888,4.888,0,0,0,.481,1.062.289.289,0,0,0,.036.08h.048a4.59,4.59,0,0,0,.577-.4,2.239,2.239,0,0,0,.3-.276s-.024-.1,0-.112.24-.172.24-.172Z" transform="translate(-28.721 -32.218)" fill="#00213f" fill-rule="evenodd"/>
    <path id="Path_245" data-name="Path 245" d="M88.5,99.82a.168.168,0,0,0,.132,0c.076-.028.577-.341.589-.341a1.5,1.5,0,0,1,.032.176,1.785,1.785,0,0,1-.637.4.4.4,0,0,1-.024-.064.949.949,0,0,0-.092-.172m-.284-1.33a1.2,1.2,0,0,0-.124.172,1.321,1.321,0,0,1,.028-.144Z" transform="translate(-28.712 -32.829)" fill="#0060a4" fill-rule="evenodd"/>
    <path id="Path_246" data-name="Path 246" d="M89.226,101.544a.545.545,0,0,0,.232-.088c.136-.084.172-.032.172-.032l.22-.184v.108c0,.012-.312.3-.449.3a.365.365,0,0,1-.16-.036l-.032-.068" transform="translate(-29.384 -34.478)" fill="#74c1ec" fill-rule="evenodd"/>
    <path id="Path_247" data-name="Path 247" d="M89.488,97.614a.377.377,0,0,0-.2.08.341.341,0,0,0-.04.429l.08.088a.509.509,0,0,1,0-.268.3.3,0,0,1,.136-.164.653.653,0,0,0-.044.353.753.753,0,0,0,.16.337.917.917,0,0,1-.112-.453.677.677,0,0,1,.092-.264l.168-.1v-.12Z" transform="translate(-29.369 -32.254)" fill="#0060a4" fill-rule="evenodd"/>
    <path id="Path_248" data-name="Path 248" d="M88.655,99.285a.705.705,0,0,0,.156,0,4.543,4.543,0,0,0,.741-.617.6.6,0,0,0,0-.088v-.036l.5-.28.056.1-.441.244a.353.353,0,0,1,0,.092c0,.04-.1.128-.132.152l-.26.236a1.759,1.759,0,0,1-.441.308h-.1a.248.248,0,0,1-.068-.112m.208-1.807-.1.052-.2.1-.312.176h0l-.072.024a1.349,1.349,0,0,1,.04-.136l.3-.164a2.721,2.721,0,0,1,.341-.172.2.2,0,0,1,.128.056l.232-.124.052.1-.3.16-.028-.028a.472.472,0,0,0-.1-.044Z" transform="translate(-28.772 -32.11)" fill="#0f0b08" fill-rule="evenodd"/>
    <path id="Path_249" data-name="Path 249" d="M91.091,96.778a.8.8,0,0,1,.661.733.517.517,0,0,1-.6.565.8.8,0,0,1-.665-.737.517.517,0,0,1,.6-.561" transform="translate(-30.147 -31.798)" fill="#0060a4" fill-rule="evenodd"/>
    <path id="Path_250" data-name="Path 250" d="M91.224,97.964a.292.292,0,0,1,.232,0,.172.172,0,0,1,.06.256.292.292,0,0,1-.18.1.337.337,0,0,1-.112-.373" transform="translate(-30.58 -32.5)" fill="#1f75bb" fill-rule="evenodd"/>
    <path id="Path_251" data-name="Path 251" d="M91.063,96.832a.721.721,0,0,1,.593.657.465.465,0,0,1-.541.5.721.721,0,0,1-.593-.657.465.465,0,0,1,.541-.5m0-.084a.825.825,0,0,1,.685.757.533.533,0,0,1-.621.581.833.833,0,0,1-.685-.757.533.533,0,0,1,.621-.6Z" transform="translate(-30.119 -31.768)" fill="#0f0b08" fill-rule="evenodd"/>
    <path id="Path_252" data-name="Path 252" d="M91.206,97.087a.573.573,0,0,1,.477.529.369.369,0,0,1-.433.4.573.573,0,0,1-.477-.525.369.369,0,0,1,.433-.4m0-.1a.713.713,0,0,1,.581.645.457.457,0,0,1-.529.493.713.713,0,0,1-.581-.645.457.457,0,0,1,.529-.493Z" transform="translate(-30.262 -31.927)" fill="#0060a4" fill-rule="evenodd"/>
    <path id="Path_253" data-name="Path 253" d="M91.259,97.094a.6.6,0,0,1,.5.557.4.4,0,0,1-.465.433.6.6,0,0,1-.5-.557.4.4,0,0,1,.465-.433m0-.044a.421.421,0,0,0-.493.461.669.669,0,0,0,.553.617.421.421,0,0,0,.493-.461.673.673,0,0,0-.553-.617Z" transform="translate(-30.315 -31.962)" fill="#74c1ec" fill-rule="evenodd"/>
    <path id="Path_254" data-name="Path 254" d="M91.46,97.69a.437.437,0,0,1,.276.18.192.192,0,0,1-.084.236.276.276,0,0,1,.2,0c.1.04.024.172.024.172a.453.453,0,0,0,.108-.4.321.321,0,0,0-.529-.164" transform="translate(-30.732 -32.314)" fill="#0f0b08" fill-rule="evenodd"/>
    <path id="Path_255" data-name="Path 255" d="M91.62,98a.132.132,0,0,1,.132.084c.032.092-.044.1-.044.1A.365.365,0,0,0,91.62,98" transform="translate(-30.828 -32.535)" fill="#74c1ec" fill-rule="evenodd"/>
    <path id="Path_256" data-name="Path 256" d="M88.549,99v.272l-.325.232a2.806,2.806,0,0,1-.084-.276s0-.024,0-.032.04.088.052.084a1.5,1.5,0,0,0,.292-.188A.672.672,0,0,1,88.553,99" transform="translate(-28.742 -33.135)" fill="#0060a4" fill-rule="evenodd"/>
    <path id="Path_257" data-name="Path 257" d="M88.835,99.39a.958.958,0,0,0,.2.341.865.865,0,0,0,.4.256.337.337,0,0,1-.341-.052.993.993,0,0,1-.272-.276l-.329.244-.04-.1.353-.252s0-.156.048-.16" transform="translate(-28.928 -33.369)" fill="#0060a4" fill-rule="evenodd"/>
    <path id="Path_258" data-name="Path 258" d="M90.136,98.2a1.042,1.042,0,0,0,.12.4,1.106,1.106,0,0,0,.341.321,3.142,3.142,0,0,1-.268.168s.072-.144.032-.2a1.078,1.078,0,0,1-.208-.3.917.917,0,0,1-.06-.2.509.509,0,0,0-.044.108.352.352,0,0,0,0,.152A.461.461,0,0,1,90,98.424a.248.248,0,0,1,.136-.212" transform="translate(-29.857 -32.656)" fill="#0060a4" fill-rule="evenodd"/>
    <path id="Path_259" data-name="Path 259" d="M95.148,107.33a1.967,1.967,0,0,1-.244.14l-.14-.052s-.8.349-.881.4a.573.573,0,0,0-.112.232,2.344,2.344,0,0,0,.986.974,1.277,1.277,0,0,0,.192.084l.232-.148a2.671,2.671,0,0,0,.325-.268s-.024-.1,0-.116l.252-.164Z" transform="translate(-32.117 -38.128)" fill="#00213f" fill-rule="evenodd"/>
    <path id="Path_260" data-name="Path 260" d="M94.682,109.556l.429-.228a1.03,1.03,0,0,1,.028.184s-.092.072-.212.156a1.549,1.549,0,0,1-.212-.092h-.032m-.545-1.306a.821.821,0,0,0-.188.3,2.268,2.268,0,0,0-.052.329,2.264,2.264,0,0,1-.2-.329.617.617,0,0,1,.437-.317Z" transform="translate(-32.075 -38.679)" fill="#0060a4" fill-rule="evenodd"/>
    <path id="Path_261" data-name="Path 261" d="M96.332,111.356H96.4l.236-.176v.112a.774.774,0,0,1-.14.12l-.176-.072" transform="translate(-33.645 -40.435)" fill="#74c1ec" fill-rule="evenodd"/>
    <path id="Path_262" data-name="Path 262" d="M93.94,108.366a.245.245,0,0,1,.14,0,.593.593,0,0,0-.128.212,2.467,2.467,0,0,0-.044.268,1.926,1.926,0,0,1-.108-.176.373.373,0,0,1,.076-.172.529.529,0,0,0,.064-.148" transform="translate(-32.135 -38.739)" fill="#74c1ec" fill-rule="evenodd"/>
    <path id="Path_263" data-name="Path 263" d="M95.914,107.456a.377.377,0,0,0-.212.072.353.353,0,0,0-.064.437l.08.092a.5.5,0,0,1,0-.276.3.3,0,0,1,.148-.16.657.657,0,0,0-.064.361.765.765,0,0,0,.148.349.905.905,0,0,1-.092-.465.725.725,0,0,1,.1-.268,1.945,1.945,0,0,1,.18-.092v-.124Z" transform="translate(-33.207 -38.158)" fill="#0060a4" fill-rule="evenodd"/>
    <path id="Path_264" data-name="Path 264" d="M94.85,108.995a6.366,6.366,0,0,0,.521-.425.706.706,0,0,0,0-.092v-.036l.529-.26.048.1-.457.228a.649.649,0,0,1,0,.092c0,.04-.112.124-.144.152l-.276.224-.076.06a1.07,1.07,0,0,1-.136-.044m-.12-1.663a.526.526,0,0,0-.108.048l-.208.1-.329.16h0a.685.685,0,0,0-.312.192.349.349,0,0,0-.06.108l-.06-.136.036-.048a.769.769,0,0,1,.365-.224l.325-.16a3.292,3.292,0,0,1,.353-.156.208.208,0,0,1,.132.06l.244-.112.048.1-.317.148-.028-.032a.437.437,0,0,0-.088-.048Z" transform="translate(-32.051 -38.026)" fill="#0f0b08" fill-rule="evenodd"/>
    <path id="Path_265" data-name="Path 265" d="M97.579,106.644a.8.8,0,0,1,.641.8.529.529,0,0,1-.645.521.8.8,0,0,1-.637-.8.525.525,0,0,1,.641-.545" transform="translate(-34.015 -37.694)" fill="#0060a4" fill-rule="evenodd"/>
    <path id="Path_266" data-name="Path 266" d="M97.679,107.826a.3.3,0,0,1,.236.024.176.176,0,0,1,.048.268.284.284,0,0,1-.188.092.349.349,0,0,1-.1-.4" transform="translate(-34.444 -38.415)" fill="#1f75bb" fill-rule="evenodd"/>
    <path id="Path_267" data-name="Path 267" d="M97.53,106.712a.729.729,0,0,1,.569.7.473.473,0,0,1-.573.489.737.737,0,0,1-.573-.7.473.473,0,0,1,.577-.489m0-.084a.845.845,0,0,1,.661.8.549.549,0,0,1-.665.561.845.845,0,0,1-.657-.8.545.545,0,0,1,.669-.561Z" transform="translate(-33.973 -37.698)" fill="#0f0b08" fill-rule="evenodd"/>
    <path id="Path_268" data-name="Path 268" d="M97.664,106.986a.585.585,0,0,1,.461.561.377.377,0,0,1-.461.4.585.585,0,0,1-.461-.561.377.377,0,0,1,.461-.4m0-.1a.717.717,0,0,1,.557.685.461.461,0,0,1-.561.473.717.717,0,0,1-.561-.681.465.465,0,0,1,.569-.477Z" transform="translate(-34.112 -37.852)" fill="#0060a4" fill-rule="evenodd"/>
    <path id="Path_269" data-name="Path 269" d="M97.774,107.007a.621.621,0,0,1,.485.589.4.4,0,0,1-.5.4.613.613,0,0,1-.481-.589.4.4,0,0,1,.5-.4m0-.044a.429.429,0,0,0-.525.445.689.689,0,0,0,.533.653.429.429,0,0,0,.525-.445.685.685,0,0,0-.545-.645Z" transform="translate(-34.201 -37.901)" fill="#74c1ec" fill-rule="evenodd"/>
    <path id="Path_270" data-name="Path 270" d="M97.916,107.561a.441.441,0,0,1,.272.2c.064.148-.1.236-.1.236a.284.284,0,0,1,.208,0c.1.048,0,.18,0,.18a.461.461,0,0,0,.132-.425.329.329,0,0,0-.533-.2" transform="translate(-34.592 -38.219)" fill="#0f0b08" fill-rule="evenodd"/>
    <path id="Path_271" data-name="Path 271" d="M98.09,108a.136.136,0,0,1,.132.092c.028.1-.048.092-.048.092A.341.341,0,0,0,98.09,108" transform="translate(-34.706 -38.529)" fill="#74c1ec" fill-rule="evenodd"/>
    <path id="Path_272" data-name="Path 272" d="M94.863,108.83v.28l-.4.26-.052-.06.036-.308s.036.1.056.1a1.73,1.73,0,0,0,.3-.18.907.907,0,0,1,.076-.092" transform="translate(-32.5 -39.027)" fill="#0060a4" fill-rule="evenodd"/>
    <path id="Path_273" data-name="Path 273" d="M95.093,109.22a1.073,1.073,0,0,0,.184.361.929.929,0,0,0,.4.28.349.349,0,0,1-.345-.072.965.965,0,0,1-.264-.3l-.353.236-.076-.08.4-.264s0-.16.056-.164" transform="translate(-32.638 -39.261)" fill="#0060a4" fill-rule="evenodd"/>
    <path id="Path_274" data-name="Path 274" d="M96.561,108.044a1.122,1.122,0,0,0,.1.4,1.154,1.154,0,0,0,.333.345,1.7,1.7,0,0,1-.28.156s.08-.14.04-.2a1.15,1.15,0,0,1-.2-.321.825.825,0,0,1-.052-.2.489.489,0,0,0-.052.108.317.317,0,0,0,0,.152.425.425,0,0,1-.04-.228.264.264,0,0,1,.148-.212" transform="translate(-33.702 -38.553)" fill="#0060a4" fill-rule="evenodd"/>
    <path id="Path_275" data-name="Path 275" d="M105.112,105a1.971,1.971,0,0,1-.244.132l-.132-.056s-.8.325-.881.373a2.1,2.1,0,0,0-.244.725,1.334,1.334,0,0,0,.333.525,3.5,3.5,0,0,0,.8.112l.345-.208a2.323,2.323,0,0,0,.325-.256s-.02-.1,0-.112.252-.152.252-.152Z" transform="translate(-38.014 -36.731)" fill="#00213f" fill-rule="evenodd"/>
    <path id="Path_276" data-name="Path 276" d="M104.112,105.84a.8.8,0,0,0-.192.284,3.33,3.33,0,0,0-.08.593c0,.024.453.469.453.469a.168.168,0,0,0,.14.032,5.517,5.517,0,0,0,.613-.3,1.456,1.456,0,0,1,0,.18,3.2,3.2,0,0,1-.308.208,3.634,3.634,0,0,1-.934-.132.966.966,0,0,1-.28-.525.737.737,0,0,1,.569-.8" transform="translate(-37.959 -37.235)" fill="#0060a4" fill-rule="evenodd"/>
    <path id="Path_277" data-name="Path 277" d="M105.632,109.066a.549.549,0,0,0,.2-.064c.14-.08.172-.024.172-.024l.236-.168a.865.865,0,0,1,0,.112,1.149,1.149,0,0,1-.22.168,2.6,2.6,0,0,1-.4-.024" transform="translate(-39.219 -39.015)" fill="#74c1ec" fill-rule="evenodd"/>
    <path id="Path_278" data-name="Path 278" d="M104.019,105.97a.272.272,0,0,1,.136,0,.6.6,0,0,0-.128.208,3.637,3.637,0,0,0-.092.609,4.383,4.383,0,0,0,.433.481c.032.024-.036.036-.036.036s-.425-.465-.429-.485-.072,0-.072,0a1.338,1.338,0,0,1,0-.457c.052-.2.084-.244.108-.268a.549.549,0,0,0,.068-.144" transform="translate(-38.135 -37.301)" fill="#74c1ec" fill-rule="evenodd"/>
    <path id="Path_279" data-name="Path 279" d="M106.069,105.108a.4.4,0,0,0-.212.064.349.349,0,0,0-.072.429l.076.092a.509.509,0,0,1,0-.272.321.321,0,0,1,.152-.152.669.669,0,0,0-.072.349.769.769,0,0,0,.136.349.885.885,0,0,1-.076-.457.541.541,0,0,1,.108-.26,1.8,1.8,0,0,1,.176-.088l.024-.12Z" transform="translate(-39.291 -36.755)" fill="#0060a4" fill-rule="evenodd"/>
    <path id="Path_280" data-name="Path 280" d="M104.655,106.693a6.052,6.052,0,0,0,.641-.485.646.646,0,0,0,0-.088v-.032l.525-.244.048.1-.461.212a.341.341,0,0,1,0,.092c0,.04-.116.12-.144.144-.092.076-.184.148-.28.216l-.108.08h-.02a1.543,1.543,0,0,1-.192,0m.036-1.715-.108.04-.2.092-.329.152h0a.649.649,0,0,0-.313.18,1.13,1.13,0,0,0-.14.641.5.5,0,0,0,.08.192,1.138,1.138,0,0,0,.216.264l.068.056-.228-.056a.9.9,0,0,1-.248-.457,1.162,1.162,0,0,1,.172-.717.8.8,0,0,1,.361-.216l.325-.144a2.561,2.561,0,0,1,.353-.148.216.216,0,0,1,.128.064l.24-.108.044.1-.312.14-.028-.032a.4.4,0,0,0-.084-.044Z" transform="translate(-37.942 -36.617)" fill="#0f0b08" fill-rule="evenodd"/>
    <path id="Path_281" data-name="Path 281" d="M107.725,104.377a.8.8,0,0,1,.609.8.521.521,0,0,1-.645.521.8.8,0,0,1-.609-.8.521.521,0,0,1,.645-.521" transform="translate(-40.094 -36.349)" fill="#0060a4" fill-rule="evenodd"/>
    <path id="Path_282" data-name="Path 282" d="M107.8,105.486a.313.313,0,0,1,.232.032.176.176,0,0,1,.044.264.309.309,0,0,1-.192.088.345.345,0,0,1-.084-.4" transform="translate(-40.509 -37.013)" fill="#1f75bb" fill-rule="evenodd"/>
    <path id="Path_283" data-name="Path 283" d="M107.664,104.41a.725.725,0,0,1,.545.705.465.465,0,0,1-.577.465.725.725,0,0,1-.549-.705.469.469,0,0,1,.581-.465m0-.08a.829.829,0,0,1,.629.8.537.537,0,0,1-.665.537.829.829,0,0,1-.629-.8.533.533,0,0,1,.677-.537Z" transform="translate(-40.045 -36.318)" fill="#0f0b08" fill-rule="evenodd"/>
    <path id="Path_284" data-name="Path 284" d="M107.8,104.677a.585.585,0,0,1,.437.565.373.373,0,0,1-.461.373.577.577,0,0,1-.441-.565.377.377,0,0,1,.465-.373m0-.1a.709.709,0,0,1,.533.685.457.457,0,0,1-.565.453.7.7,0,0,1-.533-.685.453.453,0,0,1,.569-.453Z" transform="translate(-40.19 -36.469)" fill="#0060a4" fill-rule="evenodd"/>
    <path id="Path_285" data-name="Path 285" d="M107.9,104.7a.6.6,0,0,1,.461.593.4.4,0,0,1-.5.4.609.609,0,0,1-.461-.593.4.4,0,0,1,.5-.4m0-.044a.425.425,0,0,0-.529.425.677.677,0,0,0,.509.657.425.425,0,0,0,.529-.425.673.673,0,0,0-.517-.657Z" transform="translate(-40.268 -36.52)" fill="#74c1ec" fill-rule="evenodd"/>
    <path id="Path_286" data-name="Path 286" d="M108.052,105.262a.425.425,0,0,1,.264.2c.06.148-.1.228-.1.228a.3.3,0,0,1,.2,0c.1.048,0,.176,0,.176a.457.457,0,0,0,.14-.4.325.325,0,0,0-.521-.2" transform="translate(-40.67 -36.849)" fill="#0f0b08" fill-rule="evenodd"/>
    <path id="Path_287" data-name="Path 287" d="M108.22,105.62a.132.132,0,0,1,.124.092c.028.1-.048.092-.048.092a.357.357,0,0,0-.076-.184" transform="translate(-40.777 -37.103)" fill="#74c1ec" fill-rule="evenodd"/>
    <path id="Path_288" data-name="Path 288" d="M104.949,106.43l-.02.272-.469.288.056-.4s.036.1.052.1a1.919,1.919,0,0,0,.3-.168.737.737,0,0,1,.076-.088" transform="translate(-38.524 -37.588)" fill="#0060a4" fill-rule="evenodd"/>
    <path id="Path_289" data-name="Path 289" d="M105.085,106.82a1.07,1.07,0,0,0,.172.357.909.909,0,0,0,.369.284.341.341,0,0,1-.337-.076.982.982,0,0,1-.252-.3l-.445.284-.052-.1.485-.3s0-.156.06-.156" transform="translate(-38.572 -37.822)" fill="#0060a4" fill-rule="evenodd"/>
    <path id="Path_290" data-name="Path 290" d="M106.7,105.69a1.021,1.021,0,0,0,.1.4,1.282,1.282,0,0,0,.313.349,1.64,1.64,0,0,1-.276.148s.08-.14.044-.2a1.086,1.086,0,0,1-.184-.321.885.885,0,0,1-.048-.2.642.642,0,0,0-.052.108.341.341,0,0,0,0,.152.441.441,0,0,1-.036-.228.268.268,0,0,1,.152-.2" transform="translate(-39.779 -37.145)" fill="#0060a4" fill-rule="evenodd"/>
    <path id="Path_291" data-name="Path 291" d="M79.4,80.988s-.4,3.442-.5,4.119a1.547,1.547,0,0,1-.469.954.529.529,0,0,0,.4-.272,3.094,3.094,0,0,0,.2-.312s-.357.986-1.142.978-2.043-.489-2.244-.4a3.971,3.971,0,0,0-.449,2.28c.088.272.8.741,1.6,1.278s1.735,1.174,2.1,1.466a2.26,2.26,0,0,1,.934,2c-.052.745-.8,4.046-1.01,4.852s-.445,1.082-.749,1.162l-.3.08s.517-.04.8-1.01a37.876,37.876,0,0,0,1.018-4.808,2.111,2.111,0,0,0-.541-1.7,41.922,41.922,0,0,0-4.5-3.169,10.921,10.921,0,0,0-2.893-1.47,5.793,5.793,0,0,1,.861.144,5.461,5.461,0,0,1,.95.369s.216-1.5.308-1.839-.7-.485-1.258-.7-.693-.256-.693-.256,2.268.661,3.365.954a14.1,14.1,0,0,0,2.684.573c.4-.032.737-.669.865-1.31s.4-3.4.485-3.606.136-.028.176-.369" transform="translate(-18.853 -22.335)" fill="#fff" fill-rule="evenodd"/>
    <path id="Path_292" data-name="Path 292" d="M100.37,86.188a1.066,1.066,0,0,0,.593.4,3.2,3.2,0,0,0,1.458-.184l4.551-1.1a2.771,2.771,0,0,1-.433,0,.4.4,0,0,0-.24,0c-.1.032-4.555,1.106-4.868,1.138a1.2,1.2,0,0,1-1.062-.284" transform="translate(-36.073 -24.914)" fill="#e0e1e0" fill-rule="evenodd"/>
    <path id="Path_293" data-name="Path 293" d="M102.86,87.7a4.255,4.255,0,0,0,.6-.076c.272-.056,3.434-.921,3.434-.921a3.061,3.061,0,0,0-1.382.709,8.51,8.51,0,0,0-.765,1.3c-.072.032.232-.429-.357-.705s-.8-.132-1.53-.308" transform="translate(-37.565 -25.763)" fill="#fff" fill-rule="evenodd"/>
    <path id="Path_294" data-name="Path 294" d="M114.228,92.83s-2.184,1.27-2.8,1.755a1.217,1.217,0,0,0-.152,1.6,1.326,1.326,0,0,1,.06-1.2,2.156,2.156,0,0,1,.645-.621c.5-.349,1.839-1.13,1.871-1.174a1.41,1.41,0,0,1,.4-.341" transform="translate(-42.466 -29.437)" fill="#fff" fill-rule="evenodd"/>
    <path id="Path_295" data-name="Path 295" d="M124.641,108.464a17.084,17.084,0,0,1-.473,2.288,5.116,5.116,0,0,1-.709,1.671,2.308,2.308,0,0,0,.6-.978c.272-.729.369-1.046.369-1.046a9.776,9.776,0,0,1-.849,2.264,14.953,14.953,0,0,1-1.675,2.4,16.339,16.339,0,0,0,1.2-2,1.162,1.162,0,0,1-1.018-.649c-.4-.693-1.575-2.252-1.575-2.252a33.212,33.212,0,0,0,2.24,2.5c.28.144.493-.032.737-.529a17.961,17.961,0,0,0,1.158-3.674" transform="translate(-48.144 -38.805)" fill="#ebedee" fill-rule="evenodd"/>
    <path id="Path_296" data-name="Path 296" d="M121.262,124.12a1.55,1.55,0,0,1-.2.857,4.038,4.038,0,0,1-.841.7,3.322,3.322,0,0,0,.8-.833,5.773,5.773,0,0,0,.256-.721" transform="translate(-47.97 -48.191)" fill="#f1c8df" fill-rule="evenodd"/>
    <path id="Path_297" data-name="Path 297" d="M96.9,117s-2.841,4.267-2.989,4.571a.621.621,0,0,0,.024.585,1.2,1.2,0,0,1,.216-.7c.256-.437,2.3-3.422,2.368-3.582a5.943,5.943,0,0,1,.4-.857" transform="translate(-32.162 -43.924)" fill="#e0e1e0" fill-rule="evenodd"/>
    <path id="Path_298" data-name="Path 298" d="M94.81,97.916s1.823-.525,1.851-.545-.188-.365-.693-.649a1.534,1.534,0,0,0-.4-.148,1.49,1.49,0,0,0-1.635.477,1.518,1.518,0,0,0-.308.537.715.715,0,0,0,0,.6c.028,0,.982-.272.982-.272l-.184.12-.909.252c-.028,0-.148-.156,0-.693a1.747,1.747,0,0,1,1.07-1.122A1.783,1.783,0,0,1,96,96.61a2.055,2.055,0,0,1,.761.685c.028.072-.04.132-.072.148s-1.967.545-1.967.545Z" transform="translate(-31.918 -31.566)" fill="#232326" fill-rule="evenodd"/>
    <path id="Path_299" data-name="Path 299" d="M94.708,102.4a.4.4,0,0,1,.02-.164c.032-.048,3.113-.909,3.137-.905s.116.1.108.477a1.727,1.727,0,0,1-.252.765,1.707,1.707,0,0,1-.982.757,1.883,1.883,0,0,1-.8.04,2.216,2.216,0,0,1-1.2-.8,2.135,2.135,0,0,0,1.426.745,1.6,1.6,0,0,0,1.6-1.014c.168-.473.088-.745.06-.749s-2.941.745-2.993.761a.345.345,0,0,0-.116.092" transform="translate(-32.678 -34.532)" fill="#232326" fill-rule="evenodd"/>
    <path id="Path_300" data-name="Path 300" d="M96.05,62.672a15.942,15.942,0,0,1,9.006,3.606c4.159,3.494,5.264,6.3,5.889,8.393a16,16,0,0,1,.7,3.121,14.255,14.255,0,0,0-3.794-9.423c-4.087-4.7-9.684-5.922-11.8-5.7" transform="translate(-33.483 -11.347)" fill="#000002" fill-rule="evenodd"/>
    <path id="Path_301" data-name="Path 301" d="M89.748,116.058s-.533,2.776-.8,3.5-.6.717-.6.717a5.549,5.549,0,0,0,1.927,1.042.829.829,0,0,1,.032-.433c.076-.26,1.53-2.488,1.675-2.724s-.7.5-1.034.477a3.606,3.606,0,0,1-1.25-.4,10.6,10.6,0,0,1,.032-2.188" transform="translate(-28.868 -43.354)" fill="#e0e1e0" fill-rule="evenodd"/>
    <path id="Path_302" data-name="Path 302" d="M96.924,94.745l-.4.325a2.564,2.564,0,0,0-1.891-.321c-.946.28-1.142.753-1.142.753a1.6,1.6,0,0,1,1.178-.937,2.865,2.865,0,0,1,1.771.236c.068,0,.184-.184-.192-.341s.473.116.665.284" transform="translate(-31.949 -30.386)" fill="#e0e1e0" fill-rule="evenodd"/>
    <path id="Path_303" data-name="Path 303" d="M103.873,99.74a3.634,3.634,0,0,1,.172,1.166,2.672,2.672,0,0,1-.172.942,2.055,2.055,0,0,0-.565.156,1.438,1.438,0,0,0-.188.12,3.3,3.3,0,0,0,.329-.8,2.368,2.368,0,0,0,.088-.621,1.927,1.927,0,0,1,.156.645v.252s.236-.136.188-1.855" transform="translate(-37.721 -33.579)" fill="#e0e1e0" fill-rule="evenodd"/>
    <path id="Path_304" data-name="Path 304" d="M91.531,101.87s-.4.236-.4.4a4.207,4.207,0,0,0,.489,1.078c.276.461.333.457.333.457a9.988,9.988,0,0,1-.6-1.422,1.3,1.3,0,0,1,.172-.513" transform="translate(-30.534 -34.855)" fill="#b5b5b5" fill-rule="evenodd"/>
    <path id="Path_305" data-name="Path 305" d="M69.789,83.907a17.5,17.5,0,0,0-.561,3.409,18.429,18.429,0,0,0,.272,3.93,12.452,12.452,0,0,1-.641-3.982,16.519,16.519,0,0,1,.629-4.155s-.148,1.118-.236,2.047l-.084.929a10.016,10.016,0,0,1,.621-2.18" transform="translate(-17.187 -23.611)" fill="#232326" fill-rule="evenodd"/>
    <path id="Path_306" data-name="Path 306" d="M123.175,83.512s.441.677.9,1.466a8.882,8.882,0,0,1,.6,1.174,3.686,3.686,0,0,0-.737-.649,1.314,1.314,0,0,0-.641.124s.4-.3.4-.441a3.654,3.654,0,0,0-.693-1.2.581.581,0,0,0-.449-.036,1.735,1.735,0,0,0,.589-.449" transform="translate(-49.366 -23.845)" fill="#605f5f" fill-rule="evenodd"/>
    <path id="Path_307" data-name="Path 307" d="M81.489,52.732a14.088,14.088,0,0,0-10.918,2.24A14.925,14.925,0,0,0,64.606,66.9,21.024,21.024,0,0,0,77.523,86.454a17.427,17.427,0,0,0,3.189.934,14.09,14.09,0,0,0,10.918-2.244,14.859,14.859,0,0,0,5.95-11.927A21.028,21.028,0,0,0,84.662,53.662a17.1,17.1,0,0,0-3.173-.913m.068-.236C90.8,54.235,98.072,63.485,97.811,73.177S89.842,89.335,80.6,87.6,64.085,76.623,64.35,66.931,72.318,50.777,81.557,52.5Z" transform="translate(-14.479 -5.097)" fill="#0f0b08" fill-rule="evenodd"/>
    <path id="Path_308" data-name="Path 308" d="M70.51,64.456a11.946,11.946,0,0,1,10.5-8.474c8.47-.689,14.267,5.609,16.494,10.044a19.148,19.148,0,0,1,2.228,9.712c-.04,2.067-.773,7.051-4.808,10.072A14.023,14.023,0,0,0,98.467,72.4c-2.075-8.3-7.131-13.966-15.1-15.365A11.342,11.342,0,0,0,70.51,64.456" transform="translate(-18.176 -7.321)" fill="#000002" fill-rule="evenodd"/>
    <path id="Path_309" data-name="Path 309" d="M125.851,122.12a11.675,11.675,0,0,1-2.492,3.169,12.821,12.821,0,0,1-4.6,2.6,10.986,10.986,0,0,0,3.646-1.47,8.814,8.814,0,0,0,3.446-4.3" transform="translate(-47.095 -46.992)" fill="#0f0b08" fill-rule="evenodd"/>
    <path id="Path_310" data-name="Path 310" d="M73.482,64.236a12.536,12.536,0,0,1,4.888-4.407,11.531,11.531,0,0,1,6.543-.8,12.288,12.288,0,0,0-6.635,1.134,12.925,12.925,0,0,0-4.808,4.075" transform="translate(-19.95 -9.08)" fill="#605f5f" fill-rule="evenodd"/>
    <path id="Path_311" data-name="Path 311" d="M134.45,105.26a11.775,11.775,0,0,0,1.486-2.744,9.776,9.776,0,0,0,.777-3.153,12.844,12.844,0,0,1-.228,2.151l-.216,1.094a9.523,9.523,0,0,0,.689-2.46,18.016,18.016,0,0,0-.4-5.641,4.9,4.9,0,0,0-.513-1.446,17.088,17.088,0,0,1,.541,5.056,15.437,15.437,0,0,1-2.119,7.143" transform="translate(-56.499 -29.575)" fill="#605f5f" fill-rule="evenodd"/>
    <path id="Path_312" data-name="Path 312" d="M104.11,108.934v.044a3.049,3.049,0,0,0,1.146.14l-.056-.068a2.656,2.656,0,0,1-1.05-.16Z" transform="translate(-38.314 -39.063)" fill="#0f0b08" fill-rule="evenodd"/>
    <path id="Path_313" data-name="Path 313" d="M93.72,108.75a1.018,1.018,0,0,0,.337.569,3.465,3.465,0,0,0,.865.6l-.064.04a2.368,2.368,0,0,1-.721-.441,1.839,1.839,0,0,1-.517-.749Z" transform="translate(-32.027 -38.979)" fill="#0f0b08" fill-rule="evenodd"/>
    <path id="Path_314" data-name="Path 314" d="M93.982,90.03l-.036-.04a2.24,2.24,0,0,0-.361.881.649.649,0,0,0,.325.745l-.172-.224a.629.629,0,0,1-.068-.525,4.5,4.5,0,0,1,.3-.837" transform="translate(-31.993 -27.735)" fill="#0f0b08" fill-rule="evenodd"/>
    <path id="Path_315" data-name="Path 315" d="M88.238,98.42a.677.677,0,0,0,0,.617c.156.4.441.829.473.962l-.1-.036a4.451,4.451,0,0,1-.256-.477,1.418,1.418,0,0,1-.22-1.01Z" transform="translate(-28.728 -32.787)" fill="#0f0b08" fill-rule="evenodd"/>
  </g>
</svg>
