<svg xmlns="http://www.w3.org/2000/svg" width="32" height="32" viewBox="0 0 32 32">
  <g id="oil" transform="translate(-318 -119)">
    <rect id="Icon_Add_background" data-name="Icon/Add background" width="32" height="32" transform="translate(318 119)" fill="none"/>
    <g id="Group_152" data-name="Group 152" transform="translate(325.325 120)">
      <g id="Group_120" data-name="Group 120" transform="translate(0 4.409)">
        <path id="Path_783" data-name="Path 783" d="M1056.226,577.4v.653a5.286,5.286,0,0,1-2.525,4.507l-3.534,2.155a7.039,7.039,0,0,0-2.993,3.744,43.19,43.19,0,0,0-1.946,10.406,3.855,3.855,0,0,0,3.843,4.126h9.643a3.853,3.853,0,0,0,3.855-3.855V577.4Zm-1.256,19.692a2.418,2.418,0,0,1-2.414-2.414,2.337,2.337,0,0,1,.209-.973h0v-.012c.037-.074,2.2-4.347,2.2-4.347s2.167,4.273,2.2,4.36v.012a2.476,2.476,0,0,1,.2.961A2.4,2.4,0,0,1,1054.97,597.092Z" transform="translate(-1045.218 -577.4)" fill="none" stroke="#fff" stroke-linecap="round" stroke-linejoin="round" stroke-width="1"/>
      </g>
      <g id="Group_121" data-name="Group 121" transform="translate(10.707)">
        <rect id="Rectangle_739" data-name="Rectangle 739" width="6.643" height="2.709" fill="none" stroke="#fff" stroke-linecap="round" stroke-linejoin="round" stroke-width="1"/>
      </g>
    </g>
  </g>
</svg>
