<svg xmlns="http://www.w3.org/2000/svg" width="32" height="32" viewBox="0 0 32 32">
  <g id="tshirt" transform="translate(-258 -208)">
    <g id="shirt-outline" transform="translate(258.827 208.625)">
      <path id="Path_616" data-name="Path 616" d="M18.551,3.375a11.134,11.134,0,0,1-3.378.462A11.134,11.134,0,0,1,11.8,3.375a1.843,1.843,0,0,0-.61.1L2.25,6.606l.959,5.077L6.029,12A1.385,1.385,0,0,1,7.258,13.42L6.865,27.375H23.481l-.392-13.956A1.385,1.385,0,0,1,24.317,12l2.82-.318L28.1,6.606,19.162,3.479a1.843,1.843,0,0,0-.61-.1Z" fill="none" stroke="#fff" stroke-linecap="round" stroke-linejoin="round" stroke-width="1"/>
      <path id="Path_617" data-name="Path 617" d="M21.485,3.7a4.615,4.615,0,0,1-8.921,0" transform="translate(-1.851 -0.059)" fill="none" stroke="#fff" stroke-linecap="round" stroke-linejoin="round" stroke-width="1"/>
    </g>
    <rect id="Icon_Add_background" data-name="Icon/Add background" width="32" height="32" transform="translate(258 208)" fill="none"/>
  </g>
</svg>
