<svg xmlns="http://www.w3.org/2000/svg" width="121.927" height="120" viewBox="0 0 121.927 120">
  <g id="Password_Two_Color" data-name="Password_Two Color" transform="translate(-77.936 -31.39)">
    <path id="Path_1147" data-name="Path 1147" d="M120.373,74.328C91.4,72.8,70.036,101.724,80.743,128.707a35.217,35.217,0,0,0,8.388,12.6c23.739,22.777,74.591,15.077,90.395,3.205s22.276-47.839,8.1-59.192C169.978,71.224,146.677,75.714,120.373,74.328Z" transform="translate(0 -22.245)" fill="#e6e6e6" opacity="0.45"/>
    <path id="Path_1148" data-name="Path 1148" d="M211.8,184.5l14.678,17.685,19.572-21.978L230.342,166.42Z" transform="translate(-69.444 -70.049)" fill="#f4a28c"/>
    <path id="Path_1149" data-name="Path 1149" d="M228.31,209.573,251.279,189l26.593,22.656-31.92,21.5Z" transform="translate(-78.009 -81.763)" fill="#e42e0e"/>
    <path id="Path_1150" data-name="Path 1150" d="M222.176,192.68l28.8,33.686-12.916,8.7-17.642-23.58,1.829-1.564-9.153-11.044Z" transform="translate(-70.114 -83.672)" opacity="0.08"/>
    <path id="Path_1151" data-name="Path 1151" d="M129.47,158.84s15.491,21.526,30.294,22.348,22.719.082,28.874-14.3Z" transform="translate(-26.734 -66.117)" fill="#f4a28c"/>
    <path id="Path_1152" data-name="Path 1152" d="M129.47,158.84s15.491,21.526,30.294,22.348,22.719.082,28.874-14.3Z" transform="translate(-26.734 -66.117)" opacity="0.08"/>
    <rect id="Rectangle_1181" data-name="Rectangle 1181" width="43.277" height="77.618" transform="translate(107.024 31.39)" fill="#c9c9c9"/>
    <rect id="Rectangle_1182" data-name="Rectangle 1182" width="35.823" height="54.625" transform="translate(110.604 40.24)" fill="#fff"/>
    <circle id="Ellipse_199" data-name="Ellipse 199" cx="4.235" cy="4.235" r="4.235" transform="translate(124.56 97.622)" fill="#fff" opacity="0.56"/>
    <rect id="Rectangle_1183" data-name="Rectangle 1183" width="12.132" height="1.771" transform="translate(125.002 34.422)" opacity="0.12"/>
    <circle id="Ellipse_200" data-name="Ellipse 200" cx="1.978" cy="1.978" r="1.978" transform="translate(118.631 33.522)" fill="#fff"/>
    <path id="Path_1153" data-name="Path 1153" d="M147.918,158.44s2.748,4.923-.6,6.444-8.936-.962-8.936-.962v-3.628Z" transform="translate(-31.356 -65.91)" opacity="0.08"/>
    <path id="Path_1154" data-name="Path 1154" d="M147.138,129.21s3.08,7-.265,8.527-8.494-1.126-8.494-1.126v-3.653Z" transform="translate(-31.356 -50.746)" opacity="0.08"/>
    <path id="Path_1155" data-name="Path 1155" d="M147.138,115.67s2.628,5.582-.722,7.108-8.037.289-8.037.289v-3.628Z" transform="translate(-31.356 -43.722)" opacity="0.08"/>
    <path id="Path_1156" data-name="Path 1156" d="M130.534,97.865s-6.588,8.917,0,10.587,13.6,1.925,10.39-5.727A7.986,7.986,0,0,0,130.534,97.865Z" transform="translate(-25.767 -34.227)" fill="#f4a28c"/>
    <path id="Path_1157" data-name="Path 1157" d="M130.534,117.784s-6.588,8.922,0,10.587,12.719,2.1,10.837-5.991C140.057,116.715,130.534,117.784,130.534,117.784Z" transform="translate(-25.767 -44.777)" fill="#f4a28c"/>
    <path id="Path_1158" data-name="Path 1158" d="M130.534,139.09s-6.588,8.922,0,10.587,11.766,4.331,12.146-3.763C142.935,140.423,130.534,139.09,130.534,139.09Z" transform="translate(-25.767 -55.871)" fill="#f4a28c"/>
    <path id="Path_1159" data-name="Path 1159" d="M143.137,104.86l-.587,4.394a1.054,1.054,0,0,0,.914,1.184l1.444.183a2.406,2.406,0,0,0,2.671-1.833l.366-1.487a2.406,2.406,0,0,0-1.809-2.945l-1.689-.4a1.059,1.059,0,0,0-1.309.9Z" transform="translate(-33.515 -37.628)" fill="#fff" opacity="0.46"/>
    <path id="Path_1160" data-name="Path 1160" d="M127.67,102.769s-.419,1.8.245,2.69h37.767V95.19Z" transform="translate(-25.733 -33.097)" opacity="0.08"/>
    <rect id="Rectangle_1184" data-name="Rectangle 1184" width="41.198" height="29.432" transform="translate(100.156 40.24)" fill="#0f0f0f"/>
    <circle id="Ellipse_201" data-name="Ellipse 201" cx="7.045" cy="7.045" r="7.045" transform="translate(121.821 75.933)" fill="#0f0f0f"/>
    <path id="Path_1161" data-name="Path 1161" d="M178.34,136.241l2.372,2.733,3.191-5.024" transform="translate(-52.086 -53.205)" fill="none" stroke="#fff" stroke-linecap="round" stroke-linejoin="round" stroke-width="3"/>
    <path id="Path_1162" data-name="Path 1162" d="M179.62,109.84l1.646,4.817,1.814-4.817Z" transform="translate(-52.75 -40.697)" fill="#24285b"/>
    <path id="Path_1163" data-name="Path 1163" d="M166.412,62.01h-1.1V59.392a1.617,1.617,0,1,0-3.229,0V62.01H160.96V59.392a2.738,2.738,0,0,1,5.472,0Z" transform="translate(-43.07 -13.166)" fill="#e42e0e"/>
    <path id="Path_1164" data-name="Path 1164" d="M166.412,62.01h-1.1V59.392a1.617,1.617,0,1,0-3.229,0V62.01H160.96V59.392a2.738,2.738,0,0,1,5.472,0Z" transform="translate(-43.07 -13.166)" fill="#fff" opacity="0.46"/>
    <rect id="Rectangle_1185" data-name="Rectangle 1185" width="8.369" height="6.67" transform="translate(116.422 46.842)" fill="#e42e0e"/>
    <path id="Path_1165" data-name="Path 1165" d="M166.281,67.575a.885.885,0,1,0-1.482.645V70.1h1.213V68.206A.886.886,0,0,0,166.281,67.575Z" transform="translate(-44.912 -18.308)" fill="#24285b"/>
    <rect id="Rectangle_1186" data-name="Rectangle 1186" width="25.89" height="6.487" transform="translate(108.073 57.146)" fill="#fff"/>
    <rect id="Rectangle_1187" data-name="Rectangle 1187" width="6.655" height="6.487" transform="translate(127.312 57.146)" fill="#e42e0e"/>
    <circle id="Ellipse_202" data-name="Ellipse 202" cx="0.866" cy="0.866" r="0.866" transform="translate(110.209 59.528)" fill="#24285b"/>
    <circle id="Ellipse_203" data-name="Ellipse 203" cx="0.866" cy="0.866" r="0.866" transform="translate(113.424 59.528)" fill="#24285b"/>
    <circle id="Ellipse_204" data-name="Ellipse 204" cx="0.866" cy="0.866" r="0.866" transform="translate(116.562 59.528)" fill="#24285b"/>
    <circle id="Ellipse_205" data-name="Ellipse 205" cx="0.866" cy="0.866" r="0.866" transform="translate(119.776 59.528)" fill="#24285b"/>
    <circle id="Ellipse_206" data-name="Ellipse 206" cx="0.866" cy="0.866" r="0.866" transform="translate(123.058 59.528)" fill="#24285b"/>
    <path id="Path_1166" data-name="Path 1166" d="M230.488,95.5c-.1-1.646-.164-3.292-.144-4.764a4.438,4.438,0,0,0-5.775-4.331c-1.444.481-2.6,1.713-2.6,4.331,0,5.207,1.631,12.709,2.551,16.521a14.436,14.436,0,0,1,.318,4.918c-.6,5.626-1.545,18.9,2.6,19.788,4.812,1.025,16.482-.669,7.348-20.13a45.187,45.187,0,0,1-4.3-16.333Z" transform="translate(-74.72 -28.418)" fill="#f4a28c"/>
    <path id="Path_1167" data-name="Path 1167" d="M144.024,148.8l-.116,3.879a.919.919,0,0,0,.9.962l1.256.034a2.122,2.122,0,0,0,2.156-1.838l.183-1.323a2.122,2.122,0,0,0-1.838-2.406l-1.5-.192a.924.924,0,0,0-1.039.885Z" transform="translate(-34.224 -60.444)" fill="#fff" opacity="0.46"/>
    <path id="Path_1168" data-name="Path 1168" d="M142.237,124.376l-.587,4.4a1.054,1.054,0,0,0,.914,1.189l1.444.183a2.435,2.435,0,0,0,2.676-1.834l.361-1.487a2.435,2.435,0,0,0-1.809-2.95l-1.689-.395a1.059,1.059,0,0,0-1.309.89Z" transform="translate(-33.048 -47.759)" fill="#fff" opacity="0.46"/>
  </g>
</svg>
