<svg xmlns="http://www.w3.org/2000/svg" width="60" height="32" viewBox="0 0 60 32">
  <g id="alet" transform="translate(-4 -116)">
    <g id="Group_70" data-name="Group 70" transform="translate(-771.845 -602.388)">
      <path id="Path_499" data-name="Path 499" d="M1079.238,737.825a.653.653,0,0,1-.514-.638v-4.938a.653.653,0,0,1,.514-.638c-1.3-2.849-7.018-2.368-8.575-1.758-1.67.654-6.754,2.469-9.15,1.743a15.454,15.454,0,0,0-4.5-.654v7.552a15.457,15.457,0,0,0,4.5-.654c2.4-.726,7.479,1.089,9.15,1.743C1072.22,740.193,1077.94,740.674,1079.238,737.825Z" transform="translate(-251.058 0)" fill="none" stroke="#fff" stroke-linecap="round" stroke-linejoin="round" stroke-width="1"/>
      <path id="Path_500" data-name="Path 500" d="M1307.007,759.305v-3.2a1.525,1.525,0,0,0-1.525-1.525h0a.657.657,0,0,0-.654.654v4.938a.656.656,0,0,0,.654.654h0A1.525,1.525,0,0,0,1307.007,759.305Z" transform="translate(-477.163 -22.989)" fill="none" stroke="#fff" stroke-linecap="round" stroke-linejoin="round" stroke-width="1"/>
      <path id="Path_501" data-name="Path 501" d="M1019.958,762.468V759.8h-2.189a1.369,1.369,0,0,0-1.369,1.369v2.593a1.369,1.369,0,0,0,1.369,1.369h2.189Z" transform="translate(-214.005 -27.75)" fill="none" stroke="#fff" stroke-linecap="round" stroke-linejoin="round" stroke-width="1"/>
      <rect id="Rectangle_704" data-name="Rectangle 704" width="3.174" height="16.775" transform="translate(802.395 733.131) rotate(90)" fill="none" stroke="#fff" stroke-linecap="round" stroke-linejoin="round" stroke-width="1"/>
      <rect id="Rectangle_705" data-name="Rectangle 705" width="3.174" height="3.776" transform="translate(785.62 733.131) rotate(90)" fill="none" stroke="#fff" stroke-linecap="round" stroke-linejoin="round" stroke-width="1"/>
    </g>
    <rect id="Icon_Add_background" data-name="Icon/Add background" width="60" height="32" transform="translate(4 116)" fill="none"/>
  </g>
</svg>
