<svg xmlns="http://www.w3.org/2000/svg" width="160" height="105.367" viewBox="0 0 160 105.367">
  <g id="Mailchimp_Two_Color" data-name="Mailchimp_Two Color" transform="translate(-31.631 -39.12)">
    <path id="Path_1144" data-name="Path 1144" d="M158.433,51.082c16.739,5.73,32.685,21.453,33.17,41.751s-5.06,41-35.56,48.992c-28.647,7.531-96.678,10.258-114.786-14.977C24.166,103.063,29.592,64.457,59.469,52.1,80.409,43.442,125.738,39.887,158.433,51.082Z" transform="translate(0 -2.587)" fill="#e6e6e6" opacity="0.3"/>
    <path id="Path_1145" data-name="Path 1145" d="M193.36,72.242l-.214-.128v-.228h-.39L137.217,39.12h-5.954L75.723,71.886h-.39v.228l-.214.128h.214v65.984H193.146V72.242Z" transform="translate(-22.826)" fill="#0f0f0f"/>
    <rect id="Rectangle_1180" data-name="Rectangle 1180" width="89.94" height="83.649" transform="translate(66.444 46.38)" fill="#b5b5b5"/>
    <path id="Path_1146" data-name="Path 1146" d="M193.36,108.08v66.245H75.12V108.08h.162l55.982,33.027h5.954L193.2,108.08Z" transform="translate(-22.826 -36.194)" fill="#e42e0e"/>
  </g>
</svg>
