<svg xmlns="http://www.w3.org/2000/svg" width="32" height="32" viewBox="0 0 32 32">
  <g id="Icon_-_Google" data-name="Icon - Google" transform="translate(-806 -400)">
    <path id="google" d="M13.988,16.28V11.816H25.22a10.446,10.446,0,0,1,.3,2.46C25.52,21.128,20.924,26,14,26A12,12,0,1,1,14,2a11.487,11.487,0,0,1,8.028,3.132L18.62,8.444A6.6,6.6,0,0,0,14,6.668a7.345,7.345,0,0,0,0,14.688c4.6,0,6.288-3.18,6.6-5.064H13.988V16.28Z" transform="translate(808.24 402)" fill="#fff"/>
    <rect id="Rectangle_1094" data-name="Rectangle 1094" width="32" height="32" transform="translate(806 400)" fill="none"/>
  </g>
</svg>
