<svg xmlns="http://www.w3.org/2000/svg" width="32" height="32" viewBox="0 0 32 32">
  <g id="wheel" transform="translate(-190 -185)">
    <rect id="Icon_Add_background" data-name="Icon/Add background" width="32" height="32" transform="translate(190 185)" fill="none"/>
    <g id="Group_99" data-name="Group 99" transform="translate(191 186)">
      <path id="Path_521" data-name="Path 521" d="M1114.109,635.817a6.209,6.209,0,1,1,6.208-6.208A6.214,6.214,0,0,1,1114.109,635.817Zm0-11.679a5.487,5.487,0,1,0,5.487,5.487A5.484,5.484,0,0,0,1114.109,624.138Z" transform="translate(-1099.108 -614.608)" fill="#fff"/>
      <path id="Path_527" data-name="Path 527" d="M1068.1,598.6a15.008,15.008,0,1,1,10.6-4.4A14.876,14.876,0,0,1,1068.1,598.6Zm0-29.262a14.278,14.278,0,1,0,14.278,14.278A14.289,14.289,0,0,0,1068.1,569.338Zm0,25.267a10.989,10.989,0,1,1,10.989-10.989A11,11,0,0,1,1068.1,594.605Zm0-21.273a10.283,10.283,0,1,0,10.283,10.283A10.294,10.294,0,0,0,1068.1,573.333Z" transform="translate(-1053.1 -568.6)" fill="#fff"/>
      <path id="Path_528" data-name="Path 528" d="M1089.089,615.679a10.989,10.989,0,1,1,10.989-10.989A11,11,0,0,1,1089.089,615.679Zm0-21.273a10.283,10.283,0,1,0,10.283,10.283A10.294,10.294,0,0,0,1089.089,594.406Z" transform="translate(-1074.089 -589.673)" fill="#fff"/>
      <path id="Path_529" data-name="Path 529" d="M1101.436,607.886c-3.112,1.011-6.128.818-7.8-.321.69-1.909,3.016-3.834,6.128-4.845l.289-.1a10.633,10.633,0,0,0-6.225-4.524v.3c0,3.273-1.123,6.08-2.711,7.316-1.6-1.235-2.711-4.059-2.711-7.316v-.3a10.651,10.651,0,0,0-6.225,4.524l.289.1c3.112,1.011,5.438,2.936,6.128,4.845-1.669,1.139-4.7,1.331-7.8.321l-.289-.1c-.016.193-.016.4-.016.594a10.6,10.6,0,0,0,2.391,6.722c.064-.08.112-.16.176-.241,1.925-2.647,4.476-4.267,6.5-4.332.562,1.941-.176,4.877-2.1,7.524a2.3,2.3,0,0,0-.176.241,10.628,10.628,0,0,0,7.7,0,2.327,2.327,0,0,1-.177-.241c-1.925-2.647-2.663-5.567-2.1-7.524,2.021.064,4.588,1.685,6.5,4.332.064.08.112.161.176.241a10.6,10.6,0,0,0,2.39-6.722c0-.193,0-.4-.016-.594C1101.628,607.822,1101.532,607.854,1101.436,607.886Z" transform="translate(-1076.104 -593.367)" fill="#0f0f0f"/>
      <path id="Path_530" data-name="Path 530" d="M1089.173,617.376a11.213,11.213,0,0,1-3.979-.738.348.348,0,0,1-.208-.241.337.337,0,0,1,.064-.321c.064-.08.112-.16.177-.241,1.717-2.358,2.519-5.037,2.118-6.93-1.925.193-4.219,1.8-5.936,4.155-.064.08-.112.16-.177.241a.346.346,0,0,1-.561.032,10.979,10.979,0,0,1-2.471-6.947c0-.193,0-.4.016-.61a.331.331,0,0,1,.161-.273.378.378,0,0,1,.321-.048c.1.032.193.064.273.1,2.776.9,5.567.85,7.251-.128-.786-1.765-3.016-3.465-5.792-4.364l-.289-.1a.318.318,0,0,1-.224-.225.374.374,0,0,1,.032-.321,11.049,11.049,0,0,1,6.433-4.685.34.34,0,0,1,.3.064.33.33,0,0,1,.128.289v.289c0,2.92.914,5.567,2.358,6.85,1.444-1.3,2.358-3.947,2.358-6.85v-.289a.376.376,0,0,1,.128-.289.351.351,0,0,1,.3-.064,10.934,10.934,0,0,1,6.433,4.685.327.327,0,0,1,.032.321.348.348,0,0,1-.225.225l-.289.1c-2.775.9-5.005,2.6-5.791,4.364,1.685.979,4.476,1.027,7.251.128.1-.032.192-.064.273-.1a.378.378,0,0,1,.321.048.374.374,0,0,1,.16.273c.016.208.016.417.016.61a11.039,11.039,0,0,1-2.471,6.947.376.376,0,0,1-.289.128.33.33,0,0,1-.273-.16,2.321,2.321,0,0,0-.177-.241c-1.717-2.358-4.011-3.963-5.936-4.155-.4,1.893.4,4.572,2.118,6.93.064.08.112.161.176.241a.384.384,0,0,1,.064.321.39.39,0,0,1-.209.241A10.806,10.806,0,0,1,1089.173,617.376Zm-3.273-1.251a10.38,10.38,0,0,0,6.545,0c-1.861-2.615-2.663-5.615-2.053-7.685a.361.361,0,0,1,.353-.257c2.15.064,4.765,1.765,6.674,4.332a10.246,10.246,0,0,0,2.022-6.128v-.112c-3.064.947-6.161.786-7.941-.417a.351.351,0,0,1-.128-.417c.738-2.037,3.144-3.979,6.177-5.005a10.18,10.18,0,0,0-5.31-3.85c-.032,3.209-1.155,6.112-2.856,7.428a.361.361,0,0,1-.433,0c-1.7-1.315-2.823-4.219-2.856-7.428a10.4,10.4,0,0,0-5.31,3.85c3.032,1.027,5.454,2.984,6.176,5.005a.374.374,0,0,1-.128.417c-1.781,1.219-4.893,1.38-7.941.417v.112a10.355,10.355,0,0,0,2.021,6.128c1.909-2.567,4.524-4.267,6.674-4.332a.361.361,0,0,1,.353.257C1088.563,610.51,1087.745,613.51,1085.9,616.125Z" transform="translate(-1074.173 -591.371)" fill="#fff"/>
      <circle id="Ellipse_115" data-name="Ellipse 115" cx="0.513" cy="0.513" r="0.513" transform="translate(14.487 16.636)" fill="#fff"/>
      <circle id="Ellipse_116" data-name="Ellipse 116" cx="0.513" cy="0.513" r="0.513" transform="translate(16.39 15.986) rotate(-72.002)" fill="#fff"/>
      <circle id="Ellipse_117" data-name="Ellipse 117" cx="0.513" cy="0.513" r="0.513" transform="matrix(0.588, -0.809, 0.809, 0.588, 15.536, 13.406)" fill="#fff"/>
      <circle id="Ellipse_118" data-name="Ellipse 118" cx="0.513" cy="0.513" r="0.513" transform="matrix(0.809, -0.588, 0.588, 0.809, 13.029, 13.165)" fill="#fff"/>
      <circle id="Ellipse_119" data-name="Ellipse 119" cx="0.513" cy="0.513" r="0.513" transform="translate(12.338 15.35) rotate(-17.998)" fill="#fff"/>
    </g>
  </g>
</svg>
