<svg xmlns="http://www.w3.org/2000/svg" width="32" height="32" viewBox="0 0 32 32">
  <g id="part" transform="translate(-71 -116)">
    <g id="mirror" transform="translate(18 -68)">
      <rect id="Icon_Add_background" data-name="Icon/Add background" width="32" height="32" transform="translate(53 184)" fill="none"/>
    </g>
    <g id="Group_96" data-name="Group 96" transform="translate(72 118)">
      <path id="Path_608" data-name="Path 608" d="M183.64,602.111H166.834a6.946,6.946,0,0,1-6.934-6.934v-8.636a.427.427,0,0,1,.048-.193,43.936,43.936,0,0,1,4.847-6.292,27.289,27.289,0,0,1,5.04-4.35,11.221,11.221,0,0,1,5.971-2.006h11.878a.335.335,0,0,1,.321.209,22.55,22.55,0,0,1,1.894,7.833v7.319a34.928,34.928,0,0,1-.626,6.95c-.08.482-.177.963-.257,1.509a5.409,5.409,0,0,1-1.846,3.291A5.479,5.479,0,0,1,183.64,602.111Zm-23.018-15.474v8.539a6.227,6.227,0,0,0,6.212,6.212H183.64a4.73,4.73,0,0,0,4.687-4c.08-.546.177-1.043.257-1.525a33.475,33.475,0,0,0,.626-6.822v-7.319a21.772,21.772,0,0,0-1.734-7.319H175.807c-3.965,0-7.881,3.339-10.482,6.132A45.1,45.1,0,0,0,160.622,586.637Z" transform="translate(-159.9 -573.7)" fill="#fff"/>
      <path id="Path_612" data-name="Path 612" d="M200.206,597.4h-23.5a.385.385,0,0,1-.321-.193.379.379,0,0,1,.016-.369,44.794,44.794,0,0,1,3.756-4.687c3.435-3.692,6.709-5.65,9.438-5.65h9.39a.362.362,0,0,1,.337.241,17.883,17.883,0,0,1,1.22,5.73v4.559A.338.338,0,0,1,200.206,597.4Zm-22.809-.722h22.44v-4.205a17.106,17.106,0,0,0-1.091-5.249H189.6c-2.536,0-5.618,1.878-8.925,5.409A47.292,47.292,0,0,0,177.4,596.677Z" transform="translate(-173.706 -584.445)" fill="#fff"/>
      <path id="Path_615" data-name="Path 615" d="M294.925,666.85h-3.9a1.525,1.525,0,1,1,0-3.05h3.9a1.525,1.525,0,1,1,0,3.05Zm-3.9-2.344a.819.819,0,1,0,0,1.637h3.9a.819.819,0,1,0,0-1.637Z" transform="translate(-268.697 -649.338)" fill="#fff"/>
    </g>
  </g>
</svg>
