<svg xmlns="http://www.w3.org/2000/svg" width="240" height="60.031" viewBox="0 0 240 60.031">
  <g id="logo" transform="translate(-43.736 -49.613)">
    <g id="text" transform="translate(84.61 63.947)">
      <path id="Path_972" data-name="Path 972" d="M107.848,76.57l199.126-.019v31.306l-199.078.026Z" transform="translate(-107.848 -76.55)" fill="#e42e0e" fill-rule="evenodd"/>
      <path id="Path_973" data-name="Path 973" d="M153.7,79.548l.042,27.349,27.74,0h0s.128-16.733.516-18.036-2.326-4.393,8.141-5.463,130.213-3.864,130.213-3.864Z" transform="translate(-123.186 -77.547)" fill="#ed7573" fill-rule="evenodd"/>
      <path id="Path_974" data-name="Path 974" d="M306.253,98.4v2.575l6.878.023V98.42Zm-83.265-.278v6.864l6.879.023V98.142Zm-41.654-.139v6.864l6.879.023V98Zm118.386-7.034,20.827.069v21.493h-7.415v-4.085l-6.878-.023v4.109h-7.415V97.163l-6.265,6.241v9.109l-35.346,0V105.38l-13.413-.045v7.147l-69.895-.234V97.955l-6.266-.021v14.294l-7.414-.025V97.909l-7.146-.023v-7.43l118.082.395v14.293l6.88.023v-2.858l6.217.021-6.26-6.277V90.873l5.159.017,5.614,5.633,5.609-5.6Z" transform="translate(-122.984 -81.202)" fill="#0f0b08" fill-rule="evenodd" opacity="0.22"/>
      <path id="Path_975" data-name="Path 975" d="M306.254,92.021V94.6l6.879-.02V92Zm-83.266.242v6.863l6.879-.02V92.243Zm-41.654.12v6.863l6.879-.019V92.363Zm118.385-7.773,20.828-.061v21.722l-7.414.022v-4.288l-6.879.02v4.288l-7.414.021v-15.5l-6.267,6.28v9.241l-35.345.1V99.309l-13.413.039V106.5l-69.895.2V92.4l-6.266.018v14.294l-7.414.021V92.444l-7.147.021v-7.43l118.083-.342V98.986l6.879-.02V96.108l6.218-.018-6.261-6.238V84.673l5.159-.015,5.614,5.6,5.611-5.631Z" transform="translate(-122.984 -79.227)" fill="#0f0b08" fill-rule="evenodd"/>
      <path id="Path_976" data-name="Path 976" d="M305.832,88.051v4.288l8.575-.025V88.026Zm-5.718-5.7,20.011-.058V102.3l-5.718.017V98.031l-8.575.025v4.288l-5.718.017Zm-10.822,5.993,5.956-5.979,4.049-.012V86.4l-7.146,7.162v8.82l-5.717.017v-8.82l-7.147-7.121V82.411l4.044-.011Zm-24.256-5.891,5.717-.016V96.729l8.576-.025V93.846l5.717-.017V102.4l-20.01.058ZM258.5,85.887V82.471l5.716-.017v3.428Zm5.716,16.577-5.716.017V87.41l5.716,0Zm-6.534-19.991v5.717l-14.293.041v1.429l14.293-.041v5.716l-14.293.042v7.146l-5.718.017V82.531Zm-35.12,5.819v8.576l8.577-.025V88.268Zm-5.717-5.7,20.011-.058v20.01l-20.011.059ZM201.74,88.353v14.293l-5.717.017V82.652l20.01-.058V102.6l-5.717.017V88.328l-1.43,0v14.293l-5.716.016V88.349Zm-20.827.061v8.576l8.576-.025V88.389Zm-5.717-5.7,20.01-.058v20.01l-20.01.058Zm-7.963,5.74v14.293l-5.717.016V88.47l-7.146.021V82.773l20.009-.058v5.717Z" transform="translate(-123.411 -78.471)" fill="#fff"/>
    </g>
    <g id="wheel" transform="translate(43.736 49.613)">
      <path id="Path_977" data-name="Path 977" d="M83.975,105.582q-.726.58-1.5,1.09a20.154,20.154,0,0,1-14.835,2.814,23.57,23.57,0,0,1-5.27-1.647A27.23,27.23,0,0,1,50.441,97.227a27.651,27.651,0,0,1-4.168-15.786,23.15,23.15,0,0,1,2.788-10.092,20.108,20.108,0,0,1,6.575-7.134,19.367,19.367,0,0,1,2.205-1.246A22.4,22.4,0,0,1,65.209,53.9a22.827,22.827,0,0,1,17.633-3.647C97.553,53,108.551,67.615,108.149,82.395c-.205,7.538-3.384,14.7-9.607,19.152a22.387,22.387,0,0,1-14.568,4.036" transform="translate(-46.242 -49.826)" fill="#0f0b08" fill-rule="evenodd"/>
      <path id="Path_978" data-name="Path 978" d="M61.722,77.478l-9.681,26.515a36.416,36.416,0,0,1-2.6-14.268c.188-8.04,8.74-15.114,11.094-15.644s1.182,3.4,1.182,3.4" transform="translate(-47.536 -59.628)" fill="#c8c9ca" fill-rule="evenodd"/>
      <path id="Path_979" data-name="Path 979" d="M69.639,137.324c-1.281-.886-8.747-5.06-8.719-4.861s3.78,8.322,14.672,8.818c.282.013.223.313.455.339a13.092,13.092,0,0,0,2.593.071c.55-.043,1.112-.053,1.617-.127,6.834-1,9.66-4.831,9.66-4.831l-14.928-2.059Z" transform="translate(-52.185 -83.286)" fill="#0f0b08" fill-rule="evenodd"/>
      <path id="Path_980" data-name="Path 980" d="M59.63,128.074a51.569,51.569,0,0,0-4.043-4.94s1.68,5.464,5.239,8.486a25.716,25.716,0,0,0,8.1,4.4,34.785,34.785,0,0,1-3.751-1.736,10.649,10.649,0,0,1-1.976-1.388,35.653,35.653,0,0,0,5.6,2.553,23.541,23.541,0,0,0,10.061.957c2.449-.343,6.012-1.923,6.905-2.836s-26.135-5.493-26.135-5.493" transform="translate(-50.026 -79.511)" fill="#605f5f" fill-rule="evenodd"/>
      <path id="Path_981" data-name="Path 981" d="M59.65,74.767a18.841,18.841,0,0,0-5.9,5,20.687,20.687,0,0,0-3.924,9.714,25.292,25.292,0,0,0,.331,7.377,15.663,15.663,0,0,0,.9,3.384,43.8,43.8,0,0,1-.825-6.692,21.491,21.491,0,0,1,.536-5.77,30.861,30.861,0,0,0-.125,6.8,14.962,14.962,0,0,0,1.062,4.275S67.776,115.006,72.2,115.355,63.747,113,60.269,109.9a37.145,37.145,0,0,0-6.082-4.541,20.811,20.811,0,0,0,3.479,4.963,29.677,29.677,0,0,0,5.5,4.067,21.094,21.094,0,0,1-6.483-4.7,21.01,21.01,0,0,0,5,4.34,25.091,25.091,0,0,0,5.151,2.308,22.326,22.326,0,0,0,4.179.946,20.216,20.216,0,0,0,3.492.03,19.243,19.243,0,0,0,4.139-.815,25.065,25.065,0,0,0,5.091-2.264,16.948,16.948,0,0,1-2.822,2.018,23.511,23.511,0,0,1-4.737,1.557,29.46,29.46,0,0,1-2.962.252c-.749.026-1.253-.027-1.507-.013a17.262,17.262,0,0,1-3.887-.525,29,29,0,0,1-5.579-2.3,25.2,25.2,0,0,1-5.459-4.068,24.4,24.4,0,0,1-7.393-13.667,30.44,30.44,0,0,1-.418-6.616,25.3,25.3,0,0,1,1.128-5.533,32.288,32.288,0,0,1,1.61-3.722c1.568-3.2,6.894-7.347,8.539-7.494s-.593.655-.593.655" transform="translate(-47.319 -59.653)" fill="#605f5f" fill-rule="evenodd"/>
      <path id="Path_982" data-name="Path 982" d="M60.122,75.88A16.714,16.714,0,0,0,54.6,81.009a20.078,20.078,0,0,0-3,6.864,12.3,12.3,0,0,0-.606,3.254s-.4-1.522,1.076-5.9a17.795,17.795,0,0,1,8.487-10.083c4.208-2.238-.283.827-.283.827Z" transform="translate(-48.146 -59.749)" fill="#605f5f" fill-rule="evenodd"/>
      <path id="Path_983" data-name="Path 983" d="M63.081,81.567l-.868-2.536s-3.672,3.025-5.371,11,5.05,19.931,8.472,22.64,13.2,5.4,16.992,4.243,4.341-2.435,4.341-2.435l-8.214-1.608s-12.146-6.58-13.094-7.749S61.669,85.66,61.8,85.662s1.284-4.1,1.284-4.1" transform="translate(-50.425 -61.652)" fill="#605f5f" fill-rule="evenodd"/>
      <path id="Path_984" data-name="Path 984" d="M82.746,114.607l.127.35s-3.721,2.045-10.82.183a21.063,21.063,0,0,1-14.731-12.907c-2.574-6.457-2.7-10.279-1.9-14.359s3.176-7.886,4.788-9.25l-.144-.125a13.682,13.682,0,0,0-3.272,4.559,18.253,18.253,0,0,0-1.332,3.388,3.049,3.049,0,0,1,.068-1,7.484,7.484,0,0,1,.5-1.677,11.329,11.329,0,0,0-.84,1.732,17.368,17.368,0,0,0-.641,1.823s-.115-.194.192-1.378a9.253,9.253,0,0,1,.625-1.793,8.892,8.892,0,0,0-.947,1.96,13.415,13.415,0,0,0-.541,1.745,7.805,7.805,0,0,1,.6-2.315,14.557,14.557,0,0,1,2.9-4.834,18.324,18.324,0,0,1,2.837-2.726l.067-.228a19.021,19.021,0,0,0-5.911,7.282A25.2,25.2,0,0,0,52.574,90.9a22.78,22.78,0,0,0-.018,7.085,24.713,24.713,0,0,1,.048-8.256,19.717,19.717,0,0,1,3.413-8.071,15.954,15.954,0,0,0-2.879,4.74,21.663,21.663,0,0,0-1.382,9.388c.2,2.411.52,6.248,4.184,12.065a22.441,22.441,0,0,0,17.376,10.055c6.889.382,11.378-2.979,11.4-3.143s-1.967-.162-1.967-.162" transform="translate(-48.451 -61.134)" fill="#0f0b08" fill-rule="evenodd"/>
      <path id="Path_985" data-name="Path 985" d="M62.31,83.745a24.447,24.447,0,0,0-2.212,7.4,24.823,24.823,0,0,0,.043,5.792,14.74,14.74,0,0,1-.289-7.952,18.875,18.875,0,0,1,2.865-6.8s-1.757,1.55-3.056,6.207-1.529,11.455,3.263,19.209,15.844,11.449,22.762,9.187c1.854-.606,1.557-2.391.133-4.678a14,14,0,0,1-5-.828c-.957-.479-.563-1.246-.145-1.873.293-.439.706-1.061,1.1-1.728l.23-.367c-1.5-1.623-3.176-3.273-4.8-4.8-.458,2.057-1.155,4.917-1.275,5.187a.85.85,0,0,1-1.129.5c-.582-.237-2.77-1.811-5.388-5.6a22.547,22.547,0,0,1-3.745-10.02c-.017-1.531.555-1.472.874-1.391a2.511,2.511,0,0,1,.485.205l-3.4-5.871-1.328,1.147a19.432,19.432,0,0,0-.2,3.4l.073,1.7a5.265,5.265,0,0,1-.784-3.21A9.992,9.992,0,0,1,62.4,84.53Z" transform="translate(-51.351 -62.926)" fill="#0f0b08" fill-rule="evenodd"/>
      <path id="Path_986" data-name="Path 986" d="M89.751,105.4a20.118,20.118,0,0,1-.983,2.043,18.374,18.374,0,0,1-19.9,9.235,22.148,22.148,0,0,1-4.951-1.548,25.817,25.817,0,0,1-11.29-10.057,26.183,26.183,0,0,1-3.957-14.966,21.727,21.727,0,0,1,2.612-9.47,18.682,18.682,0,0,1,6.107-6.63,18.444,18.444,0,0,1,12.089-2.85c-.16.089-.32.181-.477.276-10.68-.853-19.444,7.118-20.012,18.689-.606,12.33,8.32,24.078,19.937,26.242a18.106,18.106,0,0,0,20.362-10.7c.164-.09.318-.178.461-.264m1.592-10.435a24.613,24.613,0,0,1,.037,3.008,23.254,23.254,0,0,1-.521,3.9c-.084-.079-.176-.161-.274-.246a22.928,22.928,0,0,0,.477-3.672,24.435,24.435,0,0,0-.075-3.445Zm-5.936-14.8a27.272,27.272,0,0,1,3.439,5.455l-.273.17a27.029,27.029,0,0,0-3.51-5.541ZM73.831,72.072a22.455,22.455,0,0,1,2.3.878,23.455,23.455,0,0,1,2.255,1.156l.074.415a22.785,22.785,0,0,0-4.671-2.128Z" transform="translate(-47.214 -58.422)" fill="#0f0b08" fill-rule="evenodd"/>
      <path id="Path_987" data-name="Path 987" d="M79.217,73.345s1.034-8.392,1.224-9.915c.1-.844-.494-1.226-1.266-1.045a15.011,15.011,0,0,0-10.121,9.272,9.259,9.259,0,0,0-.509,1.75,1.517,1.517,0,0,0,1.121,1.4c.706.207,4.066.994,5.954,1.573s2.091.594,2.486.442.712-.58.85-1.493.261-1.98.261-1.98m-9.489,6.249s8.363,4.924,9.416,5.875,1.032,1.876.677,3.666-1.415,6.21-1.565,6.549a.85.85,0,0,1-1.129.5c-.582-.237-2.77-1.811-5.388-5.6a22.547,22.547,0,0,1-3.745-10.02c-.017-1.53.555-1.472.874-1.391A4.272,4.272,0,0,1,69.727,79.594ZM84.1,95.662s2.3-3.672,3.126-4.964.98-1.673,1.813-1.626,2.74,1.05,5.072,2.779,3.694,2.76,3.919,3.406-.114,1.188-.732,1.849a14.547,14.547,0,0,1-6.986,2.864,15.8,15.8,0,0,1-7.162-.708c-.957-.479-.563-1.246-.145-1.873C83.3,96.951,83.712,96.328,84.1,95.662ZM93.687,82.6s2.095,2.31,3.513,4.085,2.747,3.554,3.112,4.032.632.894,1.06,1.028.829-.687,1.2-1.73a22.6,22.6,0,0,0,1.022-8.1,18.427,18.427,0,0,0-1.641-6.6,1.142,1.142,0,0,0-.86-.538,1.57,1.57,0,0,0-.783.264c-.38.188-5.592,3.436-6.252,3.853a2.677,2.677,0,0,0-1.35,1.454C92.544,80.974,92.721,81.417,93.687,82.6Zm-6-20.211a22.312,22.312,0,0,1,6.611,3.033A22.073,22.073,0,0,1,98.9,69.889c.292.441.375,1-.228,1.225-.475.181-3.57.749-5.312,1.179s-5.46,1.335-5.838,1.395a1.39,1.39,0,0,1-1.619-.755,16.681,16.681,0,0,1-.591-3.542c-.164-1.325-.825-4.847-.988-5.644s-.066-1.792.624-1.847A14.222,14.222,0,0,1,87.682,62.389Zm2.335-9.464c13.632,2.539,24.369,16.19,23.98,30.491s-11.756,23.835-25.389,21.3S64.239,88.522,64.628,74.221,76.384,50.386,90.017,52.924Z" transform="translate(-53.683 -50.915)" fill="#c8c9ca" fill-rule="evenodd"/>
      <path id="Path_988" data-name="Path 988" d="M68.417,69a21.658,21.658,0,0,1,2.239-4.032,14.4,14.4,0,0,1,3.506-3.087,15.806,15.806,0,0,0-2.706,3.057,20.178,20.178,0,0,0-2.234,3.77s.528-.927,1.266-1.987a12.432,12.432,0,0,1,1.228-1.552,22.507,22.507,0,0,0-3.053,6.369,33.381,33.381,0,0,0-.965,5.065l-.042.456a13.247,13.247,0,0,1,.224-2.882,34.019,34.019,0,0,1,1.066-4.49,14.859,14.859,0,0,0-1.017,2.082,19.477,19.477,0,0,0-.94,3.268A16.92,16.92,0,0,1,68.417,69" transform="translate(-54.634 -54.708)" fill="#fff" fill-rule="evenodd"/>
      <path id="Path_989" data-name="Path 989" d="M67.939,66.653l1.067-1.166s-.546.921-.984,1.767-.63,1.3-.63,1.3S68.53,66.724,69.53,65.3a11.677,11.677,0,0,1,1.729-2.041,51.6,51.6,0,0,0-3,4.619A23.086,23.086,0,0,0,66.489,72.3s-1.214,4.953-.941,7.658l.273,2.705s4.021,11.085,6.451,14.84,1,1.543.854,1.67.427.727,1.464,1.761,2.27,2.108,2.27,2.108l1.823.823s8.024,5.173,16.633,4.489a17.831,17.831,0,0,0,13.019-6.823,20.707,20.707,0,0,0,3.94-9.16c.748-4.932.744-5.638.744-5.638a32.71,32.71,0,0,1-.086,4.422,17.185,17.185,0,0,1-.981,4.457,31.551,31.551,0,0,0,1.475-5.487c.386-2.6.389-3.089.389-3.089a23.975,23.975,0,0,1-.619,6.412,20.872,20.872,0,0,1-8.1,12.2,20.526,20.526,0,0,1-13.026,3.779,27.246,27.246,0,0,1-16.216-6.612,33.733,33.733,0,0,1-9.3-13.233,32.422,32.422,0,0,1-1.972-9.344,30.507,30.507,0,0,1,3.349-13.579" transform="translate(-53.671 -55.266)" fill="#fff" fill-rule="evenodd"/>
      <path id="Path_990" data-name="Path 990" d="M86.092,97.875s2.3-3.672,3.126-4.964.98-1.673,1.813-1.626,2.74,1.05,5.072,2.779,3.694,2.76,3.919,3.406-.114,1.188-.733,1.849a14.547,14.547,0,0,1-6.986,2.864,15.8,15.8,0,0,1-7.162-.708c-.957-.479-.563-1.246-.145-1.873.293-.439.706-1.061,1.1-1.727m9.586-13.062s2.095,2.31,3.513,4.085,2.747,3.554,3.112,4.032.632.894,1.06,1.028.829-.687,1.2-1.73a22.6,22.6,0,0,0,1.022-8.1,18.426,18.426,0,0,0-1.641-6.6,1.142,1.142,0,0,0-.86-.538,1.57,1.57,0,0,0-.783.264c-.38.188-5.592,3.436-6.252,3.853a2.677,2.677,0,0,0-1.35,1.454C94.534,83.187,94.711,83.629,95.678,84.813ZM94.192,58.8s10.1,3.728,15.011,12.854,3.879,18.192,2.844,21.117-5.558,10.821-13.009,11.9-17.473-1.686-20.2-5.91c-.146-.226-.3-.505-.467-.826a3.963,3.963,0,0,0,.744.461.85.85,0,0,0,1.129-.5c.15-.339,1.211-4.76,1.565-6.549s.376-2.714-.677-3.666c-.807-.73-5.913-3.795-8.25-5.184-.652-2.124-1.242-4.112-1.711-5.718a1.634,1.634,0,0,0,.484.236c.706.207,4.066.994,5.954,1.573s2.091.594,2.486.442.712-.58.85-1.493.261-1.98.261-1.98,1.034-8.392,1.224-9.915c.1-.844-.494-1.226-1.266-1.045a15.011,15.011,0,0,0-10.121,9.272s-.233.6-.385,1.141c-.373-1.3-.592-2.079-.592-2.079a19.165,19.165,0,0,1,1.519-4.971,10.667,10.667,0,0,0-1.4,2.3l-.655,1.432a15.53,15.53,0,0,1,1.49-4.621c1.312-2.778,5.644-8.389,12.5-8.813S90.2,57.806,94.192,58.8Zm-4.52,5.8a22.312,22.312,0,0,1,6.611,3.033,22.074,22.074,0,0,1,4.606,4.467c.292.441.375,1-.228,1.225-.475.181-3.57.749-5.312,1.179s-5.46,1.335-5.838,1.395a1.39,1.39,0,0,1-1.619-.755,16.683,16.683,0,0,1-.591-3.542c-.164-1.325-.825-4.847-.988-5.644s-.066-1.792.624-1.847A14.223,14.223,0,0,1,89.673,64.6Z" transform="translate(-55.673 -53.128)" fill="#c8c9ca" fill-rule="evenodd"/>
      <path id="Path_991" data-name="Path 991" d="M108.164,61.245A26.1,26.1,0,0,1,115.7,65.3a25.682,25.682,0,0,1,6.794,8.128c.655,1.352.94,2.139.94,2.139a31.72,31.72,0,0,0-2.705-4.475,37.57,37.57,0,0,0-3.542-4.155,37.991,37.991,0,0,1,3.412,4.39,21.837,21.837,0,0,1,2.252,4.363s-4.161-6.4-8.921-9.92a24.838,24.838,0,0,0-8.39-4.323,19.838,19.838,0,0,1,5.063,1.567,33.348,33.348,0,0,1,3.654,1.932,28.132,28.132,0,0,0-6.087-3.7" transform="translate(-70.252 -54.45)" fill="#fff" fill-rule="evenodd"/>
      <path id="Path_992" data-name="Path 992" d="M108.91,62.921l-.136-.587a27.778,27.778,0,0,0-13.611-8.1c-8.436-1.981-14.021,1.015-16.137,2.411a23.947,23.947,0,0,0-3.876,3.314s.457-.368,1.784-1.351a8.335,8.335,0,0,1,2.442-1.294,11.731,11.731,0,0,0-1.385,1.3l-.6.686a20.52,20.52,0,0,1,4.494-2.706c2.905-1.333,9.261-1.509,11.7-1.054s16.4,9.248,16.4,9.248Z" transform="translate(-57.948 -51.344)" fill="#605f5f" fill-rule="evenodd"/>
      <path id="Path_993" data-name="Path 993" d="M69.5,68.424s-2.673,3-3.745,10.611,2.751,15.7,4.613,18.339a30.367,30.367,0,0,0,4.622,5.651,8.181,8.181,0,0,1-.714-1.492c-.41-1.047.4-.167.4-.167a3.127,3.127,0,0,0-.765-1.56,23.481,23.481,0,0,1-5.089-8.652C66.552,84,66.5,80.793,67.151,77.073a17.57,17.57,0,0,1,1.228-4.735,24.318,24.318,0,0,0-1.98,6.925,21.407,21.407,0,0,0-.262,3.49S65.686,74.7,69.5,68.424" transform="translate(-54.066 -57.357)" fill="#605f5f" fill-rule="evenodd"/>
      <path id="Path_994" data-name="Path 994" d="M81.385,113.952a28.043,28.043,0,0,0,12.249,6.424,24.022,24.022,0,0,0,10.086-.042,20.474,20.474,0,0,0,8.74-4.868,26.4,26.4,0,0,1-4.8,2.926,17.442,17.442,0,0,1-4.42,1.486,29.719,29.719,0,0,0,5.647-2.746,20.922,20.922,0,0,0,6.67-6.613,19.6,19.6,0,0,0,2.136-4.976,14.475,14.475,0,0,1-1.637,4.615,26.356,26.356,0,0,1-3,4.384,15.1,15.1,0,0,0,3.8-5.443,27.431,27.431,0,0,0,1.667-13.886c-.777-3.83-2.284-1.832-2.076-1.878s-.2,9.028-.317,10.775-1.786,5.345-2.929,7.1-4.514,5.342-7.1,6.479a23.216,23.216,0,0,1-6.171,1.219,26.633,26.633,0,0,1-4.875.048c-.893-.188-11.758-4.995-12.22-5.3s-4.037-3.77-4.037-3.77,2.229,2.7,3.19,3.677,1.339,1.156,1.308,1.322-.834-.155-1.919-.94" transform="translate(-59.428 -67.25)" fill="#605f5f" fill-rule="evenodd"/>
      <path id="Path_995" data-name="Path 995" d="M81.726,97.206a27.6,27.6,0,0,0,10.9,6.363c6.8,2.086,11.079.531,14.823-1.145a20.513,20.513,0,0,0,8.536-8.294A23.362,23.362,0,0,0,118.042,80.2a.54.54,0,0,1,.352-.5c.36-.137.627,1.034.79,2.424a13.226,13.226,0,0,1,.117,2.093,29.736,29.736,0,0,0-1.124-8.334c-1.21-3.7-3.543-9.527-8.743-14.123a29.42,29.42,0,0,0-10.058-6.016,37.346,37.346,0,0,1,7.45,4.494A28.06,28.06,0,0,1,111.1,64.3a36.05,36.05,0,0,0-9.923-7.005,21.212,21.212,0,0,0-9.059-1.967c-3.4.079-8.443,1.146-11.214,3.723s1.936-1.864,7.968-2.515,11.9,1.785,14.828,3.581,8.912,8.112,11.629,15.308a27.467,27.467,0,0,1,1.223,14.06s-1.364,3.781-2.065,5.105.411-1.2.384-1.641-.682.995-2,2.993a20.759,20.759,0,0,1-2.982,3.5,14.749,14.749,0,0,0,1.971-1.834,19.045,19.045,0,0,0,1.31-1.714s-1.266,2.111-1.877,2.9a17.484,17.484,0,0,1-4.624,3.508,21.968,21.968,0,0,1-3.351,1.29,11.856,11.856,0,0,0,3.741-1.994c2.342-1.679,2.349-1.721,2.349-1.721a27.836,27.836,0,0,1-7.148,3.5c-3.215.8-8.506-.09-8.506-.09Z" transform="translate(-59.947 -52.053)" fill="#fff" fill-rule="evenodd"/>
      <path id="Path_996" data-name="Path 996" d="M80.616,76.694S81.651,68.3,81.84,66.78c.1-.845-.494-1.227-1.266-1.046a15.011,15.011,0,0,0-10.121,9.272,9.262,9.262,0,0,0-.509,1.75,1.517,1.517,0,0,0,1.121,1.4c.706.207,4.066.994,5.955,1.573s2.09.594,2.486.442.712-.58.85-1.493.261-1.98.261-1.98m-9.489,6.249s8.363,4.924,9.416,5.875,1.032,1.876.677,3.666-1.416,6.21-1.566,6.549a.85.85,0,0,1-1.128.5c-.583-.237-2.771-1.81-5.388-5.6a22.545,22.545,0,0,1-3.745-10.02c-.017-1.531.555-1.472.875-1.391A4.279,4.279,0,0,1,71.127,82.943ZM85.5,99.01s2.3-3.672,3.126-4.964.98-1.673,1.813-1.626,2.74,1.049,5.072,2.778,3.694,2.76,3.919,3.406-.114,1.188-.733,1.849a14.547,14.547,0,0,1-6.986,2.864,15.8,15.8,0,0,1-7.162-.708c-.957-.479-.563-1.246-.145-1.873C84.7,100.3,85.112,99.677,85.5,99.01Zm9.586-13.062s2.095,2.31,3.513,4.085,2.747,3.554,3.112,4.032.632.894,1.06,1.028.83-.687,1.2-1.73a22.6,22.6,0,0,0,1.022-8.1,18.426,18.426,0,0,0-1.641-6.6,1.142,1.142,0,0,0-.86-.538,1.57,1.57,0,0,0-.783.264c-.38.188-5.592,3.437-6.253,3.853A2.681,2.681,0,0,0,94.1,83.7C93.944,84.322,94.121,84.765,95.087,85.949Zm-6-20.211a22.312,22.312,0,0,1,6.611,3.033,22.074,22.074,0,0,1,4.606,4.467c.292.441.375,1-.228,1.225-.475.182-3.57.749-5.312,1.179s-5.46,1.336-5.838,1.395a1.39,1.39,0,0,1-1.619-.755,16.718,16.718,0,0,1-.592-3.542c-.163-1.325-.824-4.847-.988-5.644s-.065-1.792.625-1.847A14.224,14.224,0,0,1,89.082,65.738Zm.649-4.605a22.144,22.144,0,0,1,3.435.935C103.3,65.719,110.5,76.356,110.294,87.1c-.115,6.075-2.617,11.887-7.639,15.479a18.092,18.092,0,0,1-14.012,2.884,22.084,22.084,0,0,1-3.436-.935c-10.136-3.652-17.331-14.289-17.128-25.035.115-6.074,2.618-11.887,7.639-15.478A18.089,18.089,0,0,1,89.731,61.132Z" transform="translate(-55.082 -54.264)" fill="#c8c9ca" fill-rule="evenodd"/>
      <path id="Path_997" data-name="Path 997" d="M82.484,62.584a15.186,15.186,0,0,0-3.614,2.929,19.268,19.268,0,0,1,13.157-1.908c7.508,1.588,14.374,7.675,16.583,13.935s2.176,6.049,2.176,6.049-.458-6.513-3.737-10.848a30.976,30.976,0,0,0-6.829-6.666s7.009,4.2,9.908,11.34,2.626,9.154,2.626,9.154.1-14.9-10.081-21.35a52.294,52.294,0,0,0-6.58-3.618q-.984-.281-1.991-.469a18.491,18.491,0,0,0-11.618,1.451" transform="translate(-59.454 -54.264)" fill="#605f5f" fill-rule="evenodd"/>
      <path id="Path_998" data-name="Path 998" d="M87.171,126.836s3.368,3.238,9.853,3.41a18.894,18.894,0,0,0,11.429-3.953,13.55,13.55,0,0,1-7.416,3.9,17.094,17.094,0,0,0,4.336-.981,10.3,10.3,0,0,0,3.905-2.661s-3.372,3.968-8.033,4.546-12-1.744-14.075-4.261" transform="translate(-62.816 -80.791)" fill="#313131" fill-rule="evenodd"/>
      <path id="Path_999" data-name="Path 999" d="M128.875,100.071a24.113,24.113,0,0,1-.807,7.575,22.347,22.347,0,0,1-3.552,6.676c-.553.652-2.552,2.459-2.552,2.459s2.443-.948,5.145-4.566,3.087-9.4,3.1-11.53a19.063,19.063,0,0,0-.677-4.533,52.311,52.311,0,0,1,.116,5.809,25.973,25.973,0,0,1-.489,3.664,21.952,21.952,0,0,0-.281-5.555" transform="translate(-76.904 -68.586)" fill="#e0e1e0" fill-rule="evenodd"/>
      <path id="Path_1000" data-name="Path 1000" d="M111.012,106.329a3.118,3.118,0,0,1,.958-2.275s3.9,4.58,5.3,6.374,1.423,2.309,1.423,2.309-2.8-3.32-3.786-3.806-1.951,1.32-2.008,1.633.76,1.451.76,1.451l-3.68-3.268Z" transform="translate(-72.051 -71.785)" fill="#b2b2b2" fill-rule="evenodd"/>
      <path id="Path_1001" data-name="Path 1001" d="M70.836,87.242a18.977,18.977,0,0,0-.447,2.082,16.442,16.442,0,0,0-.157,3.51s.2-.49,1.532-.054A32.642,32.642,0,0,1,75.4,94.421l5.736,3.614s-2.43-1.789-2.618-2.515a8.694,8.694,0,0,1,.452-3.239,1.8,1.8,0,0,1,1.172-.641c.185.007-7.952-2.228-8.317-2.37-.139-.054-.178-.268-.174-.514A1.476,1.476,0,0,1,70.8,87.47a1.8,1.8,0,0,1,.032-.228" transform="translate(-55.944 -64.977)" fill="#c8c9ca" fill-rule="evenodd"/>
      <path id="Path_1002" data-name="Path 1002" d="M91.746,70.37a.737.737,0,0,0,.108,0c.681-.067,1.991.2,2.2-.237.183-.38.132-.784.431-1.095a2.849,2.849,0,0,0-.038,1.061c.115,1.022.877,5.021,1.2,6.683a.547.547,0,0,0-.244-.2c-.251-.047-3.3.314-3.859.791a6.122,6.122,0,0,0-.6.627c.356-2.288.7-6.312.805-7.623" transform="translate(-64.343 -57.604)" fill="#fff" fill-rule="evenodd"/>
      <path id="Path_1003" data-name="Path 1003" d="M95.736,110.295c-.348-.171-2.03-.951-2.03-.951a.8.8,0,0,0,.058,1.038,1.192,1.192,0,0,0,1.354.436c.167-.089.376-.227.376-.227l-.522-.032.612.274a1.677,1.677,0,0,0,.835.528c.393.03.342-.386.256-.505a6.815,6.815,0,0,0-.94-.562" transform="translate(-65.399 -73.927)" fill="#313131" fill-rule="evenodd"/>
      <path id="Path_1004" data-name="Path 1004" d="M88.085,99.41a2.93,2.93,0,0,1-.357-.852.715.715,0,0,1-.454.174c-.246-.014-.306,1.41.276,1.648s.7.157.882.352-.347-1.323-.347-1.323" transform="translate(-62.785 -69.56)" fill="#313131" fill-rule="evenodd"/>
      <path id="Path_1005" data-name="Path 1005" d="M99.691,93.964a44.168,44.168,0,0,1,.846,4.731c-.067.611-1.847,4.142-2.316,4.227a9.453,9.453,0,0,1-4.476-.023c-1.591-.613-4.386-3.736-4.276-5.942A9.77,9.77,0,0,1,90.52,93.07s3-1.82,5.066-1.292a13.456,13.456,0,0,1,4.059,2.036Z" transform="translate(-63.745 -66.775)" fill="#959696" fill-rule="evenodd"/>
      <path id="Path_1006" data-name="Path 1006" d="M98.834,93.874l-2.272,1.269,1.6,1.674.081-.564a12.934,12.934,0,0,0,2.273-.785c-.071-.133,1.035,4.093,1.035,4.093l-2.882,1.169-2.414,1.657s.145.539,2.533-.594a5.5,5.5,0,0,0,3.035-3.883c.2-.7-3.944-5.589-3.944-5.589a28.586,28.586,0,0,0-4.137-.382,10.043,10.043,0,0,0-2.3,1.8l2.112-.751a11.77,11.77,0,0,1,3.032-1.162c.7.045,2.513.3,2.574.781a3.6,3.6,0,0,1-.33,1.272" transform="translate(-64.547 -66.831)" fill="#313131" fill-rule="evenodd"/>
      <path id="Path_1007" data-name="Path 1007" d="M94.773,95.79a3.524,3.524,0,0,1,4.168,2.424,3.2,3.2,0,0,1-1.783,4.278,3.525,3.525,0,0,1-4.17-2.424,3.2,3.2,0,0,1,1.784-4.278" transform="translate(-65.078 -68.387)" fill="#c8c9ca" fill-rule="evenodd"/>
      <path id="Path_1008" data-name="Path 1008" d="M95.923,95.671a2.918,2.918,0,0,0-2.327.851,3.728,3.728,0,0,0-.79,1.732,2.275,2.275,0,0,0,.152,1.14,5.421,5.421,0,0,1,.175-1.572,2.663,2.663,0,0,1,.73-1.113c.243-.252.483-.453.483-.453a3.476,3.476,0,0,0-.735.794,4.224,4.224,0,0,0-.235.6,3.279,3.279,0,0,1,1.461-1.319,3.069,3.069,0,0,1,1.358-.194,1.5,1.5,0,0,0-.875-.169,3.721,3.721,0,0,0-.916.251,3.093,3.093,0,0,1,1.52-.552" transform="translate(-65.085 -68.388)" fill="#e0e1e0" fill-rule="evenodd"/>
      <path id="Path_1009" data-name="Path 1009" d="M102.027,101.162a2.862,2.862,0,0,0-.221-.659,5.611,5.611,0,0,1,.06,1.12l-.038.521a3.183,3.183,0,0,0-.131-.968,3.708,3.708,0,0,1-.459,1.563,2.6,2.6,0,0,1-1.462,1.2,1.336,1.336,0,0,0,.988-.35,2.168,2.168,0,0,0,.722-.9,3.906,3.906,0,0,1-.664,1.113,2.374,2.374,0,0,1-.839.621,3.243,3.243,0,0,0,1.544-1.132,4.043,4.043,0,0,0,.5-2.135" transform="translate(-67.92 -70.347)" fill="#e0e1e0" fill-rule="evenodd"/>
      <path id="Path_1010" data-name="Path 1010" d="M95.109,96.259a2.406,2.406,0,0,0-.979.587,3.091,3.091,0,0,0-.608,3.24,3.336,3.336,0,0,0,2.912,2.289,2.5,2.5,0,0,0,.818-.112,2.411,2.411,0,0,0,.979-.587,3.091,3.091,0,0,0,.608-3.239,3.335,3.335,0,0,0-2.912-2.289,2.509,2.509,0,0,0-.818.112m-.055-.081A3.235,3.235,0,0,1,98.882,98.4a2.939,2.939,0,0,1-1.637,3.927,3.236,3.236,0,0,1-3.828-2.225A2.94,2.94,0,0,1,95.054,96.178Z" transform="translate(-65.259 -68.548)" fill="#313131" fill-rule="evenodd"/>
      <path id="Path_1011" data-name="Path 1011" d="M94.775,95.828a2.6,2.6,0,0,0-1.055.632,3.356,3.356,0,0,0-.656,3.516,3.63,3.63,0,0,0,3.164,2.492,2.7,2.7,0,0,0,.882-.121,2.6,2.6,0,0,0,1.055-.631,3.357,3.357,0,0,0,.655-3.517,3.628,3.628,0,0,0-3.164-2.491,2.713,2.713,0,0,0-.881.12m-.086-.18a3.612,3.612,0,0,1,4.273,2.484,3.281,3.281,0,0,1-1.828,4.384,3.611,3.611,0,0,1-4.272-2.484A3.28,3.28,0,0,1,94.689,95.648Z" transform="translate(-65.023 -68.328)" fill="#313131" fill-rule="evenodd"/>
      <path id="Path_1012" data-name="Path 1012" d="M94.671,89.284a5,5,0,0,1,3.622,1.4,8.574,8.574,0,0,1,2.65,4,9.818,9.818,0,0,1,.227,3.667,5.422,5.422,0,0,1-2.181,3.489c-.828.5-3.425,1.434-5.15.39s-1.463-.456-3.15-2.465S89.146,94.6,89.2,93.855s1.16-3.04,1.592-3.193,0,1.7,0,1.7a6.832,6.832,0,0,0-.929,2.22,10.52,10.52,0,0,0,.042,2.706,6.466,6.466,0,0,0,2.323,3.53,4.168,4.168,0,0,0,4.207.922,4.981,4.981,0,0,0,1.727-1.079,3.912,3.912,0,0,0,1.274-3.128,15.386,15.386,0,0,0-.535-4.289s-3.035-2.214-4.94-2.2.707-1.757.707-1.757" transform="translate(-63.625 -65.8)" fill="#616262" fill-rule="evenodd"/>
      <path id="Path_1013" data-name="Path 1013" d="M103.693,94.187s-1.186-.7-1.115-.656-1.159-1.1-1.159-1.1.768.356.965.458.7-.355.91-.543-.172-.791-.7-1.195a6.574,6.574,0,0,1,1.805,1.47,9.5,9.5,0,0,1,1.467,2.643,9.15,9.15,0,0,1,.315,2.54c-.079,0-.176-.734-.276-.721a4.479,4.479,0,0,0-1.128,1.074,6.747,6.747,0,0,1-.346.583,23.588,23.588,0,0,0-.384-3.15,10.707,10.707,0,0,1-.356-1.406" transform="translate(-68.586 -66.53)" fill="#313131" fill-rule="evenodd"/>
      <path id="Path_1014" data-name="Path 1014" d="M99.655,89.591a7.308,7.308,0,0,1,3.841,2.361c1.623,1.939.228.046.228.046a11.187,11.187,0,0,0-2.591-2.195,10.667,10.667,0,0,0-1.689-.6,2.75,2.75,0,0,1,.212.389" transform="translate(-67.785 -65.771)" fill="#c8c9ca" fill-rule="evenodd"/>
      <path id="Path_1015" data-name="Path 1015" d="M91.013,90.991s-.666,1.031-.854,1.287.239-.355.5-.155.179.865.179.865a11.078,11.078,0,0,1,1.849-1.5c.335-.054.524-1.735.524-1.735a4.668,4.668,0,0,0-2.2,1.242" transform="translate(-64.007 -65.992)" fill="#313131" fill-rule="evenodd"/>
      <path id="Path_1016" data-name="Path 1016" d="M94.628,92.383a3.924,3.924,0,0,0-2.669.6,4.578,4.578,0,0,0-1.9,4.064,6.456,6.456,0,0,0,1.341,3.681,5.744,5.744,0,0,0,3.055,2.1,4.672,4.672,0,0,0,.6.114,3.923,3.923,0,0,0,2.669-.6,4.576,4.576,0,0,0,1.9-4.064A6.457,6.457,0,0,0,98.284,94.6a5.739,5.739,0,0,0-3.055-2.1,4.587,4.587,0,0,0-.6-.114m.123-.218a6.392,6.392,0,0,1,5.206,6.127c.1,3.047-2.061,5.243-4.834,4.906a6.393,6.393,0,0,1-5.206-6.127C89.814,94.024,91.979,91.827,94.751,92.165Z" transform="translate(-63.926 -66.957)" fill="#313131" fill-rule="evenodd"/>
      <path id="Path_1017" data-name="Path 1017" d="M94.811,89.263a4.89,4.89,0,0,0-3.328.746,5.7,5.7,0,0,0-2.365,5.062,8.039,8.039,0,0,0,1.669,4.581,7.147,7.147,0,0,0,3.8,2.62,5.818,5.818,0,0,0,.75.142,4.892,4.892,0,0,0,3.326-.746,5.7,5.7,0,0,0,2.367-5.062,8.035,8.035,0,0,0-1.67-4.581,7.142,7.142,0,0,0-3.8-2.62,5.711,5.711,0,0,0-.749-.142m.1-.264c3.443.419,6.337,3.826,6.465,7.609s-2.561,6.511-6,6.092-6.337-3.826-6.464-7.608S91.464,88.58,94.907,89Z" transform="translate(-63.515 -65.672)" fill="#313131" fill-rule="evenodd"/>
      <path id="Path_1018" data-name="Path 1018" d="M107.559,100.564a9.367,9.367,0,0,0,1.534,2.077c1.148,1.25,3.007,3.667,3.007,3.667a11.875,11.875,0,0,0-2-1.688c-.283.012-.978,1.544-1.488,2.312s-.362,1.249-.046,1.523,1.557,1.369,2.118,1.948l.561.58a33.186,33.186,0,0,0-4.13-2.971c-1.42-.717-1.965-.689-2.813-.308a3.874,3.874,0,0,0-1.434,1.33,3.95,3.95,0,0,1,1.554-1.739,4.549,4.549,0,0,0,2.37-2.856,8.691,8.691,0,0,0,.325-3.5,9.142,9.142,0,0,0,1.22,1.673,1.878,1.878,0,0,0,.578.258,6.881,6.881,0,0,1-1.362-2.3" transform="translate(-69.175 -70.372)" fill="#fff" fill-rule="evenodd"/>
      <path id="Path_1019" data-name="Path 1019" d="M97.952,74.543a21.205,21.205,0,0,0-.511-3.4c-.5-2.424-.467-2.464-.184-3.185s1.228-.727,2.643-.409a26.444,26.444,0,0,1,4.071,1.143,21.752,21.752,0,0,1,6.427,4.423c2.511,2.625,1.842,2.234,1.842,2.234a1.905,1.905,0,0,1,.517,1.377c-.111.713-1.914,1.068-1.914,1.068s1.293-.4,1.535-.944-.08-1.073-.479-1.6A19.991,19.991,0,0,0,107.363,71a21.971,21.971,0,0,0-8.015-3.251c-1.812-.24-1.937.52-1.958,1.225s.723,3.141.562,5.572" transform="translate(-66.817 -56.922)" fill="#e0e1e0" fill-rule="evenodd"/>
      <path id="Path_1020" data-name="Path 1020" d="M89.57,64.754a19.829,19.829,0,0,1,3.179.873c9.377,3.428,15.992,13.524,15.751,23.76-.137,5.786-2.485,11.335-7.157,14.78a15.909,15.909,0,0,1-3.389,1.912c.092-.068.2-.142.334-.224.806-.5,1.889-1.3,2.642-1.879l.141-.1q.376-.277.73-.572l.018-.014h0a18.431,18.431,0,0,0,6.269-13.921A25.109,25.109,0,0,0,94.859,66.944a20.943,20.943,0,0,0-2.293-1,19.574,19.574,0,0,0-3.123-.858,15.974,15.974,0,0,0-16.956,7.381h0a14.386,14.386,0,0,1,1.154-2.12A16.274,16.274,0,0,1,89.57,64.754" transform="translate(-56.868 -55.744)" fill="#313131" fill-rule="evenodd"/>
      <path id="Path_1021" data-name="Path 1021" d="M113.523,121.646s.953-.772,1.1-1.294a1.315,1.315,0,0,0-.452-1.454c-.243-.243-1.585-1.37-3-2.427-1.6-1.194-3.3-2.334-3.831-2.662a3.177,3.177,0,0,0-2.574-.548,1.619,1.619,0,0,0-.73.646,1.433,1.433,0,0,1,.817-.42,5.225,5.225,0,0,1,2.624,1.007,58.454,58.454,0,0,1,6.095,4.469c.621.563.721,1,.622,1.41a6.2,6.2,0,0,1-.674,1.272" transform="translate(-69.646 -75.471)" fill="#605f5f" fill-rule="evenodd"/>
      <path id="Path_1022" data-name="Path 1022" d="M70.381,77.908a18.555,18.555,0,0,1,3.767-6.441c2.493-2.493,3.172-2.668,3.172-2.668s-1.167,1.056-2.01,1.816a8.464,8.464,0,0,0-1.061,1.065,18.837,18.837,0,0,1,6.694-4.311,17.5,17.5,0,0,1,13.505,1.523,24.046,24.046,0,0,1,8.75,8.287,20.43,20.43,0,0,1,3.154,7.978,26.654,26.654,0,0,1,.365,5.118,16.224,16.224,0,0,1-2.832,8.891,13.43,13.43,0,0,1-.778,1.1,15.584,15.584,0,0,1-4.732,3.974,17.15,17.15,0,0,1-12.29,1.337s5.957,1.843,11.3-.442a15.438,15.438,0,0,0,5.758-4.176c3.908-4.565,4.615-9.055,3.974-14.718-.693-6.128-4.181-10.457-5.767-12.371a23.3,23.3,0,0,0-7.914-5.94,20.047,20.047,0,0,0-10.856-1.5,12.665,12.665,0,0,0-5.316,2.01,20.544,20.544,0,0,1,4.781-2.5,16.913,16.913,0,0,0-5.479,2.885,18.129,18.129,0,0,0-4.74,5.289,17,17,0,0,0-1.452,3.8" transform="translate(-56.017 -56.349)" fill="#000002" fill-rule="evenodd"/>
      <path id="Path_1023" data-name="Path 1023" d="M89.151,61.8c11.238,2.093,20.168,13.38,19.944,25.21s-9.517,19.724-20.756,17.632S68.171,91.258,68.4,79.427,77.912,59.7,89.151,61.8m.58-.662a22.055,22.055,0,0,1,3.435.934C103.3,65.719,110.5,76.356,110.294,87.1c-.115,6.075-2.617,11.887-7.639,15.479a18.092,18.092,0,0,1-14.012,2.884,22.058,22.058,0,0,1-3.435-.935C75.071,100.878,67.876,90.241,68.079,79.5c.115-6.074,2.618-11.887,7.639-15.478A18.089,18.089,0,0,1,89.731,61.133Z" transform="translate(-55.082 -54.264)" fill="#0f0b08" fill-rule="evenodd"/>
      <path id="Path_1024" data-name="Path 1024" d="M105.565,93.842a2.933,2.933,0,0,1-.363.205c-.029-.007-.207-.077-.207-.077s-1.191.518-1.313.594a3.094,3.094,0,0,0-.344,1.1,2.16,2.16,0,0,0,.741.954,1.444,1.444,0,0,0,.626.2c.07-.024.676-.408.906-.557a3.623,3.623,0,0,0,.481-.4s-.032-.146-.005-.174.374-.239.374-.239Z" transform="translate(-69.362 -67.65)" fill="#00213f" fill-rule="evenodd"/>
      <path id="Path_1025" data-name="Path 1025" d="M104.094,94.765a1.244,1.244,0,0,0-.281.439,4.612,4.612,0,0,0-.1.894c.015.035.7.691.7.691a.249.249,0,0,0,.213.045c.117-.035.9-.472.915-.469a1.687,1.687,0,0,1,.039.271s-.708.583-1.04.527a2.982,2.982,0,0,1-.767-.3s-.506-.477-.511-.848.085-1.122.832-1.248" transform="translate(-69.332 -68.024)" fill="#0060a4" fill-rule="evenodd"/>
      <path id="Path_1026" data-name="Path 1026" d="M105.194,98.157a1,1,0,0,0,.454-.123c.207-.123.259-.041.259-.041l.351-.261s.019.146.017.168-.5.431-.707.421a.655.655,0,0,1-.374-.164" transform="translate(-70.114 -69.225)" fill="#74c1ec" fill-rule="evenodd"/>
      <path id="Path_1027" data-name="Path 1027" d="M103.83,94.9a.358.358,0,0,1,.207.019.874.874,0,0,0-.189.319,5.029,5.029,0,0,0-.112.923c.017.052.646.671.666.707s-.051.055-.051.055-.657-.686-.668-.715-.107.007-.107.007a2.04,2.04,0,0,1,0-.687c.071-.3.114-.375.153-.409a.864.864,0,0,0,.1-.218" transform="translate(-69.447 -68.078)" fill="#74c1ec" fill-rule="evenodd"/>
      <path id="Path_1028" data-name="Path 1028" d="M105.939,94a.591.591,0,0,0-.314.109.516.516,0,0,0-.093.646l.117.138a.755.755,0,0,1,0-.409.465.465,0,0,1,.222-.237.987.987,0,0,0-.093.53A1.145,1.145,0,0,0,106,95.3a1.378,1.378,0,0,1-.136-.691.933.933,0,0,1,.155-.4c.026-.024.267-.139.267-.139l.032-.183Z" transform="translate(-70.22 -67.671)" fill="#0060a4" fill-rule="evenodd"/>
      <path id="Path_1029" data-name="Path 1029" d="M104.968,93.931a1.622,1.622,0,0,0-.156.069c-.1.047-.206.1-.308.145l-.491.239-.009,0-.01,0a.989.989,0,0,0-.461.284,1.7,1.7,0,0,0-.193.973.83.83,0,0,0,.13.292,1.8,1.8,0,0,0,.335.386,1.348,1.348,0,0,0,.169.124,1.17,1.17,0,0,0,.783.2,6.938,6.938,0,0,0,1.168-.878c0-.04,0-.1,0-.135l0-.056.782-.387.076.152-.683.339a.677.677,0,0,1,0,.137c-.011.06-.168.184-.214.223-.135.115-.273.228-.413.337a2.654,2.654,0,0,1-.689.438,1.331,1.331,0,0,1-.887-.221,1.475,1.475,0,0,1-.191-.14,1.589,1.589,0,0,1-.524-.8,1.805,1.805,0,0,1,.236-1.095,1.163,1.163,0,0,1,.54-.334q.241-.12.483-.236a4.073,4.073,0,0,1,.526-.232.3.3,0,0,1,.193.09l.361-.17.072.154-.469.221-.042-.043a.479.479,0,0,0-.1-.08" transform="translate(-69.293 -67.584)" fill="#0f0b08" fill-rule="evenodd"/>
      <path id="Path_1030" data-name="Path 1030" d="M107.76,93.2a1.216,1.216,0,0,1,.95,1.162.784.784,0,0,1-.955.808,1.217,1.217,0,0,1-.95-1.163.784.784,0,0,1,.954-.808" transform="translate(-70.767 -67.383)" fill="#0060a4" fill-rule="evenodd"/>
      <path id="Path_1031" data-name="Path 1031" d="M107.572,94.346a.456.456,0,0,1,.352.039.262.262,0,0,1,.071.4.443.443,0,0,1-.282.139.513.513,0,0,1-.142-.574" transform="translate(-71.065 -67.846)" fill="#1f75bb" fill-rule="evenodd"/>
      <path id="Path_1032" data-name="Path 1032" d="M107.726,93.277a1.091,1.091,0,0,1,.85,1.041.7.7,0,0,1-.855.723,1.09,1.09,0,0,1-.85-1.041.7.7,0,0,1,.854-.723m.015-.127a1.255,1.255,0,0,1,.979,1.2.808.808,0,0,1-.984.832,1.254,1.254,0,0,1-.978-1.2A.808.808,0,0,1,107.741,93.15Z" transform="translate(-70.747 -67.363)" fill="#0f0b08" fill-rule="evenodd"/>
      <path id="Path_1033" data-name="Path 1033" d="M107.815,93.555a.873.873,0,0,1,.681.834.562.562,0,0,1-.684.58.874.874,0,0,1-.683-.834.563.563,0,0,1,.685-.58m0-.154a1.063,1.063,0,0,1,.83,1.016.685.685,0,0,1-.834.706,1.065,1.065,0,0,1-.83-1.016A.686.686,0,0,1,107.815,93.4Z" transform="translate(-70.838 -67.465)" fill="#0060a4" fill-rule="evenodd"/>
      <path id="Path_1034" data-name="Path 1034" d="M107.884,93.546a.92.92,0,0,1,.719.879.608.608,0,0,1-.739.624.918.918,0,0,1-.718-.879.608.608,0,0,1,.738-.624m-.016-.064a.64.64,0,0,0-.781.661,1.019,1.019,0,0,0,.793.971.64.64,0,0,0,.781-.661A1.018,1.018,0,0,0,107.868,93.482Z" transform="translate(-70.88 -67.499)" fill="#74c1ec" fill-rule="evenodd"/>
      <path id="Path_1035" data-name="Path 1035" d="M107.812,94.114a.641.641,0,0,1,.4.294c.094.22-.144.351-.144.351a.445.445,0,0,1,.312.007c.143.07.02.265.02.265a.68.68,0,0,0,.2-.63.485.485,0,0,0-.788-.287" transform="translate(-71.174 -67.711)" fill="#0f0b08" fill-rule="evenodd"/>
      <path id="Path_1036" data-name="Path 1036" d="M107.963,94.46a.2.2,0,0,1,.2.136c.041.142-.072.14-.072.14a.551.551,0,0,0-.124-.277" transform="translate(-71.235 -67.9)" fill="#74c1ec" fill-rule="evenodd"/>
      <path id="Path_1037" data-name="Path 1037" d="M104.919,95.344l-.02.415-.7.452.073-.612s.054.15.078.147a2.606,2.606,0,0,0,.457-.266,1.234,1.234,0,0,1,.111-.136" transform="translate(-69.712 -68.258)" fill="#0060a4" fill-rule="evenodd"/>
      <path id="Path_1038" data-name="Path 1038" d="M105.092,95.736a1.559,1.559,0,0,0,.273.531,1.36,1.36,0,0,0,.564.418.508.508,0,0,1-.508-.105,1.436,1.436,0,0,1-.393-.44l-.66.444-.082-.145.724-.464s.016-.234.082-.239" transform="translate(-69.747 -68.417)" fill="#0060a4" fill-rule="evenodd"/>
      <path id="Path_1039" data-name="Path 1039" d="M106.495,94.565a1.593,1.593,0,0,0,.156.6,1.817,1.817,0,0,0,.49.512,2.65,2.65,0,0,1-.415.233s.118-.212.058-.3a1.757,1.757,0,0,1-.289-.48,1.2,1.2,0,0,1-.079-.3.8.8,0,0,0-.076.161.515.515,0,0,0-.008.23.65.65,0,0,1-.061-.34.391.391,0,0,1,.223-.314" transform="translate(-70.549 -67.943)" fill="#0060a4" fill-rule="evenodd"/>
      <path id="Path_1040" data-name="Path 1040" d="M95.569,89.18a2.945,2.945,0,0,1-.349.228c-.03,0-.212-.062-.212-.062s-.547.282-.926.485a3.728,3.728,0,0,0-.425,1.226,1.149,1.149,0,0,0,.016.447,2.136,2.136,0,0,0,.6.55,1.446,1.446,0,0,0,.638.154c.068-.03.647-.452.867-.615a3.652,3.652,0,0,0,.454-.429s-.042-.144-.017-.173.358-.264.358-.264Z" transform="translate(-65.436 -65.762)" fill="#00213f" fill-rule="evenodd"/>
      <path id="Path_1041" data-name="Path 1041" d="M94.167,90.259a1.246,1.246,0,0,0-.252.456,4.622,4.622,0,0,0-.037.9c.017.035.741.644.741.644a.247.247,0,0,0,.215.031c.114-.043.867-.53.882-.528a1.579,1.579,0,0,1,.057.268s-.668.628-1,.593a2.993,2.993,0,0,1-.784-.251,2.68,2.68,0,0,1-.248-.24,1.125,1.125,0,0,1-.08-.637,3.733,3.733,0,0,1,.415-1.207.953.953,0,0,1,.1-.027" transform="translate(-65.436 -66.199)" fill="#0060a4" fill-rule="evenodd"/>
      <path id="Path_1042" data-name="Path 1042" d="M95.3,93.561a1,1,0,0,0,.446-.152c.2-.137.255-.058.255-.058l.333-.284s.028.145.028.167-.467.462-.678.467a.655.655,0,0,1-.384-.139" transform="translate(-66.107 -67.336)" fill="#74c1ec" fill-rule="evenodd"/>
      <path id="Path_1043" data-name="Path 1043" d="M93.809,91.3a4.929,4.929,0,0,0-.027.752c.021.051.689.627.711.662s-.046.058-.046.058-.7-.641-.713-.67-.065,0-.092.008a1.26,1.26,0,0,1,.014-.2,3.429,3.429,0,0,1,.153-.614" transform="translate(-65.436 -66.621)" fill="#74c1ec" fill-rule="evenodd"/>
      <path id="Path_1044" data-name="Path 1044" d="M95.777,89.379a.589.589,0,0,0-.306.129.515.515,0,0,0-.051.651l.126.13a.756.756,0,0,1-.023-.409.464.464,0,0,1,.206-.251.987.987,0,0,0-.058.535,1.144,1.144,0,0,0,.252.506,1.371,1.371,0,0,1-.181-.681.918.918,0,0,1,.129-.4c.024-.026.257-.156.257-.156l.02-.185Z" transform="translate(-66.119 -65.788)" fill="#0060a4" fill-rule="evenodd"/>
      <path id="Path_1045" data-name="Path 1045" d="M93.666,91.359l.033.046a1.8,1.8,0,0,0,.359.363,1.308,1.308,0,0,0,.177.113,1.167,1.167,0,0,0,.794.146,6.828,6.828,0,0,0,1.108-.952,1.253,1.253,0,0,0-.012-.134l-.007-.055.756-.438.085.147-.659.382a.689.689,0,0,1,.005.137c-.008.061-.157.195-.2.236-.127.124-.258.245-.39.363a2.684,2.684,0,0,1-.659.483,1.339,1.339,0,0,1-.9-.164,1.49,1.49,0,0,1-.2-.127c-.03-.023-.064-.051-.1-.083a1.123,1.123,0,0,1-.19-.462m1.4-2.057c-.045.018-.111.057-.151.079-.1.054-.2.11-.3.165-.158.09-.317.18-.474.271l-.009.005-.009,0a.682.682,0,0,0-.078.029,2.584,2.584,0,0,1,.143-.248l-.027,0,.37-.211a4.113,4.113,0,0,1,.509-.266.3.3,0,0,1,.2.077l.349-.193.082.148-.453.251-.045-.041A.469.469,0,0,0,95.063,89.3Z" transform="translate(-65.446 -65.696)" fill="#0f0b08" fill-rule="evenodd"/>
      <path id="Path_1046" data-name="Path 1046" d="M97.552,88.458a1.217,1.217,0,0,1,1.024,1.1.784.784,0,0,1-.9.869,1.217,1.217,0,0,1-1.024-1.1.784.784,0,0,1,.9-.868" transform="translate(-66.654 -65.467)" fill="#0060a4" fill-rule="evenodd"/>
      <path id="Path_1047" data-name="Path 1047" d="M97.412,89.642a.454.454,0,0,1,.353.015.262.262,0,0,1,.1.391.443.443,0,0,1-.273.157.514.514,0,0,1-.178-.564" transform="translate(-66.955 -65.937)" fill="#1f75bb" fill-rule="evenodd"/>
      <path id="Path_1048" data-name="Path 1048" d="M97.523,88.537a1.088,1.088,0,0,1,.916.982.7.7,0,0,1-.805.777,1.09,1.09,0,0,1-.917-.982.7.7,0,0,1,.806-.777m.008-.128a1.253,1.253,0,0,1,1.054,1.131.808.808,0,0,1-.927.894A1.254,1.254,0,0,1,96.6,89.3.808.808,0,0,1,97.531,88.409Z" transform="translate(-66.635 -65.447)" fill="#0f0b08" fill-rule="evenodd"/>
      <path id="Path_1049" data-name="Path 1049" d="M97.626,88.813a.874.874,0,0,1,.735.788.563.563,0,0,1-.646.623.872.872,0,0,1-.735-.788.562.562,0,0,1,.646-.623m-.01-.154a1.063,1.063,0,0,1,.895.959.685.685,0,0,1-.787.759,1.064,1.064,0,0,1-.894-.959A.685.685,0,0,1,97.616,88.66Z" transform="translate(-66.726 -65.549)" fill="#0060a4" fill-rule="evenodd"/>
      <path id="Path_1050" data-name="Path 1050" d="M97.691,88.8a.92.92,0,0,1,.775.83.608.608,0,0,1-.7.671.921.921,0,0,1-.775-.83.608.608,0,0,1,.7-.671m-.02-.064a.64.64,0,0,0-.736.711,1.019,1.019,0,0,0,.855.917.64.64,0,0,0,.736-.711A1.018,1.018,0,0,0,97.671,88.739Z" transform="translate(-66.769 -65.581)" fill="#74c1ec" fill-rule="evenodd"/>
      <path id="Path_1051" data-name="Path 1051" d="M97.634,89.389a.642.642,0,0,1,.422.267c.108.214-.12.36-.12.36A.443.443,0,0,1,98.247,90c.148.06.038.264.038.264a.682.682,0,0,0,.154-.641.485.485,0,0,0-.805-.235" transform="translate(-67.052 -65.79)" fill="#0f0b08" fill-rule="evenodd"/>
      <path id="Path_1052" data-name="Path 1052" d="M97.8,89.739a.2.2,0,0,1,.2.123c.05.139-.062.145-.062.145a.543.543,0,0,0-.142-.268" transform="translate(-67.119 -65.988)" fill="#74c1ec" fill-rule="evenodd"/>
      <path id="Path_1053" data-name="Path 1053" d="M94.861,90.788l.007.415-.668.5.033-.615s.062.146.087.141a2.594,2.594,0,0,0,.439-.295,1.188,1.188,0,0,1,.1-.143" transform="translate(-65.662 -66.413)" fill="#0060a4" fill-rule="evenodd"/>
      <path id="Path_1054" data-name="Path 1054" d="M95.051,91.164a1.561,1.561,0,0,0,.308.512,1.358,1.358,0,0,0,.59.38.509.509,0,0,1-.514-.073,1.447,1.447,0,0,1-.421-.413l-.63.486-.09-.139.691-.51s0-.235.067-.243" transform="translate(-65.699 -66.565)" fill="#0060a4" fill-rule="evenodd"/>
      <path id="Path_1055" data-name="Path 1055" d="M96.36,89.929a1.6,1.6,0,0,0,.194.589,1.8,1.8,0,0,0,.522.479,2.661,2.661,0,0,1-.4.259s.1-.22.039-.3a1.784,1.784,0,0,1-.318-.46,1.2,1.2,0,0,1-.1-.3.759.759,0,0,0-.065.166.507.507,0,0,0,.007.23.649.649,0,0,1-.083-.336.392.392,0,0,1,.2-.328" transform="translate(-66.454 -66.065)" fill="#0060a4" fill-rule="evenodd"/>
      <path id="Path_1056" data-name="Path 1056" d="M89.657,97.469a2.939,2.939,0,0,1-.346.218c-.028-.005-.206-.065-.206-.065s-.6.3-.975.49a1.267,1.267,0,0,0-.01.617,7.193,7.193,0,0,0,.71,1.577.44.44,0,0,0,.057.121.164.164,0,0,0,.069,0c.067-.027.642-.431.86-.588a3.554,3.554,0,0,0,.452-.413s-.038-.142-.014-.17S90.61,99,90.61,99Z" transform="translate(-63.186 -69.118)" fill="#00213f" fill-rule="evenodd"/>
      <path id="Path_1057" data-name="Path 1057" d="M88.7,100.462a.237.237,0,0,0,.195.023c.113-.039.858-.5.874-.5a1.622,1.622,0,0,1,.051.264s-.606.55-.946.566a.425.425,0,0,1-.04-.094,1.491,1.491,0,0,0-.133-.257m-.424-1.975a1.466,1.466,0,0,0-.182.259,1.228,1.228,0,0,1,.037-.217A1.06,1.06,0,0,1,88.277,98.487Z" transform="translate(-63.19 -69.531)" fill="#0060a4" fill-rule="evenodd"/>
      <path id="Path_1058" data-name="Path 1058" d="M89.248,101.734a.92.92,0,0,0,.349-.131c.2-.13.251-.052.251-.052l.331-.273s.025.143.025.164-.465.445-.672.446a.563.563,0,0,1-.239-.058.664.664,0,0,0-.046-.1" transform="translate(-63.657 -70.661)" fill="#74c1ec" fill-rule="evenodd"/>
      <path id="Path_1059" data-name="Path 1059" d="M89.635,97.655a.574.574,0,0,0-.3.121.506.506,0,0,0-.061.637l.121.13a.742.742,0,0,1-.015-.4.451.451,0,0,1,.206-.242.967.967,0,0,0-.066.523,1.119,1.119,0,0,0,.239.5,1.337,1.337,0,0,1-.165-.67.907.907,0,0,1,.132-.394c.024-.025.255-.149.255-.149L90,97.528Z" transform="translate(-63.632 -69.143)" fill="#0060a4" fill-rule="evenodd"/>
      <path id="Path_1060" data-name="Path 1060" d="M88.854,100.26a1.267,1.267,0,0,0,.234-.012,6.755,6.755,0,0,0,1.1-.915c0-.039-.007-.1-.01-.132l-.005-.054.748-.417.08.145-.652.364a.642.642,0,0,1,0,.135c-.008.059-.156.187-.2.228-.126.12-.257.236-.389.349a2.638,2.638,0,0,1-.653.461,1.474,1.474,0,0,1-.155.014.466.466,0,0,1-.1-.167m.312-2.681a1.526,1.526,0,0,0-.15.075c-.1.051-.2.1-.295.157q-.235.127-.469.257l-.008,0-.009,0a.636.636,0,0,0-.1.039,1.417,1.417,0,0,1,.06-.2q.225-.125.452-.248a3.855,3.855,0,0,1,.5-.252.289.289,0,0,1,.192.079l.346-.184.078.147-.448.238-.044-.04A.451.451,0,0,0,89.167,97.58Z" transform="translate(-63.205 -69.054)" fill="#0f0b08" fill-rule="evenodd"/>
      <path id="Path_1061" data-name="Path 1061" d="M91.386,96.782a1.192,1.192,0,0,1,.985,1.093.768.768,0,0,1-.9.835,1.192,1.192,0,0,1-.985-1.093.768.768,0,0,1,.9-.835" transform="translate(-64.159 -68.837)" fill="#0060a4" fill-rule="evenodd"/>
      <path id="Path_1062" data-name="Path 1062" d="M91.237,97.932a.445.445,0,0,1,.346.021.257.257,0,0,1,.089.384.434.434,0,0,1-.27.149.5.5,0,0,1-.165-.555" transform="translate(-64.454 -69.295)" fill="#1f75bb" fill-rule="evenodd"/>
      <path id="Path_1063" data-name="Path 1063" d="M91.356,96.859a1.068,1.068,0,0,1,.881.978.687.687,0,0,1-.8.747,1.067,1.067,0,0,1-.882-.978.688.688,0,0,1,.8-.748m.009-.125a1.227,1.227,0,0,1,1.015,1.125.792.792,0,0,1-.923.86,1.23,1.23,0,0,1-1.015-1.125A.792.792,0,0,1,91.365,96.734Z" transform="translate(-64.14 -68.817)" fill="#0f0b08" fill-rule="evenodd"/>
      <path id="Path_1064" data-name="Path 1064" d="M91.454,97.13a.854.854,0,0,1,.706.784.551.551,0,0,1-.643.6.857.857,0,0,1-.707-.784.551.551,0,0,1,.644-.6m-.007-.151a1.042,1.042,0,0,1,.86.954.671.671,0,0,1-.783.73,1.043,1.043,0,0,1-.861-.955A.672.672,0,0,1,91.447,96.98Z" transform="translate(-64.229 -68.917)" fill="#0060a4" fill-rule="evenodd"/>
      <path id="Path_1065" data-name="Path 1065" d="M91.518,97.12a.9.9,0,0,1,.746.826.6.6,0,0,1-.693.646.9.9,0,0,1-.745-.826.6.6,0,0,1,.693-.646m-.018-.063a.628.628,0,0,0-.733.684,1,1,0,0,0,.822.913.628.628,0,0,0,.733-.684A1,1,0,0,0,91.5,97.057Z" transform="translate(-64.272 -68.949)" fill="#74c1ec" fill-rule="evenodd"/>
      <path id="Path_1066" data-name="Path 1066" d="M91.458,97.69a.627.627,0,0,1,.409.268c.1.21-.124.35-.124.35a.434.434,0,0,1,.305-.008c.143.062.033.259.033.259a.667.667,0,0,0,.162-.625.475.475,0,0,0-.785-.243" transform="translate(-64.551 -69.154)" fill="#0f0b08" fill-rule="evenodd"/>
      <path id="Path_1067" data-name="Path 1067" d="M91.618,98.031a.2.2,0,0,1,.2.124c.046.137-.064.141-.064.141a.539.539,0,0,0-.134-.265" transform="translate(-64.617 -69.346)" fill="#74c1ec" fill-rule="evenodd"/>
      <path id="Path_1068" data-name="Path 1068" d="M88.743,99.018v.406l-.48.345a3.271,3.271,0,0,1-.126-.412c0-.016-.007-.031-.01-.046.015.035.058.131.078.127a2.561,2.561,0,0,0,.434-.281,1.234,1.234,0,0,1,.1-.138" transform="translate(-63.202 -69.746)" fill="#0060a4" fill-rule="evenodd"/>
      <path id="Path_1069" data-name="Path 1069" d="M89,99.391a1.532,1.532,0,0,0,.292.506,1.33,1.33,0,0,0,.572.382.5.5,0,0,1-.5-.079,1.425,1.425,0,0,1-.405-.412l-.487.362c-.021-.048-.042-.1-.062-.149l.524-.374s.005-.23.07-.237" transform="translate(-63.316 -69.897)" fill="#0060a4" fill-rule="evenodd"/>
      <path id="Path_1070" data-name="Path 1070" d="M90.2,98.2a1.555,1.555,0,0,0,.18.581,1.78,1.78,0,0,0,.5.478,2.6,2.6,0,0,1-.4.248s.105-.214.043-.3a1.742,1.742,0,0,1-.3-.456,1.181,1.181,0,0,1-.091-.293.779.779,0,0,0-.067.161.507.507,0,0,0,0,.226.638.638,0,0,1-.076-.33.383.383,0,0,1,.2-.318" transform="translate(-63.958 -69.413)" fill="#0060a4" fill-rule="evenodd"/>
      <path id="Path_1071" data-name="Path 1071" d="M95.818,107.331a2.93,2.93,0,0,1-.363.2c-.029-.007-.207-.076-.207-.076s-1.191.517-1.313.594a.868.868,0,0,0-.165.345,3.444,3.444,0,0,0,1.465,1.445,2.08,2.08,0,0,0,.282.127l.346-.221a3.625,3.625,0,0,0,.481-.4s-.032-.146-.005-.174.375-.239.375-.239Z" transform="translate(-65.488 -73.112)" fill="#00213f" fill-rule="evenodd"/>
      <path id="Path_1072" data-name="Path 1072" d="M95.157,110.19c.269-.14.63-.339.64-.337a1.619,1.619,0,0,1,.039.271s-.135.111-.315.232a2.041,2.041,0,0,1-.314-.139l-.051-.028m-.807-1.936a1.247,1.247,0,0,0-.281.439,3.292,3.292,0,0,0-.075.488,3,3,0,0,1-.292-.49A.886.886,0,0,1,94.35,108.254Z" transform="translate(-65.46 -73.486)" fill="#0060a4" fill-rule="evenodd"/>
      <path id="Path_1073" data-name="Path 1073" d="M96.354,111.457c.077-.012.1.024.1.024l.35-.261s.018.146.017.168a1.343,1.343,0,0,1-.209.176,1.843,1.843,0,0,1-.259-.107" transform="translate(-66.534 -74.687)" fill="#74c1ec" fill-rule="evenodd"/>
      <path id="Path_1074" data-name="Path 1074" d="M94.011,108.391a.364.364,0,0,1,.206.019.874.874,0,0,0-.189.319,3.183,3.183,0,0,0-.07.4,3.017,3.017,0,0,1-.158-.264c.049-.172.082-.227.113-.254a.881.881,0,0,0,.1-.219" transform="translate(-65.5 -73.54)" fill="#74c1ec" fill-rule="evenodd"/>
      <path id="Path_1075" data-name="Path 1075" d="M96.07,107.494a.59.59,0,0,0-.314.109.517.517,0,0,0-.093.646l.117.137a.761.761,0,0,1,0-.409.465.465,0,0,1,.222-.236.987.987,0,0,0-.093.53,1.144,1.144,0,0,0,.218.521,1.371,1.371,0,0,1-.135-.691.924.924,0,0,1,.154-.395c.027-.025.267-.14.267-.14l.032-.183Z" transform="translate(-66.225 -73.133)" fill="#0060a4" fill-rule="evenodd"/>
      <path id="Path_1076" data-name="Path 1076" d="M95.407,109.89a8.455,8.455,0,0,0,.775-.631,1.227,1.227,0,0,0,0-.135l0-.055.783-.388.075.152-.683.338a.717.717,0,0,1,0,.137c-.012.061-.169.184-.215.223-.134.115-.273.228-.412.337l-.112.086a1.556,1.556,0,0,1-.2-.064m-.181-2.47c-.046.015-.115.049-.157.068-.1.048-.206.1-.308.146-.164.079-.327.158-.49.239l-.01,0-.01,0a.987.987,0,0,0-.461.284.538.538,0,0,0-.092.159c-.037-.074-.066-.141-.089-.2a.491.491,0,0,1,.055-.073,1.162,1.162,0,0,1,.54-.334q.24-.12.483-.236a4,4,0,0,1,.526-.232.3.3,0,0,1,.192.09l.361-.17.073.154-.469.221-.042-.044A.478.478,0,0,0,95.226,107.42Z" transform="translate(-65.423 -73.047)" fill="#0f0b08" fill-rule="evenodd"/>
      <path id="Path_1077" data-name="Path 1077" d="M97.891,106.688a1.218,1.218,0,0,1,.951,1.163.785.785,0,0,1-.956.808,1.219,1.219,0,0,1-.95-1.163.784.784,0,0,1,.954-.808" transform="translate(-66.77 -72.845)" fill="#0060a4" fill-rule="evenodd"/>
      <path id="Path_1078" data-name="Path 1078" d="M97.7,107.835a.454.454,0,0,1,.352.038.263.263,0,0,1,.073.4.444.444,0,0,1-.283.139.513.513,0,0,1-.142-.574" transform="translate(-67.068 -73.308)" fill="#1f75bb" fill-rule="evenodd"/>
      <path id="Path_1079" data-name="Path 1079" d="M97.857,106.766a1.089,1.089,0,0,1,.85,1.04.7.7,0,0,1-.854.723,1.089,1.089,0,0,1-.85-1.04.7.7,0,0,1,.854-.723m.015-.127a1.253,1.253,0,0,1,.979,1.2.808.808,0,0,1-.984.832,1.255,1.255,0,0,1-.978-1.2A.808.808,0,0,1,97.872,106.639Z" transform="translate(-66.751 -72.825)" fill="#0f0b08" fill-rule="evenodd"/>
      <path id="Path_1080" data-name="Path 1080" d="M97.947,107.044a.874.874,0,0,1,.683.834.563.563,0,0,1-.686.58.874.874,0,0,1-.682-.834.562.562,0,0,1,.685-.58m0-.154a1.064,1.064,0,0,1,.831,1.016.686.686,0,0,1-.834.706,1.064,1.064,0,0,1-.831-1.016A.685.685,0,0,1,97.947,106.889Z" transform="translate(-66.841 -72.927)" fill="#0060a4" fill-rule="evenodd"/>
      <path id="Path_1081" data-name="Path 1081" d="M98.015,107.035a.919.919,0,0,1,.719.879.608.608,0,0,1-.738.624.919.919,0,0,1-.719-.878.608.608,0,0,1,.738-.624M98,106.97a.64.64,0,0,0-.781.661,1.019,1.019,0,0,0,.793.972.64.64,0,0,0,.781-.662A1.019,1.019,0,0,0,98,106.97Z" transform="translate(-66.884 -72.961)" fill="#74c1ec" fill-rule="evenodd"/>
      <path id="Path_1082" data-name="Path 1082" d="M97.943,107.6a.642.642,0,0,1,.4.293c.094.22-.143.351-.143.351a.441.441,0,0,1,.312.007c.143.07.02.265.02.265a.682.682,0,0,0,.2-.63.485.485,0,0,0-.788-.287" transform="translate(-67.177 -73.173)" fill="#0f0b08" fill-rule="evenodd"/>
      <path id="Path_1083" data-name="Path 1083" d="M98.094,107.948a.2.2,0,0,1,.2.136c.041.143-.072.14-.072.14a.544.544,0,0,0-.124-.277" transform="translate(-67.238 -73.362)" fill="#74c1ec" fill-rule="evenodd"/>
      <path id="Path_1084" data-name="Path 1084" d="M95.064,108.833l-.021.414-.6.39c-.027-.031-.053-.061-.077-.092l.055-.458s.053.15.077.146a2.581,2.581,0,0,0,.457-.265,1.164,1.164,0,0,1,.112-.136" transform="translate(-65.727 -73.72)" fill="#0060a4" fill-rule="evenodd"/>
      <path id="Path_1085" data-name="Path 1085" d="M95.293,109.225a1.56,1.56,0,0,0,.273.531,1.368,1.368,0,0,0,.564.418.509.509,0,0,1-.509-.106,1.449,1.449,0,0,1-.393-.44l-.523.352c-.04-.04-.079-.08-.115-.119l.62-.4s.017-.234.083-.238" transform="translate(-65.819 -73.879)" fill="#0060a4" fill-rule="evenodd"/>
      <path id="Path_1086" data-name="Path 1086" d="M96.627,108.053a1.6,1.6,0,0,0,.155.6,1.827,1.827,0,0,0,.49.512,2.648,2.648,0,0,1-.415.233s.118-.213.058-.3a1.789,1.789,0,0,1-.288-.48,1.192,1.192,0,0,1-.079-.3.784.784,0,0,0-.076.161.511.511,0,0,0-.007.23.649.649,0,0,1-.061-.34.392.392,0,0,1,.223-.315" transform="translate(-66.552 -73.404)" fill="#0060a4" fill-rule="evenodd"/>
      <path id="Path_1087" data-name="Path 1087" d="M105.843,104.992a2.889,2.889,0,0,1-.362.193c-.027-.007-.2-.08-.2-.08s-1.183.48-1.3.552a3.039,3.039,0,0,0-.365,1.078,2.008,2.008,0,0,0,.5.782,5.459,5.459,0,0,0,1.213.162c.188-.111.4-.236.51-.306a3.613,3.613,0,0,0,.483-.38s-.028-.145,0-.171.374-.226.374-.226Z" transform="translate(-69.472 -72.165)" fill="#00213f" fill-rule="evenodd"/>
      <path id="Path_1088" data-name="Path 1088" d="M104.383,105.841a1.234,1.234,0,0,0-.287.424,4.516,4.516,0,0,0-.117.877c.014.035.668.7.668.7a.245.245,0,0,0,.208.05c.116-.032.9-.442.912-.439a1.629,1.629,0,0,1,.031.268,4.328,4.328,0,0,1-.456.306,5.584,5.584,0,0,1-1.385-.192,1.457,1.457,0,0,1-.423-.783c.006-.364.111-1.1.848-1.207" transform="translate(-69.441 -72.509)" fill="#0060a4" fill-rule="evenodd"/>
      <path id="Path_1089" data-name="Path 1089" d="M105.646,109.195a.9.9,0,0,0,.3-.1c.206-.117.255-.034.255-.034l.351-.249s.015.145.013.165a1.816,1.816,0,0,1-.329.246,4.059,4.059,0,0,1-.592-.031" transform="translate(-70.297 -73.713)" fill="#74c1ec" fill-rule="evenodd"/>
      <path id="Path_1090" data-name="Path 1090" d="M104.126,105.962a.351.351,0,0,1,.2.024.854.854,0,0,0-.193.309,4.96,4.96,0,0,0-.133.905c.015.051.619.675.639.711s-.052.053-.052.053-.63-.69-.639-.719-.1,0-.1,0a2,2,0,0,1,.02-.676c.077-.29.122-.366.16-.4a.852.852,0,0,0,.1-.212" transform="translate(-69.56 -72.556)" fill="#74c1ec" fill-rule="evenodd"/>
      <path id="Path_1091" data-name="Path 1091" d="M106.227,105.139a.58.58,0,0,0-.312.1.507.507,0,0,0-.107.633l.111.138a.743.743,0,0,1,.014-.4.455.455,0,0,1,.224-.227.968.968,0,0,0-.1.519,1.123,1.123,0,0,0,.2.517,1.347,1.347,0,0,1-.117-.683.9.9,0,0,1,.161-.384c.027-.024.265-.13.265-.13l.036-.179Z" transform="translate(-70.335 -72.184)" fill="#0060a4" fill-rule="evenodd"/>
      <path id="Path_1092" data-name="Path 1092" d="M105.2,107.615a8.941,8.941,0,0,0,.948-.716c0-.039,0-.1,0-.133l0-.055.779-.362.07.151-.679.316a.672.672,0,0,1-.008.134c-.013.059-.17.177-.216.214-.136.11-.274.217-.414.321l-.163.119-.029,0c-.095.007-.19.01-.286.008m.052-2.547a1.451,1.451,0,0,0-.155.064c-.1.044-.205.09-.307.136q-.245.11-.487.223l-.01,0-.009,0a.973.973,0,0,0-.461.268,1.673,1.673,0,0,0-.214.952.818.818,0,0,0,.121.29,1.744,1.744,0,0,0,.32.388,1.356,1.356,0,0,0,.105.086c-.141-.032-.258-.062-.338-.084a1.357,1.357,0,0,1-.375-.675,1.766,1.766,0,0,1,.259-1.071,1.139,1.139,0,0,1,.539-.315c.16-.074.32-.148.481-.22a4.012,4.012,0,0,1,.522-.215.3.3,0,0,1,.187.093l.359-.158.067.153-.467.205-.04-.044A.46.46,0,0,0,105.254,105.067Z" transform="translate(-69.404 -72.101)" fill="#0f0b08" fill-rule="evenodd"/>
      <path id="Path_1093" data-name="Path 1093" d="M108.034,104.39a1.2,1.2,0,0,1,.906,1.166.772.772,0,0,1-.959.771,1.2,1.2,0,0,1-.906-1.166.772.772,0,0,1,.959-.771" transform="translate(-70.876 -71.913)" fill="#0060a4" fill-rule="evenodd"/>
      <path id="Path_1094" data-name="Path 1094" d="M107.831,105.5a.449.449,0,0,1,.345.046.258.258,0,0,1,.061.392.435.435,0,0,1-.281.13.5.5,0,0,1-.125-.568" transform="translate(-71.168 -72.365)" fill="#1f75bb" fill-rule="evenodd"/>
      <path id="Path_1095" data-name="Path 1095" d="M108,104.466a1.072,1.072,0,0,1,.811,1.044.69.69,0,0,1-.858.69,1.073,1.073,0,0,1-.811-1.044.691.691,0,0,1,.858-.69m.019-.124a1.232,1.232,0,0,1,.932,1.2.794.794,0,0,1-.987.794,1.233,1.233,0,0,1-.932-1.2A.794.794,0,0,1,108.016,104.342Z" transform="translate(-70.856 -71.893)" fill="#0f0b08" fill-rule="evenodd"/>
      <path id="Path_1096" data-name="Path 1096" d="M108.081,104.739a.859.859,0,0,1,.65.837.554.554,0,0,1-.688.553.859.859,0,0,1-.65-.837.553.553,0,0,1,.688-.553m0-.151a1.046,1.046,0,0,1,.791,1.019.674.674,0,0,1-.837.674,1.046,1.046,0,0,1-.792-1.019A.674.674,0,0,1,108.086,104.588Z" transform="translate(-70.945 -71.994)" fill="#0060a4" fill-rule="evenodd"/>
      <path id="Path_1097" data-name="Path 1097" d="M108.149,104.732a.9.9,0,0,1,.685.881.6.6,0,0,1-.741.6.9.9,0,0,1-.686-.881.6.6,0,0,1,.742-.6m-.015-.064a.63.63,0,0,0-.784.631,1,1,0,0,0,.757.974.629.629,0,0,0,.783-.631A1,1,0,0,0,108.134,104.668Z" transform="translate(-70.987 -72.027)" fill="#74c1ec" fill-rule="evenodd"/>
      <path id="Path_1098" data-name="Path 1098" d="M108.075,105.282a.629.629,0,0,1,.389.3c.087.218-.149.342-.149.342a.437.437,0,0,1,.306.014c.139.073.014.262.014.262a.67.67,0,0,0,.208-.615.477.477,0,0,0-.768-.3" transform="translate(-71.28 -72.237)" fill="#0f0b08" fill-rule="evenodd"/>
      <path id="Path_1099" data-name="Path 1099" d="M108.215,105.621a.2.2,0,0,1,.19.139c.037.142-.074.137-.074.137a.532.532,0,0,0-.115-.276" transform="translate(-71.337 -72.42)" fill="#74c1ec" fill-rule="evenodd"/>
      <path id="Path_1100" data-name="Path 1100" d="M105.187,106.429l-.03.407-.7.428.087-.6s.049.149.073.146a2.555,2.555,0,0,0,.456-.25,1.179,1.179,0,0,1,.112-.13" transform="translate(-69.816 -72.747)" fill="#0060a4" fill-rule="evenodd"/>
      <path id="Path_1101" data-name="Path 1101" d="M105.35,106.82a1.522,1.522,0,0,0,.256.529,1.332,1.332,0,0,0,.544.424.5.5,0,0,1-.5-.116,1.427,1.427,0,0,1-.375-.442l-.659.42-.076-.144.722-.439s.022-.23.087-.232" transform="translate(-69.85 -72.905)" fill="#0060a4" fill-rule="evenodd"/>
      <path id="Path_1102" data-name="Path 1102" d="M106.765,105.693a1.558,1.558,0,0,0,.138.594,1.774,1.774,0,0,0,.469.515,2.609,2.609,0,0,1-.414.219s.121-.207.064-.293a1.742,1.742,0,0,1-.271-.478,1.208,1.208,0,0,1-.07-.3.822.822,0,0,0-.079.157.515.515,0,0,0-.013.226.64.64,0,0,1-.051-.336.382.382,0,0,1,.227-.3" transform="translate(-70.655 -72.449)" fill="#0060a4" fill-rule="evenodd"/>
      <path id="Path_1103" data-name="Path 1103" d="M83.139,81s-.585,5.113-.751,6.118a2.284,2.284,0,0,1-.694,1.413.732.732,0,0,0,.614-.4,4.249,4.249,0,0,0,.292-.464s-.532,1.466-1.695,1.454-3.037-.727-3.337-.567a5.937,5.937,0,0,0-.662,3.383c.127.408,1.2,1.1,2.392,1.9,1.222.816,2.577,1.738,3.117,2.177A3.363,3.363,0,0,1,83.8,98.993c-.077,1.108-1.216,6.01-1.5,7.208s-.655,1.6-1.109,1.725l-.454.12s.767-.062,1.174-1.5a59.893,59.893,0,0,0,1.512-7.131,3.143,3.143,0,0,0-.8-2.524c-.768-.855-4.076-2.971-6.687-4.709A16.227,16.227,0,0,0,71.632,90a8.826,8.826,0,0,1,1.276.216,8.22,8.22,0,0,1,1.409.543s.326-2.223.461-2.731-1.037-.765-1.864-1.091-1.028-.386-1.028-.386,3.366.983,5,1.417a20.6,20.6,0,0,0,3.985.85c.593-.052,1.121-.978,1.288-1.929s.617-5.053.715-5.348.206-.04.264-.545" transform="translate(-56.524 -62.45)" fill="#fff" fill-rule="evenodd"/>
      <path id="Path_1104" data-name="Path 1104" d="M100.373,86.648a1.577,1.577,0,0,0,.88.606,4.679,4.679,0,0,0,2.165-.276c.893-.211,6.757-1.633,6.757-1.633a4.087,4.087,0,0,1-.641.026.577.577,0,0,0-.359.014c-.154.047-6.763,1.643-7.226,1.692a1.787,1.787,0,0,1-1.576-.428" transform="translate(-68.161 -64.209)" fill="#e0e1e0" fill-rule="evenodd"/>
      <path id="Path_1105" data-name="Path 1105" d="M102.856,88.184a6.911,6.911,0,0,0,.895-.114c.4-.087,5.1-1.37,5.1-1.37a4.528,4.528,0,0,0-2.052,1.053,12.256,12.256,0,0,0-1.137,1.935c-.111.048.345-.637-.528-1.048s-1.162-.195-2.278-.456" transform="translate(-69.168 -64.758)" fill="#fff" fill-rule="evenodd"/>
      <path id="Path_1106" data-name="Path 1106" d="M115.8,92.825s-3.243,1.888-4.187,2.608a1.782,1.782,0,0,0-.226,2.375A1.98,1.98,0,0,1,111.474,96a3.164,3.164,0,0,1,.959-.922c.744-.52,2.735-1.681,2.781-1.748a2.242,2.242,0,0,1,.585-.506" transform="translate(-72.478 -67.238)" fill="#fff" fill-rule="evenodd"/>
      <path id="Path_1107" data-name="Path 1107" d="M126.641,108.472a24.939,24.939,0,0,1-.7,3.4,7.6,7.6,0,0,1-1.055,2.48,3.443,3.443,0,0,0,.886-1.454c.406-1.079.547-1.549.547-1.549a14.329,14.329,0,0,1-1.262,3.358,22.048,22.048,0,0,1-2.487,3.561,24.113,24.113,0,0,0,1.781-2.959,1.734,1.734,0,0,1-1.514-.962C122.221,113.314,120.5,111,120.5,111s2.909,3.5,3.322,3.716.732-.047,1.1-.788a26.333,26.333,0,0,0,1.717-5.453" transform="translate(-76.313 -73.574)" fill="#ebedee" fill-rule="evenodd"/>
      <path id="Path_1108" data-name="Path 1108" d="M121.768,124.119a2.306,2.306,0,0,1-.3,1.271,6.05,6.05,0,0,1-1.251,1.04,4.951,4.951,0,0,0,1.169-1.239,9.327,9.327,0,0,0,.383-1.072" transform="translate(-76.196 -79.91)" fill="#f1c8df" fill-rule="evenodd"/>
      <path id="Path_1109" data-name="Path 1109" d="M98.362,117.04s-4.219,6.314-4.454,6.766a.916.916,0,0,0,.032.869,1.787,1.787,0,0,1,.323-1.041c.381-.652,3.417-5.082,3.516-5.323a9.094,9.094,0,0,1,.583-1.272" transform="translate(-65.504 -77.044)" fill="#e0e1e0" fill-rule="evenodd"/>
      <path id="Path_1110" data-name="Path 1110" d="M95.5,98.658s2.708-.78,2.751-.809-.277-.543-1.029-.963a2.373,2.373,0,0,0-.569-.222,2.343,2.343,0,0,0-2.885,1.507c-.176.506-.043.879.026.886s1.46-.4,1.46-.4l-.275.176s-1.305.372-1.348.374-.218-.229-.03-1.025a2.59,2.59,0,0,1,1.589-1.668,2.674,2.674,0,0,1,2.115.2,3.052,3.052,0,0,1,1.126,1.019.189.189,0,0,1-.107.223c-.047.024-2.922.8-2.922.8Z" transform="translate(-65.384 -68.678)" fill="#313131" fill-rule="evenodd"/>
      <path id="Path_1111" data-name="Path 1111" d="M94.705,102.877a.536.536,0,0,1,.034-.242c.046-.073,4.622-1.351,4.66-1.35s.167.156.159.709a2.593,2.593,0,0,1-1.836,2.263,2.705,2.705,0,0,1-1.181.056,3.269,3.269,0,0,1-1.791-1.191,3.171,3.171,0,0,0,2.114,1.106,2.4,2.4,0,0,0,2.374-1.506c.25-.7.13-1.109.087-1.112s-4.37,1.107-4.444,1.125a.532.532,0,0,0-.177.14" transform="translate(-65.866 -70.664)" fill="#313131" fill-rule="evenodd"/>
      <path id="Path_1112" data-name="Path 1112" d="M96.047,62.684a23.67,23.67,0,0,1,13.378,5.34c6.177,5.185,7.818,9.354,8.75,12.462a24.033,24.033,0,0,1,1.035,4.638s.436-7.021-5.637-14-14.381-8.776-17.526-8.443" transform="translate(-66.41 -55.018)" fill="#000002" fill-rule="evenodd"/>
      <path id="Path_1113" data-name="Path 1113" d="M90.443,116.07s-.79,4.126-1.163,5.2-.889,1.065-.889,1.065a8.28,8.28,0,0,0,2.862,1.547,1.245,1.245,0,0,1,.045-.639c.115-.389,2.274-3.7,2.49-4.046s-1.043.734-1.535.707a5.533,5.533,0,0,1-1.857-.581c-.143-.156,0-.692.046-3.252" transform="translate(-63.309 -76.651)" fill="#e0e1e0" fill-rule="evenodd"/>
      <path id="Path_1114" data-name="Path 1114" d="M98.6,94.9l-.577.486a3.836,3.836,0,0,0-2.812-.481c-1.4.418-1.7,1.119-1.7,1.119a2.4,2.4,0,0,1,1.753-1.389,4.245,4.245,0,0,1,2.627.349c.107.009.277-.272-.283-.506s.7.174.99.422" transform="translate(-65.385 -67.88)" fill="#e0e1e0" fill-rule="evenodd"/>
      <path id="Path_1115" data-name="Path 1115" d="M104.229,99.743a5.347,5.347,0,0,1,.26,1.732,4.017,4.017,0,0,1-.25,1.4,3.017,3.017,0,0,0-.841.231,2.153,2.153,0,0,0-.281.174,4.994,4.994,0,0,0,.492-1.192,3.642,3.642,0,0,0,.129-.925,2.948,2.948,0,0,1,.231.96l-.016.374s.35-.2.275-2.754" transform="translate(-69.272 -70.039)" fill="#e0e1e0" fill-rule="evenodd"/>
      <path id="Path_1116" data-name="Path 1116" d="M91.734,101.875s-.625.348-.584.592a6.159,6.159,0,0,0,.727,1.6c.412.681.494.675.494.675a14.8,14.8,0,0,1-.9-2.109,1.882,1.882,0,0,1,.26-.76" transform="translate(-64.426 -70.903)" fill="#c8c9ca" fill-rule="evenodd"/>
      <path id="Path_1117" data-name="Path 1117" d="M70.244,84.293a26.056,26.056,0,0,0-.836,5.067,27.266,27.266,0,0,0,.4,5.837,18.515,18.515,0,0,1-.949-5.917,24.369,24.369,0,0,1,.933-6.17s-.223,1.663-.35,3.042l-.127,1.379a14.841,14.841,0,0,1,.927-3.237" transform="translate(-55.401 -63.304)" fill="#313131" fill-rule="evenodd"/>
      <path id="Path_1118" data-name="Path 1118" d="M123.516,83.532s.655,1.007,1.331,2.179a12.884,12.884,0,0,1,.885,1.741,5.466,5.466,0,0,0-1.072-.966,1.987,1.987,0,0,0-.953.189s.614-.458.63-.659a5.474,5.474,0,0,0-1.031-1.767.888.888,0,0,0-.671-.049,2.607,2.607,0,0,0,.88-.667" transform="translate(-77.177 -63.475)" fill="#605f5f" fill-rule="evenodd"/>
      <path id="Path_1119" data-name="Path 1119" d="M89.81,52.982a20.931,20.931,0,0,0-16.218,3.33c-5.754,4.114-8.645,10.753-8.834,17.712A31.193,31.193,0,0,0,83.941,103.07a25.78,25.78,0,0,0,4.714,1.359,20.932,20.932,0,0,0,16.218-3.329c5.754-4.115,8.644-10.754,8.834-17.713A31.194,31.194,0,0,0,94.524,54.34a25.752,25.752,0,0,0-4.714-1.359m.1-.348c13.724,2.556,24.532,16.3,24.14,30.693s-11.834,23.994-25.558,21.439-24.531-16.3-24.14-30.694S76.186,50.078,89.91,52.634Z" transform="translate(-53.571 -50.796)" fill="#0f0b08" fill-rule="evenodd"/>
      <path id="Path_1120" data-name="Path 1120" d="M70.511,68.593S73.527,57.026,86.105,56s21.191,8.348,24.5,14.92a28.488,28.488,0,0,1,3.313,14.428c-.055,3.076-1.151,10.468-7.166,14.958A20.838,20.838,0,0,0,112.011,80.4c-3.082-12.331-10.6-20.747-22.423-22.82s-17.79,7-19.077,11.014" transform="translate(-56.069 -52.296)" fill="#000002" fill-rule="evenodd"/>
      <path id="Path_1121" data-name="Path 1121" d="M129.3,122.119a17.379,17.379,0,0,1-3.7,4.706,19.021,19.021,0,0,1-6.827,3.865,16.317,16.317,0,0,0,5.414-2.186,13.11,13.11,0,0,0,5.116-6.385" transform="translate(-75.61 -79.1)" fill="#0f0b08" fill-rule="evenodd"/>
      <path id="Path_1122" data-name="Path 1122" d="M73.5,66.843A18.62,18.62,0,0,1,80.759,60.3a17.13,17.13,0,0,1,9.717-1.19,18.224,18.224,0,0,0-9.851,1.683A19.2,19.2,0,0,0,73.5,66.843" transform="translate(-57.278 -53.487)" fill="#605f5f" fill-rule="evenodd"/>
      <path id="Path_1123" data-name="Path 1123" d="M134.454,111.181a17.47,17.47,0,0,0,2.205-4.078,14.525,14.525,0,0,0,1.153-4.684,19.316,19.316,0,0,1-.336,3.2l-.324,1.623a14.191,14.191,0,0,0,1.025-3.65,26.073,26.073,0,0,0-.619-8.38,7.12,7.12,0,0,0-.765-2.149,25.249,25.249,0,0,1,.8,7.508,22.964,22.964,0,0,1-3.143,10.615" transform="translate(-81.962 -67.332)" fill="#605f5f" fill-rule="evenodd"/>
      <path id="Path_1124" data-name="Path 1124" d="M104.094,108.983l-.019.067a4.542,4.542,0,0,0,1.7.209l-.08-.1a4.014,4.014,0,0,1-1.559-.24Z" transform="translate(-69.66 -73.756)" fill="#0f0b08" fill-rule="evenodd"/>
      <path id="Path_1125" data-name="Path 1125" d="M93.771,108.749a1.48,1.48,0,0,0,.5.846,5.147,5.147,0,0,0,1.284.891l-.1.061a3.51,3.51,0,0,1-1.068-.654,2.7,2.7,0,0,1-.769-1.113Z" transform="translate(-65.428 -73.686)" fill="#0f0b08" fill-rule="evenodd"/>
      <path id="Path_1126" data-name="Path 1126" d="M94.188,90.046c0-.016-.053-.06-.053-.06A3.408,3.408,0,0,0,93.6,91.3a.967.967,0,0,0,.484,1.105l-.229-.334a.916.916,0,0,1-.1-.778,7.343,7.343,0,0,1,.438-1.245" transform="translate(-65.408 -66.088)" fill="#0f0b08" fill-rule="evenodd"/>
      <path id="Path_1127" data-name="Path 1127" d="M88.288,98.416a1.019,1.019,0,0,0,0,.922c.228.6.655,1.231.7,1.425l-.152-.054a7.051,7.051,0,0,1-.378-.708,2.127,2.127,0,0,1-.328-1.5Z" transform="translate(-63.19 -69.502)" fill="#0f0b08" fill-rule="evenodd"/>
    </g>
  </g>
</svg>
