<svg id="Icon_eyeoff" data-name="Icon / eyeoff" xmlns="http://www.w3.org/2000/svg" width="24" height="24" viewBox="0 0 24 24">
  <g id="Group_1121" data-name="Group 1121" transform="translate(-60.919 0.412)">
    <path id="Path_20" data-name="Path 20" d="M16.4,16.665A9.158,9.158,0,0,1,11,18.537c-6.364,0-10-7.268-10-7.268a16.765,16.765,0,0,1,4.6-5.4M9.091,4.218A8.3,8.3,0,0,1,11,4c6.364,0,10,7.268,10,7.268a16.808,16.808,0,0,1-1.964,2.9m-6.109-.972A2.726,2.726,0,1,1,9.073,9.342" transform="translate(61.919 1.286)" fill="none" stroke="#fff" stroke-linecap="round" stroke-linejoin="round" stroke-width="1.5"/>
    <path id="Path_22" data-name="Path 22" d="M2.062,2.062l16.97,17.051" transform="translate(62.738 1)" fill="none" stroke="#fff" stroke-linecap="round" stroke-width="1.5"/>
  </g>
  <path id="Path_21" data-name="Path 21" d="M0,0H24V24H0Z" fill="none"/>
</svg>
