<svg xmlns="http://www.w3.org/2000/svg" width="41.003" height="40" viewBox="0 0 41.003 40">
  <g id="Icon_logo" data-name="Icon/logo" transform="translate(0.501)">
    <rect id="Rectangle_1199" data-name="Rectangle 1199" width="40" height="40" fill="none"/>
    <g id="Group_732" data-name="Group 732" transform="translate(-1 -0.39)">
      <path id="Path_826" data-name="Path 826" d="M76.31,51.25q-.469.375-.971.7a13.022,13.022,0,0,1-9.584,1.818,15.217,15.217,0,0,1-3.4-1.064,17.592,17.592,0,0,1-7.7-6.855,17.865,17.865,0,0,1-2.692-10.2,14.96,14.96,0,0,1,1.8-6.519A12.993,12.993,0,0,1,58,24.526a12.555,12.555,0,0,1,1.425-.8,14.473,14.473,0,0,1,4.76-5.856,14.748,14.748,0,0,1,11.391-2.356c9.5,1.77,16.608,11.213,16.349,20.761a15.437,15.437,0,0,1-6.206,12.373A14.463,14.463,0,0,1,76.31,51.25" transform="translate(-50.934 -14.23)" fill="none" stroke="#fff" stroke-linecap="round" stroke-linejoin="round" stroke-width="1" fill-rule="evenodd"/>
      <path id="Path_809" data-name="Path 809" d="M99.236,20.015c8.807,1.64,15.743,10.459,15.492,19.7s-7.594,15.4-16.4,13.758-15.743-10.459-15.492-19.7,7.594-15.4,16.4-13.758" transform="translate(-73.82 -18.136)" fill="none" stroke="#fff" stroke-width="0.6" fill-rule="evenodd"/>
      <path id="Path_816" data-name="Path 816" d="M127.659,81.554a3.23,3.23,0,0,1,2.34.9,5.542,5.542,0,0,1,1.712,2.585,6.355,6.355,0,0,1,.146,2.369,3.5,3.5,0,0,1-1.41,2.254,3.721,3.721,0,0,1-3.327.252c-1.115-.674-.945-.295-2.035-1.592a5.744,5.744,0,0,1-.962-3.818,4.6,4.6,0,0,1,1.029-2.062c.279-.1,0,1.1,0,1.1a4.414,4.414,0,0,0-.6,1.434,6.814,6.814,0,0,0,.027,1.748,4.179,4.179,0,0,0,1.5,2.281,2.693,2.693,0,0,0,2.718.6,3.22,3.22,0,0,0,1.116-.7,2.528,2.528,0,0,0,.823-2.021,9.955,9.955,0,0,0-.345-2.771s-2.042-1.447-3.272-1.441l-1.2.205.546-1.207" transform="translate(-105.66 -65.803)" fill="#fff" fill-rule="evenodd"/>
      <path id="Path_817" data-name="Path 817" d="M146.023,86.79s-.623-.654-.578-.625-.748-.71-.748-.71.5.231.623.3.454-.229.588-.351-.111-.511-.451-.772a4.238,4.238,0,0,1,1.166.95,6.146,6.146,0,0,1,.948,1.707,5.911,5.911,0,0,1,.2,1.641c-.051,0-.114-.474-.178-.465a2.9,2.9,0,0,0-.729.694,4.329,4.329,0,0,1-.223.377A15.2,15.2,0,0,0,146.4,87.5a1.386,1.386,0,0,0-.373-.588" transform="translate(-121.543 -68.141)" fill="#fff" fill-rule="evenodd"/>
      <path id="Path_818" data-name="Path 818" d="M126.27,83.15s-.431.666-.552.831.154-.229.325-.1.115.559.115.559a7.176,7.176,0,0,1,1.195-.972c.216-.034.338-1.12.338-1.12a3.014,3.014,0,0,0-1.422.8" transform="translate(-106.881 -66.42)" fill="#fff" fill-rule="evenodd"/>
      <path id="Path_819" data-name="Path 819" d="M128.4,86.513a2.536,2.536,0,0,0-1.725.386,2.957,2.957,0,0,0-1.227,2.625,4.172,4.172,0,0,0,.866,2.378,3.708,3.708,0,0,0,1.973,1.36,3.022,3.022,0,0,0,.388.074,2.536,2.536,0,0,0,1.725-.386,2.958,2.958,0,0,0,1.227-2.625,4.168,4.168,0,0,0-.866-2.378,3.706,3.706,0,0,0-1.973-1.36,2.98,2.98,0,0,0-.388-.074m.08-.141a4.13,4.13,0,0,1,3.363,3.959,2.843,2.843,0,0,1-3.123,3.169,4.13,4.13,0,0,1-3.363-3.959A2.843,2.843,0,0,1,128.48,86.371Z" transform="translate(-106.623 -69.506)" fill="#fff" fill-rule="evenodd"/>
      <path id="Path_820" data-name="Path 820" d="M127.467,81.212a3.162,3.162,0,0,0-2.149.482,3.684,3.684,0,0,0-1.528,3.27,5.189,5.189,0,0,0,1.078,2.959,4.614,4.614,0,0,0,2.456,1.693,3.708,3.708,0,0,0,.484.092,3.161,3.161,0,0,0,2.15-.482,3.684,3.684,0,0,0,1.528-3.27A5.19,5.19,0,0,0,130.408,83a4.615,4.615,0,0,0-2.457-1.692,3.741,3.741,0,0,0-.484-.092m.062-.17a5.128,5.128,0,0,1,4.176,4.915c.082,2.444-1.654,4.206-3.878,3.936a5.129,5.129,0,0,1-4.176-4.915C123.569,82.534,125.306,80.772,127.53,81.042Z" transform="translate(-105.307 -65.392)" fill="#fff" fill-rule="evenodd"/>
      <path id="Path_821" data-name="Path 821" d="M99.612,53.652s.668-5.422.79-6.4c.068-.546-.319-.793-.817-.675a9.7,9.7,0,0,0-6.539,5.99,5.975,5.975,0,0,0-.329,1.13.98.98,0,0,0,.724.9c.456.134,2.627.643,3.847,1.016s1.35.384,1.606.285.46-.374.549-.964.169-1.279.169-1.279m-6.13,4.037s5.4,3.181,6.082,3.8.667,1.212.437,2.368-.914,4.012-1.011,4.231a.55.55,0,0,1-.729.324A11.31,11.31,0,0,1,94.78,64.79a14.563,14.563,0,0,1-2.419-6.473c-.011-.988.358-.951.565-.9A2.765,2.765,0,0,1,93.482,57.69Zm9.286,10.38s1.487-2.372,2.019-3.207.633-1.081,1.171-1.051a8.932,8.932,0,0,1,3.276,1.8c1.507,1.117,2.387,1.783,2.532,2.2s-.073.767-.473,1.195a9.392,9.392,0,0,1-4.513,1.85,10.2,10.2,0,0,1-4.627-.457c-.618-.309-.364-.8-.093-1.21C102.249,68.9,102.516,68.5,102.768,68.069Zm6.193-8.438s1.353,1.493,2.269,2.639,1.775,2.3,2.01,2.6.408.578.685.664.536-.444.773-1.118a14.624,14.624,0,0,0,.66-5.23A11.91,11.91,0,0,0,114.3,54.93a.736.736,0,0,0-.556-.347,1.012,1.012,0,0,0-.506.171c-.246.122-3.613,2.22-4.039,2.489a1.731,1.731,0,0,0-.872.939C108.222,58.58,108.336,58.867,108.96,59.631Zm-3.879-13.056a14.408,14.408,0,0,1,4.27,1.959,14.255,14.255,0,0,1,2.975,2.886c.189.285.242.643-.147.792-.308.117-2.307.484-3.432.762s-3.528.863-3.772.9a.9.9,0,0,1-1.045-.487,10.743,10.743,0,0,1-.383-2.288c-.105-.856-.532-3.131-.638-3.646s-.042-1.158.4-1.193A9.193,9.193,0,0,1,105.081,46.575Z" transform="translate(-81.174 -38.582)" fill="none" stroke="#fff" stroke-width="0.6" fill-rule="evenodd"/>
    </g>
  </g>
</svg>
