<svg xmlns="http://www.w3.org/2000/svg" width="160" height="114.194" viewBox="0 0 160 114.194">
  <g id="Sending_emails_Two_Color" data-name="Sending emails_Two Color" transform="translate(-46.884 -31.06)">
    <path id="Path_1136" data-name="Path 1136" d="M173.685,59.472c16.718,5.747,32.684,21.452,33.17,41.754s-5.062,40.976-35.563,48.99c-28.646,7.528-96.658,10.256-114.787-14.973-17.089-23.787-11.651-62.4,18.213-74.752C95.663,51.834,140.985,48.276,173.685,59.472Z" transform="translate(0 -10.21)" fill="#e6e6e6" opacity="0.3"/>
    <rect id="Rectangle_1173" data-name="Rectangle 1173" width="111.402" height="70.51" transform="translate(71.181 61.132)" fill="#e42e0e"/>
    <rect id="Rectangle_1174" data-name="Rectangle 1174" width="92.071" height="56.665" transform="translate(80.841 68.055)" fill="#0f0f0f"/>
    <rect id="Rectangle_1175" data-name="Rectangle 1175" width="122.728" height="10.23" transform="translate(66.045 131.642)" fill="#e42e0e"/>
    <rect id="Rectangle_1176" data-name="Rectangle 1176" width="122.728" height="10.23" transform="translate(66.045 131.642)" opacity="0.08"/>
    <path id="Path_1137" data-name="Path 1137" d="M167.14,188.387l5.517-2.116-8.38-21.9L124.44,179.615l3.354,8.772Z" transform="translate(-37.037 -63.662)" fill="#b5b5b5"/>
    <path id="Path_1138" data-name="Path 1138" d="M182.24,201.515l5.517-2.116-18.573-5.444-7.142-2.1-3.924,6.327-2.058,3.328Z" transform="translate(-52.137 -76.79)" opacity="0.08"/>
    <path id="Path_1139" data-name="Path 1139" d="M164.282,164.37,124.44,179.615l25.72,7.539Z" transform="translate(-37.037 -63.662)" opacity="0.08"/>
    <rect id="Rectangle_1177" data-name="Rectangle 1177" width="42.956" height="23.615" transform="matrix(0.968, -0.251, 0.251, 0.968, 98.839, 75.978)" fill="#b5b5b5"/>
    <path id="Path_1140" data-name="Path 1140" d="M199.266,130.588,157.69,141.382l16.682-21.222Z" transform="translate(-52.916 -42.55)" opacity="0.08"/>
    <path id="Path_1141" data-name="Path 1141" d="M187.906,96.37,146.33,107.164l24.9,10.428Z" transform="translate(-47.491 -31.189)" opacity="0.08"/>
    <rect id="Rectangle_1178" data-name="Rectangle 1178" width="42.956" height="23.615" transform="translate(137.914 31.063) rotate(23.87)" fill="#b5b5b5"/>
    <path id="Path_1142" data-name="Path 1142" d="M242.123,84.061,202.84,66.679,229.1,60.42Z" transform="translate(-74.477 -14.021)" opacity="0.08"/>
    <path id="Path_1143" data-name="Path 1143" d="M260.413,48.442,221.13,31.06,234.16,54.7Z" transform="translate(-83.212 0)" opacity="0.08"/>
    <rect id="Rectangle_1179" data-name="Rectangle 1179" width="20.187" height="5.115" transform="translate(117.318 131.642)" opacity="0.08"/>
  </g>
</svg>
